<svg width="110" height="110" viewBox="0 0 110 110" fill="none" xmlns="http://www.w3.org/2000/svg">
<path d="M57.3633 110C86.4337 110 110 86.4337 110 57.3633C110 28.2928 86.4337 4.72656 57.3633 4.72656C28.2928 4.72656 4.72656 28.2928 4.72656 57.3633C4.72656 86.4337 28.2928 110 57.3633 110Z" fill="#A1AFCB"/>
<path d="M51.9189 51.9183C55.9859 47.8517 61.3927 45.6122 67.1434 45.6122C71.0613 45.6122 74.8187 46.6525 78.1024 48.6009V11.5507H0V79.6368C0 80.8184 0.966797 81.7852 2.14844 81.7852H51.3616C43.5304 73.3533 43.7153 60.1223 51.9189 51.9183Z" fill="#EEF6FF"/>
<path d="M4.87266 79.6368V11.5507H0V79.6368C0 80.8184 0.966797 81.7852 2.14844 81.7852H7.02109C5.83945 81.7852 4.87266 80.8184 4.87266 79.6368Z" fill="#C3DDF4"/>
<path d="M76.8743 0H1.22805C0.552578 0 0 0.552578 0 1.22805V12.1597H78.1024V1.22805C78.1024 0.552578 77.5498 0 76.8743 0Z" fill="#293D7C"/>
<path d="M6.1007 0H1.22805C0.552578 0 0 0.552578 0 1.22805V12.1597H4.87266V1.22805C4.87266 0.552578 5.42523 0 6.1007 0Z" fill="#1A2B63"/>
<path d="M34.0009 38.3743C34.0009 38.9651 33.5175 39.4485 32.9267 39.4485H8.98389C8.39307 39.4485 7.90967 38.9651 7.90967 38.3743V21.2042C7.90967 20.6134 8.39307 20.13 8.98389 20.13H32.9265C33.5173 20.13 34.0007 20.6134 34.0007 21.2042V38.3743H34.0009Z" fill="#69CDFF"/>
<path d="M12.7823 38.3743V21.2042C12.7823 20.6134 13.2657 20.13 13.8565 20.13H8.98389C8.39307 20.13 7.90967 20.6134 7.90967 21.2042V38.3743C7.90967 38.9651 8.39307 39.4485 8.98389 39.4485H13.8565C13.2657 39.4485 12.7823 38.9651 12.7823 38.3743Z" fill="#52BBEF"/>
<path d="M46.6531 60.5404H8.98389C8.39307 60.5404 7.90967 61.0238 7.90967 61.6146V71.8861C7.90967 72.4769 8.39307 72.9603 8.98389 72.9603H46.4196C45.2863 68.8978 45.3634 64.5657 46.6531 60.5404Z" fill="#FF9518"/>
<path d="M12.7823 71.8861V61.6146C12.7823 61.0238 13.2657 60.5404 13.8565 60.5404H8.98389C8.39307 60.5404 7.90967 61.0238 7.90967 61.6146V71.8861C7.90967 72.4769 8.39307 72.9603 8.98389 72.9603H13.8565C13.2657 72.9603 12.7823 72.4769 12.7823 71.8861Z" fill="#EF8318"/>
<path d="M46.6531 60.5404H38.8545V72.9603H46.4196C45.2863 68.8978 45.3634 64.5657 46.6531 60.5404Z" fill="#FFD00D"/>
<path d="M68.912 21.7413H42.5745C42.1471 21.7413 41.7373 21.5716 41.4351 21.2694C41.1329 20.9672 40.9632 20.5574 40.9632 20.13C40.9632 19.7027 41.1329 19.2928 41.4351 18.9906C41.7373 18.6884 42.1471 18.5187 42.5745 18.5187H68.912C69.8021 18.5187 70.5233 19.2401 70.5233 20.13C70.5233 21.0199 69.8021 21.7413 68.912 21.7413ZM68.912 28.1808H42.5745C42.1471 28.1808 41.7373 28.0111 41.4351 27.7089C41.1329 27.4067 40.9632 26.9969 40.9632 26.5695C40.9632 26.1422 41.1329 25.7323 41.4351 25.4301C41.7373 25.128 42.1471 24.9582 42.5745 24.9582H68.912C69.3393 24.9582 69.7492 25.128 70.0514 25.4301C70.3535 25.7323 70.5233 26.1422 70.5233 26.5695C70.5233 26.9969 70.3535 27.4067 70.0514 27.7089C69.7492 28.0111 69.3393 28.1808 68.912 28.1808ZM68.912 34.6204H42.5745C42.1471 34.6204 41.7373 34.4506 41.4351 34.1484C41.1329 33.8462 40.9632 33.4364 40.9632 33.009C40.9632 32.5817 41.1329 32.1718 41.4351 31.8696C41.7373 31.5675 42.1471 31.3977 42.5745 31.3977H68.912C69.8021 31.3977 70.5233 32.1191 70.5233 33.009C70.5233 33.8989 69.8021 34.6204 68.912 34.6204ZM68.912 41.0599H42.5745C42.1471 41.0599 41.7373 40.8901 41.4351 40.5879C41.1329 40.2857 40.9632 39.8759 40.9632 39.4485C40.9632 39.0212 41.1329 38.6113 41.4351 38.3092C41.7373 38.007 42.1471 37.8372 42.5745 37.8372H68.912C69.8021 37.8372 70.5233 38.5587 70.5233 39.4485C70.5233 40.3384 69.8021 41.0599 68.912 41.0599ZM64.3369 45.7935H7.90967C7.01957 45.7935 6.29834 46.515 6.29834 47.4048C6.29834 48.2947 7.01957 49.0162 7.90967 49.0162H55.5135C58.1781 47.2987 61.1926 46.1977 64.3369 45.7935ZM51.5004 52.3493H7.90967C7.01957 52.3493 6.29834 53.0707 6.29834 53.9606C6.29834 54.8505 7.01957 55.5719 7.90967 55.5719H48.9852C49.7193 54.4202 50.5615 53.3411 51.5004 52.3493Z" fill="#91E0E8"/>
<path d="M7.49707 7.43579C7.07189 7.43579 6.65703 7.26392 6.35625 6.96507C6.05588 6.6613 5.8869 6.25166 5.88574 5.82446C5.88574 5.40101 6.05762 4.98657 6.35625 4.68579C6.65933 4.38399 7.06935 4.21412 7.49707 4.21313C7.92053 4.21313 8.33711 4.38479 8.63574 4.68579C8.93652 4.98657 9.1084 5.40122 9.1084 5.82446C9.1084 6.24964 8.93652 6.6645 8.63574 6.96507C8.33278 7.2655 7.92373 7.4346 7.49707 7.43579Z" fill="#E26693"/>
<path d="M12.7812 7.43579C12.3541 7.43505 11.9447 7.26505 11.6427 6.96303C11.3407 6.66101 11.1707 6.25159 11.1699 5.82446C11.1699 5.40101 11.3418 4.98657 11.6424 4.68579C11.9431 4.38501 12.3578 4.21313 12.7812 4.21313C13.209 4.21412 13.619 4.38399 13.9221 4.68579C14.2207 4.98657 14.3926 5.40122 14.3926 5.82446C14.3926 6.2477 14.2205 6.6645 13.9221 6.96292C13.619 7.2648 13.209 7.43475 12.7812 7.43579Z" fill="#FFAF10"/>
<path d="M18.0674 7.43579C17.642 7.43579 17.2273 7.26392 16.9287 6.96507C16.627 6.66204 16.4571 6.25211 16.4561 5.82446C16.4566 5.39729 16.6266 4.98777 16.9286 4.68571C17.2307 4.38365 17.6402 4.2137 18.0674 4.21313C18.4906 4.21313 18.9074 4.38479 19.2061 4.68579C19.5068 4.98657 19.6787 5.40122 19.6787 5.82446C19.6787 6.24964 19.5068 6.6645 19.2061 6.96507C18.9028 7.26511 18.494 7.43414 18.0674 7.43579Z" fill="#37C47A"/>
<path d="M88.0362 83.6187L83.6201 88.035L92.3077 96.7226C93.8654 95.3386 95.3401 93.864 96.7241 92.3063L88.0362 83.6187Z" fill="#445EA0"/>
<path d="M89.7889 80.9555L86.1291 77.2959C85.132 79.1624 83.8641 80.8711 82.3667 82.3664C80.8486 83.8845 79.1436 85.1476 77.3037 86.135L80.9567 89.7878C81.3744 90.2056 82.058 90.2056 82.4759 89.7878L89.7889 82.4747C90.2066 82.057 90.2066 81.3734 89.7889 80.9555Z" fill="#293D7C"/>
<path d="M83.4633 87.2812L80.3395 84.1573C79.3851 84.9009 78.3696 85.5624 77.3037 86.1348L80.9567 89.7875C81.3744 90.2054 82.058 90.2054 82.4759 89.7875L84.9824 87.281C84.7807 87.4818 84.5076 87.5945 84.2229 87.5945C83.9382 87.5946 83.6651 87.4819 83.4633 87.2812Z" fill="#1A2B63"/>
<path d="M82.6711 51.6143C91.2468 60.19 91.2468 74.0943 82.6709 82.6702C74.0956 91.2453 60.1916 91.2455 51.6152 82.67C43.0395 74.0943 43.0399 60.19 51.6152 51.6145C60.1916 43.0386 74.0956 43.0384 82.6711 51.6143Z" fill="#445EA0"/>
<path d="M78.0305 78.0294C72.0179 84.0422 62.2689 84.0422 56.2556 78.0289C50.243 72.0168 50.2428 62.2676 56.2556 56.2547C62.2683 50.2421 72.0177 50.2423 78.0303 56.2547C84.0433 62.2678 84.0433 72.0165 78.0305 78.0294Z" fill="#69CDFF"/>
<path d="M78.0305 78.0294C78.5696 77.4899 79.0682 76.9114 79.5221 76.2986C73.4947 80.7684 64.9439 80.2719 59.4783 74.8063C54.0131 69.3415 53.5168 60.7905 57.9864 54.7631C57.3736 55.2171 56.7951 55.7157 56.2556 56.2547C50.2428 62.2676 50.243 72.0165 56.2556 78.0289C62.2689 84.0422 72.0179 84.0422 78.0305 78.0294Z" fill="#52BBEF"/>
<path d="M76.8743 0H24.903V12.1597H78.1024V1.22805C78.1024 0.552578 77.5498 0 76.8743 0Z" fill="#445EA0"/>
<path d="M69.7876 59.4108C71.2115 59.4108 72.3657 58.2565 72.3657 56.8326C72.3657 55.4088 71.2115 54.2545 69.7876 54.2545C68.3637 54.2545 67.2095 55.4088 67.2095 56.8326C67.2095 58.2565 68.3637 59.4108 69.7876 59.4108Z" fill="#D9EAFC"/>
<path d="M75.2041 61.3379C76.2127 61.3379 77.0303 60.5203 77.0303 59.5117C77.0303 58.5032 76.2127 57.6855 75.2041 57.6855C74.1955 57.6855 73.3779 58.5032 73.3779 59.5117C73.3779 60.5203 74.1955 61.3379 75.2041 61.3379Z" fill="#D9EAFC"/>
</svg>
