<svg width="90" height="90" viewBox="0 0 90 90" fill="none" xmlns="http://www.w3.org/2000/svg">
<g clip-path="url(#clip0_1_41)">
<path d="M87.4553 41.4776C83.4053 23.5087 74.4673 11.1569 66.5225 12.9569L58.9501 14.6638C55.9242 15.3466 53.5811 18.869 52.0915 23.0121C51.158 22.6603 50.1909 22.4055 49.2053 22.2518C39.8949 20.7 38.7932 27.9311 27.9311 26.3793C17.0691 24.8276 16.2932 13.9656 16.2932 13.9656C16.2932 13.9656 15.9208 15.0673 14.1363 20.219C12.8794 23.8656 10.5363 27.5897 11.4984 32.338C5.36906 33.1914 2.32768 35.1466 2.32768 36.4655L1.55182 41.8655C0.543195 42.3311 9.15527e-05 42.8587 9.15527e-05 43.4483V71.3793C9.15527e-05 80.8449 51.6415 81.0155 64.4277 75.3362C65.5764 76.5726 67.0288 77.4867 68.6404 77.9876C70.252 78.4885 71.9667 78.5587 73.6139 78.1914L81.1863 76.5C89.1311 74.7 91.5053 59.4621 87.4553 41.4776Z" fill="#616896"/>
<path d="M1.55191 41.8655V45.031C-0.485508 44.0907 -0.559991 42.84 1.55191 41.8655Z" fill="#33907C"/>
<path d="M14.0432 39.3517C-1.16374 37.6448 -3.05218 34.3644 11.4983 32.3379C12.0073 34.785 12.8638 37.1482 14.0432 39.3517Z" fill="#95A5A5"/>
<path d="M50.369 39.7241C38.2733 40.6645 26.1171 40.5403 14.0432 39.3517C12.3697 36.338 11.3724 32.9961 11.1206 29.5581C10.8687 26.1201 11.3682 22.6686 12.5845 19.4431C13.6394 16.3735 15.1512 13.4806 17.069 10.8621C17.069 10.8621 17.069 23.2759 27.9311 24.8276C38.7932 26.3793 39.8949 19.1483 49.2052 20.7C50.1906 20.8552 51.1573 21.1081 52.0914 21.4603C50.2551 27.3626 49.6685 33.5826 50.369 39.7241Z" fill="#F9EAB0"/>
<path d="M22.7794 34.0603C15.9952 31.7902 12.7226 26.5671 12.5845 19.4431C13.6394 16.3735 15.1512 13.4806 17.069 10.8621C17.069 11.9141 11.2501 26.9379 23.7725 31.1121C24.1634 31.2438 24.4861 31.5254 24.6694 31.8949C24.8527 32.2645 24.8817 32.6918 24.7501 33.0828C24.6184 33.4737 24.3367 33.7964 23.9672 33.9797C23.5976 34.163 23.1703 34.192 22.7794 34.0603Z" fill="#F3D55B"/>
<path d="M81.1866 77.2759C73.2417 79.0604 63.5279 65.9328 59.4779 47.9639C55.4279 29.9949 58.5779 13.9656 66.5228 12.1811C74.4676 10.3966 84.1814 23.5087 88.2314 41.4777C92.2814 59.4466 89.1314 75.4759 81.1866 77.2759Z" fill="#616896"/>
<path d="M51.4709 47.5759C41.5274 48.2431 9.69691 48.8561 1.55191 45.0311V35.6897C1.55191 37.1794 6.43984 38.4983 14.0433 39.3518C26.1173 40.5404 38.2735 40.6645 50.3692 39.7242C50.5864 42.3606 50.9542 44.9814 51.4709 47.5759Z" fill="#BDC3C7"/>
<path d="M81.1864 77.2757L73.614 78.9671C70.6657 79.6344 67.4847 78.2533 64.4278 75.3361C53.0226 64.443 46.6962 36.3102 52.0916 21.4602C53.5812 17.3171 55.9243 14.5706 58.9502 13.8878L66.5226 12.1809C58.5778 13.9654 55.4278 29.9792 59.4778 47.9637C63.5278 65.9482 73.2416 79.0602 81.1864 77.2757Z" fill="#172C7A"/>
<path d="M22.5001 54.4034C22.472 54.7971 22.2968 55.1657 22.0093 55.436C21.7217 55.7063 21.343 55.8584 20.9484 55.8621H20.8553C11.4208 55.2724 4.40699 54.1707 9.15527e-05 52.5879V49.2517C2.77768 50.4465 8.65871 51.9827 21.0415 52.7586C21.8949 52.8176 22.5435 53.55 22.5001 54.4034Z" fill="#172C7A"/>
<path d="M27.1555 55.862C28.0125 55.862 28.7072 55.1673 28.7072 54.3103C28.7072 53.4533 28.0125 52.7585 27.1555 52.7585C26.2985 52.7585 25.6038 53.4533 25.6038 54.3103C25.6038 55.1673 26.2985 55.862 27.1555 55.862Z" fill="#172C7A"/>
<path d="M65.3756 34.3909C64.9912 34.3905 64.6206 34.2474 64.3356 33.9894C64.0506 33.7314 63.8716 33.3768 63.8332 32.9943C63.1504 26.1667 64.1435 21.6884 66.7814 19.7007C67.5489 19.1481 68.441 18.7937 69.3785 18.6689C70.316 18.5441 71.2697 18.6528 72.155 18.9853C72.5321 19.1401 72.8332 19.437 72.9932 19.8119C73.1532 20.1868 73.1592 20.6096 73.01 20.9889C72.8608 21.3682 72.5684 21.6736 72.1958 21.8391C71.8233 22.0045 71.4007 22.0167 71.0192 21.8731C70.6224 21.7351 70.1986 21.6927 69.7823 21.7493C69.366 21.806 68.9689 21.96 68.6233 22.199C67.6675 22.936 66.1763 25.2791 66.9164 32.684C66.9381 32.8995 66.9144 33.1171 66.8469 33.3229C66.7793 33.5287 66.6694 33.7181 66.5243 33.8789C66.3792 34.0397 66.202 34.1683 66.0041 34.2565C65.8063 34.3447 65.5922 34.3904 65.3756 34.3909ZM76.8102 68.1657C76.4273 68.0149 76.1199 67.7181 75.9558 67.3406C75.7917 66.9632 75.7842 66.536 75.935 66.1531C76.0859 65.7702 76.3827 65.4628 76.7601 65.2987C77.1375 65.1346 77.5647 65.1271 77.9476 65.2779C78.7514 65.5572 79.6421 65.4362 80.3419 64.9505C81.2978 64.2119 82.7906 61.8703 82.0488 54.4655C82.0077 54.056 82.1309 53.647 82.3913 53.3283C82.6518 53.0097 83.0281 52.8075 83.4376 52.7664C83.8471 52.7252 84.2562 52.8484 84.5748 53.1089C84.8935 53.3693 85.0956 53.7457 85.1368 54.1552C85.8211 60.9828 84.8264 65.461 82.1885 67.4488C81.4206 68.0024 80.5277 68.3576 79.5894 68.4827C78.651 68.6077 77.6963 68.4988 76.8102 68.1657Z" fill="#172C7A"/>
</g>
<defs>
<clipPath id="clip0_1_41">
<rect width="90" height="90" fill="white"/>
</clipPath>
</defs>
</svg>
