<svg width="217" height="217" viewBox="0 0 217 217" fill="none" xmlns="http://www.w3.org/2000/svg">
<g filter="url(#filter0_dd_1_178)">
<path d="M162.823 129.271C157.253 126.251 150.923 127.356 146.702 130.94C144.123 133.128 140.529 133.79 137.27 132.779L127.047 129.607C108.486 123.848 88.5458 123.848 69.9853 129.607L59.7633 132.779C56.5028 133.79 52.9085 133.128 50.3318 130.94C46.1087 127.356 39.7808 126.251 34.2097 129.271L17.9591 138.081C17.4107 138.379 16.9539 138.813 16.6359 139.34C16.3179 139.867 16.1502 140.467 16.1501 141.078V205.07C16.15 205.52 16.2411 205.966 16.4182 206.382C16.5953 206.799 16.8548 207.177 17.182 207.495C17.5092 207.814 17.8977 208.066 18.3252 208.239C18.7528 208.411 19.211 208.5 19.6738 208.5H177.36C178.295 208.5 179.191 208.138 179.851 207.495C180.512 206.852 180.883 205.98 180.883 205.07V141.078C180.884 140.467 180.716 139.867 180.398 139.34C180.08 138.813 179.623 138.378 179.075 138.081L162.823 129.271Z" fill="#FE9D7F"/>
<path d="M152.057 128.079C148.132 145.444 142.909 172.897 140.422 186.201C139.821 189.422 138.078 192.336 135.497 194.435C132.912 196.53 129.654 197.678 126.29 197.68C119.153 197.68 113.184 192.695 112.099 185.829L105.904 146.792C105.718 145.615 105.236 144.5 104.503 143.545C103.77 142.591 102.807 141.827 101.698 141.321C100.704 140.862 99.6167 140.626 98.5163 140.629C94.8044 140.629 91.6992 143.221 91.1314 146.789L84.9367 185.832C84.4125 189.131 82.6934 192.138 80.0899 194.311C77.4861 196.483 74.1713 197.677 70.7427 197.68C70.5842 197.68 70.4245 197.677 70.266 197.669C63.554 197.457 57.7931 192.547 56.5676 185.997C54.9765 177.473 52.5435 164.654 50.0041 151.989C48.0715 142.34 46.3785 134.306 44.9724 128.079C46.9482 128.646 48.7752 129.621 50.3287 130.937C52.9074 133.128 56.5046 133.789 59.765 132.779L69.9839 129.603C88.5454 123.845 108.487 123.845 127.048 129.603L137.27 132.779C140.528 133.789 144.122 133.128 146.701 130.937C148.256 129.623 150.082 128.648 152.057 128.079ZM180.882 141.078V205.07C180.882 206.96 179.307 208.499 177.36 208.499H135.157C165.991 185.29 169.452 150.433 168.944 132.587L179.075 138.081C179.623 138.378 180.08 138.813 180.398 139.34C180.716 139.867 180.883 140.467 180.882 141.078Z" fill="#FE825E"/>
<path d="M159.269 88.5546L151.454 114.281C151.446 114.311 151.436 114.336 151.428 114.36C147.806 125.94 139.86 167.587 136.508 185.508C136.077 187.839 134.816 189.948 132.947 191.464C131.079 192.981 128.723 193.811 126.29 193.809C121.17 193.809 116.808 190.17 116.029 185.241L109.836 146.201C109.548 144.397 108.811 142.689 107.687 141.228C106.564 139.766 105.089 138.595 103.393 137.818C101.868 137.117 100.203 136.755 98.5165 136.757C92.8687 136.757 88.0625 140.767 87.2017 146.201L81.0071 185.241C80.6299 187.627 79.3864 189.803 77.5022 191.374C75.5299 193.02 72.995 193.887 70.3982 193.803C65.4652 193.644 61.3676 190.029 60.482 185.302C58.949 177.105 56.4831 164.091 53.9109 151.249C50.8193 135.827 47.5745 120.652 45.6042 114.36C45.5972 114.333 45.5889 114.307 45.5793 114.281L37.7634 88.5542C36.8589 85.5683 36.4279 82.5805 36.4279 79.6539C36.4279 63.0252 50.2772 48.5292 68.484 48.5292C71.5035 48.5281 74.5081 48.9406 77.4095 49.7546C91.1661 53.6334 105.863 53.6334 119.623 49.7546C122.525 48.9406 125.529 48.5282 128.549 48.5296C135.269 48.5296 141.393 50.5053 146.445 53.8334C157.497 61.1041 163.434 74.845 159.269 88.5546Z" fill="#E5FCF9"/>
<path d="M53.9098 151.249C66.7181 151.088 77.7595 149.065 87.2857 145.677L81.0076 185.241C80.6304 187.627 79.3869 189.803 77.5027 191.374C75.5495 193.006 73.0422 193.872 70.4689 193.804C65.4986 193.68 61.3649 190.021 60.4744 185.259C58.9431 177.059 56.4788 164.07 53.9094 151.249L53.9098 151.249ZM159.27 88.5546L151.454 114.281C151.446 114.311 151.437 114.336 151.429 114.36C147.806 125.94 139.861 167.587 136.509 185.508C136.078 187.839 134.817 189.948 132.948 191.464C131.08 192.981 128.723 193.811 126.291 193.809C121.171 193.809 116.808 190.17 116.03 185.241L109.836 146.201C109.549 144.397 108.811 142.689 107.688 141.228C106.565 139.766 105.09 138.595 103.393 137.818L108.01 134.695C138.033 112.424 144.918 73.3692 146.447 53.8323C157.497 61.1045 163.435 74.845 159.27 88.5546Z" fill="#CDE8E3"/>
<path d="M98.514 68.0427C89.6921 68.0427 80.8729 66.8326 72.2953 64.4138C70.6761 63.958 69.7419 62.3084 70.2122 60.7322C70.3236 60.357 70.5099 60.0067 70.7604 59.7016C71.0109 59.3965 71.3207 59.1424 71.6722 58.954C72.0236 58.7655 72.4098 58.6463 72.8086 58.6032C73.2074 58.5602 73.6111 58.594 73.9964 58.7029C90.0352 63.2256 106.993 63.2256 123.036 58.7029C123.422 58.5922 123.827 58.5568 124.227 58.5987C124.627 58.6406 125.015 58.7591 125.368 58.9473C125.721 59.1355 126.032 59.3897 126.284 59.6954C126.535 60.001 126.723 60.352 126.835 60.7283C126.947 61.1045 126.981 61.4986 126.936 61.8879C126.891 62.2771 126.767 62.6539 126.572 62.9965C126.377 63.3392 126.115 63.641 125.8 63.8845C125.484 64.1281 125.123 64.3086 124.736 64.4158C116.214 66.8199 107.386 68.0409 98.514 68.0427Z" fill="#CDE8E3"/>
<path d="M205.824 138.875C205.32 138.876 204.823 138.755 204.379 138.524C203.935 138.292 203.556 137.957 203.277 137.549C194.516 124.736 181.505 117.323 163.5 114.887C147.292 112.694 129.522 114.668 112.339 116.579C101.476 117.786 91.2159 118.925 81.9706 118.925C63.3047 118.925 45.7154 116.804 32.4428 112.95C17.8319 108.71 10.1087 102.84 10.1087 95.9764C10.1087 88.7729 18.5438 82.7046 34.503 78.4293C34.8897 78.3253 35.2936 78.2965 35.6918 78.3446C36.0899 78.3927 36.4743 78.5167 36.8232 78.7096C37.172 78.9024 37.4783 79.1603 37.7246 79.4686C37.971 79.7768 38.1524 80.1293 38.2587 80.5058C38.3653 80.8823 38.3946 81.2755 38.3451 81.6629C38.2955 82.0504 38.168 82.4246 37.9699 82.7641C37.7718 83.1037 37.5069 83.4019 37.1903 83.6417C36.8738 83.8816 36.5118 84.0584 36.125 84.162C24.0318 87.4026 16.2171 92.0397 16.2171 95.9764C16.2171 103.076 41.2322 112.979 81.9706 112.979C90.868 112.979 100.962 111.858 111.646 110.671C129.208 108.719 147.367 106.702 164.342 108.997C184.179 111.681 198.578 119.943 208.364 134.254C208.813 134.911 208.975 135.714 208.816 136.487C208.656 137.26 208.188 137.94 207.515 138.377C207.014 138.702 206.425 138.875 205.823 138.875H205.824ZM185.462 82.6726C179.868 89.11 171.255 92.6518 161.448 92.6518C160.335 92.6518 159.208 92.603 158.067 92.5127L159.269 88.5561C159.459 87.9313 159.629 87.3008 159.778 86.6655C168.583 87.1007 176.007 84.3417 180.801 78.832C184.519 74.5547 185.923 69.7379 184.97 64.5161C183.362 55.6646 174.916 46.4147 161.802 39.1487C144.73 29.6867 129.646 29.0047 115.058 28.3472C98.4251 27.598 82.7138 26.8867 66.09 13.7856C65.778 13.5401 65.5187 13.2371 65.3271 12.894C65.1354 12.5508 65.0151 12.1743 64.973 11.7859C64.9309 11.3974 64.9679 11.0047 65.0819 10.6302C65.1958 10.2557 65.3844 9.90674 65.637 9.60325C66.6964 8.32592 68.6234 8.12944 69.9336 9.16224C84.9992 21.0399 99.0615 21.6746 115.339 22.4082C129.936 23.066 146.478 23.8106 164.824 33.9792C179.738 42.2448 189.032 52.7228 190.986 63.479C192.252 70.4274 190.342 77.0633 185.463 82.6726H185.462Z" fill="#09D6C2"/>
<path d="M50.4724 80.7013C40.9559 82.7185 33.5244 89.9539 31.4522 99.2175C31.1544 100.542 29.2138 100.542 28.9172 99.2175C26.845 89.9539 19.4119 82.7185 9.89696 80.7013C8.53459 80.413 8.53459 78.524 9.89696 78.2353C19.4115 76.2181 26.845 68.9826 28.9172 59.719C29.2138 58.3948 31.1544 58.3948 31.4522 59.719C33.5244 68.9826 40.9559 76.2181 50.4724 78.2353C51.8328 78.524 51.8328 80.413 50.4724 80.7013ZM188.992 43.177C185.453 43.9275 182.211 45.6518 179.649 48.1448C177.088 50.6378 175.317 53.7945 174.546 57.2394C174.32 58.2468 172.847 58.2468 172.621 57.2394C171.85 53.7944 170.079 50.6376 167.518 48.1445C164.957 45.6515 161.714 43.9272 158.175 43.177C157.142 42.959 157.142 41.5231 158.175 41.3036C161.714 40.5536 164.957 38.8294 167.518 36.3363C170.079 33.8432 171.851 30.6862 172.621 27.2412C172.847 26.2353 174.32 26.2353 174.546 27.2412C175.317 30.6861 177.088 33.843 179.649 36.336C182.21 38.8291 185.453 40.5533 188.992 41.3036C190.027 41.5231 190.027 42.959 188.992 43.177ZM45.027 30.5111H44.9957C44.5946 30.5074 44.1982 30.4269 43.8291 30.2741C43.4601 30.1212 43.1256 29.8991 42.8447 29.6203C42.5639 29.3416 42.3423 29.0117 42.1925 28.6495C42.0428 28.2873 41.9678 27.8999 41.972 27.5095L41.986 26.1318C41.9935 25.3482 42.3185 24.5992 42.8904 24.0476C43.4623 23.4961 44.2348 23.1866 45.0398 23.1865H45.0691C45.8792 23.1945 46.6528 23.5153 47.2199 24.0785C47.7869 24.6417 48.1009 25.4011 48.0928 26.1896L48.0788 27.5677C48.0714 28.3509 47.7466 29.0995 47.175 29.6507C46.6035 30.2019 45.8315 30.5111 45.027 30.5111ZM44.9066 43.7434H44.8765C44.0664 43.7354 43.2927 43.4146 42.7257 42.8514C42.1586 42.2882 41.8446 41.5288 41.8528 40.7403L41.8648 39.3626C41.8731 38.5794 42.1984 37.8309 42.7702 37.2798C43.3419 36.7288 44.114 36.4195 44.9186 36.4192H44.9487C45.3498 36.4229 45.7463 36.5034 46.1154 36.6562C46.4845 36.809 46.8191 37.031 47.1001 37.3097C47.381 37.5884 47.6028 37.9183 47.7527 38.2804C47.9027 38.6426 47.9779 39.0299 47.974 39.4204L47.9596 40.7985C47.9522 41.582 47.6272 42.331 47.0554 42.8825C46.4836 43.434 45.7115 43.7434 44.9066 43.7434ZM52.4773 36.5032H52.4476L51.0322 36.4891C50.6311 36.4856 50.2346 36.4051 49.8654 36.2523C49.4963 36.0996 49.1616 35.8775 48.8806 35.5988C48.5997 35.3201 48.3778 34.9902 48.2279 34.628C48.0779 34.2659 48.0027 33.8785 48.0065 33.488C48.0144 32.7045 48.3395 31.9556 48.9113 31.4041C49.4831 30.8527 50.2554 30.5431 51.0603 30.5427H51.0916L52.507 30.5568C52.9081 30.5606 53.3046 30.6412 53.6737 30.7942C54.0428 30.9472 54.3773 31.1694 54.6581 31.4483C54.939 31.7271 55.1606 32.0571 55.3104 32.4193C55.4602 32.7816 55.5352 33.169 55.5311 33.5595C55.5232 34.3428 55.1979 35.0914 54.6261 35.6425C54.0542 36.1937 53.282 36.5029 52.4773 36.5028V36.5032ZM38.8852 36.3868H38.8539L37.4386 36.3731C37.0375 36.3693 36.6411 36.2886 36.272 36.1356C35.903 35.9826 35.5685 35.7604 35.2877 35.4815C35.0069 35.2027 34.7853 34.8727 34.6356 34.5105C34.4858 34.1483 34.4108 33.7609 34.4149 33.3704C34.4231 32.5873 34.7484 31.8389 35.3201 31.2878C35.8918 30.7368 36.6637 30.4275 37.4683 30.4271H37.4996L38.9133 30.4408C39.3145 30.4443 39.711 30.5248 40.0802 30.6776C40.4494 30.8304 40.7841 31.0525 41.0651 31.3313C41.3461 31.61 41.5679 31.9399 41.7178 32.3021C41.8678 32.6644 41.943 33.0518 41.939 33.4423C41.9311 34.2257 41.6059 34.9745 41.0341 35.5259C40.4623 36.0773 39.6901 36.3864 38.8852 36.3868ZM191.359 99.0605H191.33C190.519 99.0526 189.746 98.7317 189.179 98.1685C188.612 97.6053 188.298 96.846 188.306 96.0574L188.32 94.6797C188.327 93.8966 188.652 93.1481 189.224 92.597C189.795 92.0458 190.567 91.7365 191.372 91.7364H191.403C191.804 91.7399 192.2 91.8204 192.57 91.9732C192.939 92.1261 193.273 92.3482 193.554 92.627C193.835 92.9057 194.057 93.2356 194.206 93.5979C194.356 93.9601 194.431 94.3475 194.427 94.7379L194.413 96.1156C194.405 96.8991 194.08 97.648 193.508 98.1994C192.936 98.7509 192.164 99.0603 191.359 99.0605ZM191.24 112.291H191.21C190.809 112.288 190.413 112.207 190.043 112.054C189.674 111.902 189.34 111.679 189.059 111.401C188.778 111.122 188.556 110.792 188.406 110.43C188.256 110.068 188.181 109.68 188.185 109.29L188.199 107.912C188.207 107.129 188.532 106.38 189.104 105.828C189.676 105.277 190.448 104.967 191.253 104.967H191.284C192.094 104.975 192.868 105.296 193.435 105.859C194.002 106.422 194.316 107.182 194.308 107.97L194.294 109.348C194.286 110.131 193.96 110.88 193.388 111.431C192.817 111.982 192.045 112.291 191.24 112.291H191.24ZM198.811 105.053C198.8 105.053 198.791 105.053 198.78 105.051L197.364 105.037C196.963 105.034 196.567 104.953 196.198 104.8C195.829 104.648 195.494 104.425 195.214 104.147C194.933 103.868 194.711 103.538 194.561 103.176C194.412 102.814 194.337 102.426 194.341 102.036C194.349 101.252 194.674 100.504 195.246 99.9523C195.817 99.4009 196.59 99.0914 197.395 99.091H197.424L198.84 99.1047C199.644 99.1165 200.412 99.4369 200.975 99.9962C201.539 100.556 201.853 101.309 201.849 102.092C201.845 102.876 201.524 103.626 200.955 104.18C200.387 104.735 199.616 105.048 198.811 105.053ZM185.217 104.935H185.188L183.772 104.923C182.962 104.915 182.189 104.594 181.622 104.031C181.055 103.468 180.741 102.708 180.749 101.92C180.764 100.278 182.159 98.9597 183.832 98.9765L185.248 98.9886C186.058 98.9966 186.831 99.3174 187.398 99.8806C187.965 100.444 188.279 101.203 188.271 101.992C188.264 102.775 187.938 103.524 187.367 104.075C186.795 104.626 186.022 104.935 185.217 104.935Z" fill="#FFDB29"/>
</g>
<defs>
<filter id="filter0_dd_1_178" x="0.875183" y="0.5" width="216" height="216" filterUnits="userSpaceOnUse" color-interpolation-filters="sRGB">
<feFlood flood-opacity="0" result="BackgroundImageFix"/>
<feColorMatrix in="SourceAlpha" type="matrix" values="0 0 0 0 0 0 0 0 0 0 0 0 0 0 0 0 0 0 127 0" result="hardAlpha"/>
<feOffset dx="-4" dy="-4"/>
<feGaussianBlur stdDeviation="2"/>
<feComposite in2="hardAlpha" operator="out"/>
<feColorMatrix type="matrix" values="0 0 0 0 0 0 0 0 0 0 0 0 0 0 0 0 0 0 0.05 0"/>
<feBlend mode="normal" in2="BackgroundImageFix" result="effect1_dropShadow_1_178"/>
<feColorMatrix in="SourceAlpha" type="matrix" values="0 0 0 0 0 0 0 0 0 0 0 0 0 0 0 0 0 0 127 0" result="hardAlpha"/>
<feOffset dx="4" dy="4"/>
<feGaussianBlur stdDeviation="2"/>
<feComposite in2="hardAlpha" operator="out"/>
<feColorMatrix type="matrix" values="0 0 0 0 0 0 0 0 0 0 0 0 0 0 0 0 0 0 0.05 0"/>
<feBlend mode="normal" in2="effect1_dropShadow_1_178" result="effect2_dropShadow_1_178"/>
<feBlend mode="normal" in="SourceGraphic" in2="effect2_dropShadow_1_178" result="shape"/>
</filter>
</defs>
</svg>
