<svg width="110" height="110" viewBox="0 0 110 110" fill="none" xmlns="http://www.w3.org/2000/svg">
<path d="M44.3548 65.6451H65.6451V84.2742H44.3548V65.6451Z" fill="url(#paint0_linear_1_94)"/>
<path d="M44.3548 76.2894C46.7828 78.8744 50.647 80.7249 55 80.7249C59.4523 80.7249 63.2296 78.9756 65.6451 76.2894V110H44.3548V76.2894Z" fill="#172C7A"/>
<path d="M44.3548 76.2894C46.7828 78.8744 50.647 80.7249 55 80.7249C59.4523 80.7249 63.2296 78.9756 65.6452 76.2894C66.6281 76.5068 67.8443 76.8004 69.2157 77.1543C67.1523 81.298 61.5752 84.2733 55 84.2733C48.4248 84.2733 42.8477 81.298 40.7843 77.1543C42.1557 76.8004 43.3719 76.5077 44.3548 76.2894Z" fill="#616896"/>
<path d="M29.2742 86.0475L13.3065 84.2742C13.3065 84.2742 4.43548 93.1451 0 110H29.2742V86.0475Z" fill="url(#paint1_linear_1_94)"/>
<path d="M40.8065 75.4032C34.4824 76.8039 18.5501 80.4286 13.3065 84.2742L22.1775 110H51.4516L40.8065 75.4032Z" fill="url(#paint2_linear_1_94)"/>
<path d="M80.7258 86.0475L96.6935 84.2742C96.6935 84.2742 105.564 93.1451 110 110H80.7258V86.0475Z" fill="url(#paint3_linear_1_94)"/>
<path d="M69.1935 75.4032C75.5176 76.8039 91.4499 80.4286 96.6935 84.2742L87.8225 110H58.5483L69.1935 75.4032Z" fill="url(#paint4_linear_1_94)"/>
<path d="M86.9355 45.115C86.9355 49.0342 84.1553 53.2258 80.7258 53.2258C77.2963 53.2258 74.5161 49.0342 74.5161 45.115C74.5161 41.1959 77.2963 39.0322 80.7258 39.0322C84.1553 39.0322 86.9355 41.1959 86.9355 45.115Z" fill="url(#paint5_linear_1_94)"/>
<path d="M34.5968 45.115C34.5968 49.0342 31.8166 53.2258 28.3871 53.2258C24.9576 53.2258 22.1774 49.0342 22.1774 45.115C22.1774 41.1959 24.9576 39.0322 28.3871 39.0322C31.8166 39.0322 34.5968 41.1959 34.5968 45.115Z" fill="url(#paint6_linear_1_94)"/>
<path d="M77.1775 23.0645H32.8226C30.8373 23.5461 29.2742 25.457 29.2742 27.4999V45.2481C29.2742 60.3225 40.8065 71.8548 55 71.8548C69.1936 71.8548 80.7258 60.3225 80.7258 45.2481V27.4999C80.7258 25.4507 79.1708 23.5408 77.1775 23.0645Z" fill="url(#paint7_linear_1_94)"/>
<path d="M55 0C68.9142 0 84.2742 10.8119 84.2742 27.5C84.2281 38.0671 80.7259 45.2419 80.7259 45.2419C80.7259 39.9194 78.0646 27.5 78.0646 27.5C62.9839 31.0484 32.8226 23.9516 32.8226 23.9516C32.8226 23.9516 29.2742 29.2742 29.2742 45.2419C29.2742 45.2419 23.9517 39.0323 23.9517 28.3871C23.9517 15.1126 30.1613 12.4194 30.1613 12.4194C30.1613 12.4194 31.9355 0 55 0Z" fill="url(#paint8_linear_1_94)"/>
<path d="M54.9841 65.6451C52.9793 65.6451 50.9797 64.9993 49.163 63.7095C48.9711 63.5731 48.8412 63.3661 48.802 63.1341C48.7627 62.902 48.8173 62.6638 48.9536 62.472C49.0899 62.2801 49.2969 62.1502 49.529 62.111C49.7611 62.0717 49.9992 62.1263 50.1911 62.2626C53.2276 64.4209 56.7343 64.42 59.8134 62.2599C59.9088 62.1926 60.0165 62.1448 60.1303 62.1192C60.2442 62.0936 60.362 62.0907 60.4769 62.1106C60.5919 62.1306 60.7018 62.1731 60.8003 62.2356C60.8989 62.2981 60.9841 62.3795 61.0512 62.475C61.1182 62.5705 61.1657 62.6783 61.1911 62.7922C61.2164 62.9062 61.2189 63.024 61.1987 63.1389C61.1784 63.2538 61.1356 63.3636 61.0728 63.462C61.01 63.5603 60.9284 63.6453 60.8327 63.7121C58.9955 65.0002 56.9872 65.6451 54.9841 65.6451Z" fill="url(#paint9_linear_1_94)"/>
<path d="M43.4677 48.7904C44.9375 48.7904 46.129 47.5989 46.129 46.1291C46.129 44.6593 44.9375 43.4678 43.4677 43.4678C41.998 43.4678 40.8065 44.6593 40.8065 46.1291C40.8065 47.5989 41.998 48.7904 43.4677 48.7904Z" fill="url(#paint10_linear_1_94)"/>
<path d="M66.5322 48.7904C68.002 48.7904 69.1935 47.5989 69.1935 46.1291C69.1935 44.6593 68.002 43.4678 66.5322 43.4678C65.0624 43.4678 63.8709 44.6593 63.8709 46.1291C63.8709 47.5989 65.0624 48.7904 66.5322 48.7904Z" fill="url(#paint11_linear_1_94)"/>
<path d="M48.7894 39.027C48.6239 39.0269 48.4616 38.9805 48.321 38.893C43.3897 35.8228 40.1775 37.888 38.806 38.7706L38.6198 38.8904C38.4211 39.0057 38.1855 39.0395 37.9624 38.9847C37.7394 38.93 37.5462 38.791 37.4235 38.5968C37.3008 38.4027 37.258 38.1686 37.3043 37.9436C37.3505 37.7186 37.4821 37.5203 37.6714 37.3903L37.8471 37.2785C39.3587 36.3054 43.3773 33.7239 49.2596 37.3876C49.4229 37.4897 49.5486 37.6422 49.6176 37.822C49.6866 38.0019 49.6953 38.1993 49.6422 38.3845C49.589 38.5696 49.4771 38.7325 49.3233 38.8484C49.1694 38.9643 48.9821 39.027 48.7894 39.027Z" fill="url(#paint12_linear_1_94)"/>
<path d="M61.2105 39.0269C61.0179 39.0269 60.8305 38.9642 60.6767 38.8483C60.5228 38.7324 60.4109 38.5695 60.3578 38.3844C60.3047 38.1992 60.3133 38.0018 60.3823 37.822C60.4513 37.6421 60.577 37.4896 60.7404 37.3876C66.6236 33.7221 70.6412 36.3062 72.1537 37.2784L72.3285 37.3902C72.5179 37.5202 72.6495 37.7185 72.6957 37.9435C72.7419 38.1685 72.6992 38.4026 72.5765 38.5968C72.4538 38.7909 72.2606 38.9299 72.0375 38.9847C71.8144 39.0394 71.5789 39.0056 71.3802 38.8903L71.1939 38.7714C69.8233 37.8897 66.6094 35.8236 61.678 38.8938C61.5325 38.9834 61.3711 39.0269 61.2105 39.0269Z" fill="url(#paint13_linear_1_94)"/>
<path d="M54.9965 57.6612H54.992C54.1271 57.6595 53.2924 57.2558 52.5783 56.4938C52.427 56.3205 52.3488 56.0952 52.3604 55.8654C52.3719 55.6356 52.4722 55.4192 52.6401 55.2619C52.808 55.1046 53.0304 55.0186 53.2605 55.022C53.4905 55.0254 53.7103 55.118 53.8734 55.2803C54.1324 55.5562 54.537 55.8862 54.9947 55.887H54.9965C55.4578 55.887 55.8667 55.5562 56.1293 55.2776C56.2093 55.1929 56.3052 55.1247 56.4115 55.077C56.5178 55.0293 56.6325 55.003 56.749 54.9996C56.8654 54.9963 56.9814 55.0159 57.0903 55.0573C57.1992 55.0988 57.2989 55.1613 57.3837 55.2412C57.4684 55.3212 57.5366 55.4171 57.5843 55.5234C57.632 55.6297 57.6583 55.7444 57.6616 55.8609C57.665 55.9774 57.6454 56.0934 57.604 56.2023C57.5625 56.3112 57.5 56.4108 57.42 56.4956C56.6997 57.2585 55.8623 57.6612 54.9965 57.6612Z" fill="url(#paint14_linear_1_94)"/>
<path d="M44.3549 72.7419L51.4516 110L37.2581 96.6936L39.0323 89.5968L32.8226 88.7088L39.9194 75.4023C40.6397 74.0992 42.6916 72.7428 44.3549 72.7419Z" fill="url(#paint15_linear_1_94)"/>
<path d="M65.6451 72.7419L58.5483 110L72.7419 96.6936L70.9677 89.5968L77.1774 88.7088L70.0806 75.4023C69.3603 74.0992 67.3084 72.7428 65.6451 72.7419Z" fill="url(#paint16_linear_1_94)"/>
<path d="M39.9194 103.79H35.4839C35.2486 103.79 35.023 103.697 34.8566 103.531C34.6903 103.364 34.5968 103.139 34.5968 102.903C34.5968 102.668 34.6903 102.442 34.8566 102.276C35.023 102.11 35.2486 102.016 35.4839 102.016H39.9194C40.8979 102.016 41.6936 101.22 41.6936 100.242V91.371C41.6936 86.9683 38.1115 83.3871 33.7097 83.3871C29.308 83.3871 25.7259 86.9683 25.7259 91.371V100.242C25.7259 101.22 26.5216 102.016 27.5 102.016H31.0484C31.2837 102.016 31.5093 102.11 31.6757 102.276C31.8421 102.442 31.9355 102.668 31.9355 102.903C31.9355 103.139 31.8421 103.364 31.6757 103.531C31.5093 103.697 31.2837 103.79 31.0484 103.79H27.5C25.5431 103.79 23.9517 102.199 23.9517 100.242V91.371C23.9517 85.9907 28.3295 81.6129 33.7097 81.6129C39.09 81.6129 43.4678 85.9907 43.4678 91.371V100.242C43.4678 102.199 41.8763 103.79 39.9194 103.79Z" fill="url(#paint17_linear_1_94)"/>
<path d="M33.7097 81.6129C28.3295 81.6129 23.9517 85.9907 23.9517 91.371H25.7259C25.7259 86.9683 29.308 83.3871 33.7097 83.3871C38.1115 83.3871 41.6936 86.9683 41.6936 91.371H43.4678C43.4678 85.9907 39.09 81.6129 33.7097 81.6129Z" fill="url(#paint18_linear_1_94)"/>
<path d="M31.0484 102.016H29.2742V103.79H31.0484C31.2837 103.79 31.5093 103.697 31.6757 103.53C31.8421 103.364 31.9355 103.138 31.9355 102.903C31.9355 102.668 31.8421 102.442 31.6757 102.276C31.5093 102.11 31.2837 102.016 31.0484 102.016Z" fill="url(#paint19_linear_1_94)"/>
<path d="M35.4839 102.016H37.2581V103.79H35.4839C35.2487 103.79 35.023 103.697 34.8567 103.53C34.6903 103.364 34.5968 103.138 34.5968 102.903C34.5968 102.668 34.6903 102.442 34.8567 102.276C35.023 102.11 35.2487 102.016 35.4839 102.016Z" fill="url(#paint20_linear_1_94)"/>
<path d="M69.1785 67.54C68.27 68.1517 67.323 68.7041 66.3433 69.1936H67.4193C74.2677 69.1936 79.8387 74.7646 79.8387 81.6129V92.2581C79.8387 92.4934 79.9322 92.719 80.0985 92.8854C80.2649 93.0517 80.4905 93.1452 80.7258 93.1452C80.9611 93.1452 81.1867 93.0517 81.3531 92.8854C81.5194 92.719 81.6129 92.4934 81.6129 92.2581V81.6129C81.6129 74.384 76.1759 68.4112 69.1785 67.54Z" fill="url(#paint21_linear_1_94)"/>
<path d="M40.8783 67.5781C36.308 68.3863 32.8226 72.3782 32.8226 77.1774V82.5C32.8226 82.7353 32.9161 82.9609 33.0824 83.1273C33.2488 83.2936 33.4744 83.3871 33.7097 83.3871C33.945 83.3871 34.1706 83.2936 34.337 83.1273C34.5033 82.9609 34.5968 82.7353 34.5968 82.5V77.1774C34.5968 72.7747 38.1789 69.1935 42.5807 69.1935C42.8063 69.1927 43.0229 69.105 43.1857 68.9487C42.393 68.5328 41.6228 68.0753 40.8783 67.5781Z" fill="url(#paint22_linear_1_94)"/>
<path d="M80.7258 100.242C83.1755 100.242 85.1613 98.2561 85.1613 95.8065C85.1613 93.3568 83.1755 91.371 80.7258 91.371C78.2762 91.371 76.2903 93.3568 76.2903 95.8065C76.2903 98.2561 78.2762 100.242 80.7258 100.242Z" fill="url(#paint23_linear_1_94)"/>
<path d="M80.7257 101.129C77.7903 101.129 75.4032 98.7419 75.4032 95.8065C75.4032 92.8711 77.7903 90.4839 80.7257 90.4839C83.6612 90.4839 86.0483 92.8711 86.0483 95.8065C86.0483 98.7419 83.6612 101.129 80.7257 101.129ZM80.7257 92.2581C78.7688 92.2581 77.1774 93.8495 77.1774 95.8065C77.1774 97.7634 78.7688 99.3549 80.7257 99.3549C82.6827 99.3549 84.2741 97.7634 84.2741 95.8065C84.2741 93.8495 82.6827 92.2581 80.7257 92.2581Z" fill="url(#paint24_linear_1_94)"/>
<defs>
<linearGradient id="paint0_linear_1_94" x1="55" y1="81.4647" x2="55" y2="72.1502" gradientUnits="userSpaceOnUse">
<stop stop-color="#F6CFBE"/>
<stop offset="1" stop-color="#EDAD99"/>
</linearGradient>
<linearGradient id="paint1_linear_1_94" x1="12.1896" y1="133.528" x2="15.2226" y2="104.38" gradientUnits="userSpaceOnUse">
<stop stop-color="#EFF0F0"/>
<stop offset="1" stop-color="#E4E5E6"/>
</linearGradient>
<linearGradient id="paint2_linear_1_94" x1="28.9158" y1="126.921" x2="26.1277" y2="150.901" gradientUnits="userSpaceOnUse">
<stop stop-color="#EFF0F0"/>
<stop offset="1" stop-color="#E4E5E6"/>
</linearGradient>
<linearGradient id="paint3_linear_1_94" x1="97.8113" y1="133.528" x2="94.7783" y2="104.38" gradientUnits="userSpaceOnUse">
<stop stop-color="#EFF0F0"/>
<stop offset="1" stop-color="#E4E5E6"/>
</linearGradient>
<linearGradient id="paint4_linear_1_94" x1="81.0841" y1="126.921" x2="83.8723" y2="150.901" gradientUnits="userSpaceOnUse">
<stop stop-color="#EFF0F0"/>
<stop offset="1" stop-color="#E4E5E6"/>
</linearGradient>
<linearGradient id="paint5_linear_1_94" x1="80.7258" y1="19.2207" x2="80.7258" y2="62.3992" gradientUnits="userSpaceOnUse">
<stop stop-color="#F6CFBE"/>
<stop offset="1" stop-color="#EDAD99"/>
</linearGradient>
<linearGradient id="paint6_linear_1_94" x1="28.3871" y1="19.2207" x2="28.3871" y2="62.3992" gradientUnits="userSpaceOnUse">
<stop stop-color="#F6CFBE"/>
<stop offset="1" stop-color="#EDAD99"/>
</linearGradient>
<linearGradient id="paint7_linear_1_94" x1="59.3087" y1="15.2314" x2="61.7482" y2="2.59026" gradientUnits="userSpaceOnUse">
<stop stop-color="#F6CFBE"/>
<stop offset="1" stop-color="#EDAD99"/>
</linearGradient>
<linearGradient id="paint8_linear_1_94" x1="54.1129" y1="-17.0766" x2="54.1129" y2="56.7289" gradientUnits="userSpaceOnUse">
<stop stop-color="#957E7F"/>
<stop offset="1" stop-color="#373638"/>
</linearGradient>
<linearGradient id="paint9_linear_1_94" x1="56.0743" y1="46.8732" x2="55.6308" y2="53.5265" gradientUnits="userSpaceOnUse">
<stop stop-color="#F6CFBE"/>
<stop offset="1" stop-color="#EDAD99"/>
</linearGradient>
<linearGradient id="paint10_linear_1_94" x1="43.2513" y1="74.9606" x2="43.3622" y2="60.2135" gradientUnits="userSpaceOnUse">
<stop stop-color="#58595B"/>
<stop offset="1" stop-color="#414042"/>
</linearGradient>
<linearGradient id="paint11_linear_1_94" x1="66.3149" y1="75.091" x2="66.4258" y2="60.343" gradientUnits="userSpaceOnUse">
<stop stop-color="#58595B"/>
<stop offset="1" stop-color="#414042"/>
</linearGradient>
<linearGradient id="paint12_linear_1_94" x1="43.112" y1="85.4585" x2="43.2602" y2="65.7951" gradientUnits="userSpaceOnUse">
<stop stop-color="#58595B"/>
<stop offset="1" stop-color="#414042"/>
</linearGradient>
<linearGradient id="paint13_linear_1_94" x1="66.1747" y1="85.6323" x2="66.3229" y2="65.968" gradientUnits="userSpaceOnUse">
<stop stop-color="#58595B"/>
<stop offset="1" stop-color="#414042"/>
</linearGradient>
<linearGradient id="paint14_linear_1_94" x1="34.5675" y1="60.3518" x2="41.6093" y2="58.9103" gradientUnits="userSpaceOnUse">
<stop stop-color="#F6CFBE"/>
<stop offset="1" stop-color="#EDAD99"/>
</linearGradient>
<linearGradient id="paint15_linear_1_94" x1="51.3567" y1="138.888" x2="49.6012" y2="130.89" gradientUnits="userSpaceOnUse">
<stop stop-color="#EFF0F0"/>
<stop offset="1" stop-color="#E4E5E6"/>
</linearGradient>
<linearGradient id="paint16_linear_1_94" x1="58.6441" y1="138.888" x2="60.3997" y2="130.89" gradientUnits="userSpaceOnUse">
<stop stop-color="#EFF0F0"/>
<stop offset="1" stop-color="#E4E5E6"/>
</linearGradient>
<linearGradient id="paint17_linear_1_94" x1="35.0164" y1="110.827" x2="34.8159" y2="108.502" gradientUnits="userSpaceOnUse">
<stop stop-color="#D0D3D3"/>
<stop offset="1" stop-color="#AAAEB1"/>
</linearGradient>
<linearGradient id="paint18_linear_1_94" x1="30.7202" y1="67.1461" x2="30.942" y2="68.9203" gradientUnits="userSpaceOnUse">
<stop stop-color="#58595B"/>
<stop offset="1" stop-color="#414042"/>
</linearGradient>
<linearGradient id="paint19_linear_1_94" x1="30.6962" y1="104.384" x2="30.6794" y2="104.187" gradientUnits="userSpaceOnUse">
<stop stop-color="#58595B"/>
<stop offset="1" stop-color="#414042"/>
</linearGradient>
<linearGradient id="paint20_linear_1_94" x1="35.8361" y1="104.384" x2="35.853" y2="104.187" gradientUnits="userSpaceOnUse">
<stop stop-color="#58595B"/>
<stop offset="1" stop-color="#414042"/>
</linearGradient>
<linearGradient id="paint21_linear_1_94" x1="72.3516" y1="61.9425" x2="72.5734" y2="63.7167" gradientUnits="userSpaceOnUse">
<stop stop-color="#58595B"/>
<stop offset="1" stop-color="#414042"/>
</linearGradient>
<linearGradient id="paint22_linear_1_94" x1="36.8323" y1="66.3823" x2="37.0541" y2="68.1565" gradientUnits="userSpaceOnUse">
<stop stop-color="#58595B"/>
<stop offset="1" stop-color="#414042"/>
</linearGradient>
<linearGradient id="paint23_linear_1_94" x1="89.7485" y1="99.008" x2="91.897" y2="99.77" gradientUnits="userSpaceOnUse">
<stop stop-color="#6C6F73"/>
<stop offset="1" stop-color="#56585B"/>
</linearGradient>
<linearGradient id="paint24_linear_1_94" x1="63.3821" y1="93.5" x2="70.3316" y2="94.4244" gradientUnits="userSpaceOnUse">
<stop stop-color="#D0D3D3"/>
<stop offset="1" stop-color="#AAAEB1"/>
</linearGradient>
</defs>
</svg>
