<svg width="156" height="189" viewBox="0 0 156 189" fill="none" xmlns="http://www.w3.org/2000/svg">
<g filter="url(#filter0_dd_1_233)">
<path d="M141.127 55.7245L131.667 32.0763C130.968 30.329 130.892 28.3945 131.45 26.5973C132.008 24.8001 133.167 23.2495 134.733 22.2056L134.945 22.0646C141.192 17.8999 148.532 15.6774 156.04 15.6774C163.548 15.6774 170.889 17.8999 177.136 22.0646L177.347 22.2056C178.913 23.2495 180.073 24.8003 180.631 26.5976C181.189 28.395 181.112 30.3296 180.413 32.0771L170.954 55.7245H141.127Z" fill="#FFB3B3"/>
<path d="M153.054 58.7072C152.365 58.7065 151.698 58.4671 151.165 58.0299C150.632 57.5926 150.268 56.9845 150.133 56.3087L147.15 41.3948C147.071 41.0098 147.068 40.6129 147.143 40.2269C147.217 39.8409 147.368 39.4735 147.585 39.1458C147.802 38.8181 148.082 38.5365 148.408 38.3173C148.734 38.0981 149.101 37.9455 149.486 37.8684C149.872 37.7913 150.269 37.7912 150.654 37.868C151.04 37.9448 151.406 38.0971 151.733 38.3161C152.059 38.5351 152.339 38.8165 152.557 39.1441C152.774 39.4716 152.925 39.8389 152.999 40.2249L155.982 55.1387C156.137 55.9144 155.978 56.72 155.539 57.3783C155.101 58.0365 154.418 58.4935 153.643 58.6487C153.449 58.6874 153.252 58.707 153.054 58.7072Z" fill="#FAA6B2"/>
<path d="M159.026 58.7072C158.829 58.707 158.632 58.6873 158.438 58.6487C157.662 58.4935 156.98 58.0365 156.541 57.3783C156.102 56.72 155.943 55.9144 156.098 55.1387L159.081 40.2249C159.156 39.8389 159.306 39.4716 159.524 39.1441C159.741 38.8165 160.021 38.5351 160.348 38.3161C160.674 38.0971 161.041 37.9448 161.426 37.868C161.812 37.7912 162.209 37.7913 162.594 37.8684C162.98 37.9455 163.346 38.0981 163.672 38.3173C163.999 38.5365 164.279 38.8181 164.496 39.1458C164.713 39.4735 164.863 39.8409 164.938 40.2269C165.012 40.6129 165.01 41.0098 164.931 41.3948L161.948 56.3087C161.813 56.9845 161.448 57.5926 160.916 58.0299C160.383 58.4671 159.715 58.7065 159.026 58.7072Z" fill="#FAA6B2"/>
<path d="M52.7418 175.035C74.1572 175.035 91.5178 157.675 91.5178 136.259C91.5178 114.844 74.1572 97.4833 52.7418 97.4833C31.3264 97.4833 13.9657 114.844 13.9657 136.259C13.9657 157.675 31.3264 175.035 52.7418 175.035Z" fill="#0BAFEA"/>
<path d="M88.4157 151.475C87.5772 153.443 86.5771 155.337 85.4255 157.139H20.058C18.9064 155.337 17.9062 153.443 17.0677 151.475H88.4157Z" fill="#0276B4"/>
<path d="M156.041 181.001C153.667 181.001 151.391 180.058 149.713 178.38C148.035 176.702 147.092 174.426 147.092 172.053V109.414H164.989V172.053C164.989 174.426 164.046 176.702 162.368 178.38C160.69 180.058 158.414 181.001 156.041 181.001Z" fill="#683B0D"/>
<path d="M147.091 109.414H164.987V115.38H147.091V109.414Z" fill="#683B0D"/>
<path d="M164.989 109.414H147.092L145.806 102.985C142.694 87.4243 141.127 71.5938 141.127 55.7245H170.954C170.954 71.5938 169.386 87.4243 166.274 102.985L164.989 109.414Z" fill="#EAEAE8"/>
<path d="M109.414 145.208H133.276V181.001H109.414V145.208Z" fill="#EA9D2D"/>
<path d="M109.414 133.277H133.276V145.208H109.414V133.277Z" fill="#FBB540"/>
<path d="M130.294 133.277H112.397V99.6734C112.397 99.0826 112.538 98.5003 112.807 97.9744C113.076 97.4485 113.466 96.9941 113.946 96.6487C114.425 96.3033 114.979 96.0767 115.563 95.9875C116.147 95.8984 116.744 95.9494 117.305 96.1362L123.155 98.0865C125.234 98.7794 127.042 100.109 128.323 101.886C129.604 103.664 130.294 105.799 130.294 107.99V133.277Z" fill="#D32B39"/>
<path d="M88.4157 151.475C87.5772 153.443 86.5771 155.337 85.4255 157.139H20.058C18.9064 155.337 17.9062 153.443 17.0677 151.475H88.4157Z" fill="#0276B4"/>
<path d="M52.7418 163.104C67.5678 163.104 79.5867 151.085 79.5867 136.259C79.5867 121.433 67.5678 109.414 52.7418 109.414C37.9157 109.414 25.8968 121.433 25.8968 136.259C25.8968 151.085 37.9157 163.104 52.7418 163.104Z" fill="#EAEAE8"/>
<path d="M68.3903 114.448L35.2517 156.624C32.0437 153.87 29.5309 150.398 27.9178 146.49L55.6091 109.567C60.2214 110.055 64.6266 111.737 68.3903 114.448ZM79.009 130.7L56.9924 158.723C56.754 159.041 56.4546 159.308 56.1116 159.509C55.7686 159.71 55.389 159.84 54.995 159.891C54.6011 159.943 54.2008 159.916 53.8175 159.811C53.4343 159.706 53.0759 159.525 52.7634 159.28C52.451 159.035 52.1907 158.729 51.9978 158.382C51.805 158.034 51.6835 157.652 51.6405 157.257C51.5975 156.862 51.6339 156.462 51.7475 156.082C51.8611 155.701 52.0496 155.347 52.302 155.04L76.6526 124.049C77.7319 126.151 78.5244 128.388 79.009 130.7Z" fill="#EAEAE8"/>
<path d="M8.00018 157.139H97.4834V158.63C97.4834 161.568 96.9048 164.477 95.7805 167.191C94.6563 169.905 93.0085 172.371 90.9311 174.449C88.8538 176.526 86.3877 178.174 83.6735 179.298C80.9594 180.422 78.0504 181.001 75.1126 181.001H30.371C24.4379 181.001 18.7478 178.644 14.5524 174.449C10.3571 170.253 8.00018 164.563 8.00018 158.63V157.139Z" fill="#0BAFEA"/>
<path d="M68.3901 114.448L35.2515 156.624C32.0435 153.87 29.5308 150.398 27.9176 146.49L55.609 109.567C60.2212 110.055 64.6265 111.737 68.3901 114.448ZM79.0088 130.7L56.9922 158.723C56.7505 159.032 56.4504 159.289 56.1091 159.481C55.7677 159.673 55.3919 159.796 55.003 159.843C54.6141 159.89 54.2199 159.859 53.8427 159.754C53.4656 159.648 53.113 159.469 52.8052 159.227C51.5076 158.209 49.0618 159.197 50.0796 157.903L76.6524 124.048C77.7317 126.15 78.5243 128.388 79.0088 130.7Z" fill="#FBFDFF"/>
<path d="M103.449 34.8451C102.523 37.6234 100.962 40.1479 98.8916 42.2188C96.8207 44.2897 94.2962 45.85 91.5178 46.7762L96.2977 49.9629C99.0293 51.784 101.238 54.2863 102.707 57.2226L103.449 58.7073L104.191 57.2226C105.66 54.2863 107.869 51.784 110.6 49.9629L115.38 46.7762C112.602 45.85 110.077 44.2897 108.006 42.2188C105.935 40.1479 104.375 37.6234 103.449 34.8451ZM70.6384 52.7417C69.7122 55.52 68.1519 58.0446 66.081 60.1154C64.0102 62.1863 61.4857 63.7466 58.7073 64.6728L63.4872 67.8595C66.2188 69.6806 68.4278 72.183 69.8961 75.1192L70.6384 76.6039L71.3808 75.1192C72.849 72.183 75.0581 69.6806 77.7896 67.8595L82.5695 64.6728C79.7912 63.7466 77.2667 62.1863 75.1958 60.1154C73.125 58.0446 71.5646 55.52 70.6384 52.7417ZM82.5695 8.00012C81.6433 10.7784 80.083 13.303 78.0121 15.3738C75.9413 17.4447 73.4167 19.005 70.6384 19.9312L75.4183 23.1179C78.1499 24.939 80.3589 27.4413 81.8272 30.3776L82.5695 31.8623L83.3119 30.3776C84.7801 27.4413 86.9892 24.939 89.7207 23.1179L94.5006 19.9312C91.7223 19.005 89.1978 17.4447 87.1269 15.3738C85.056 13.303 83.4957 10.7784 82.5695 8.00012Z" fill="#FBB540"/>
<path d="M61.6901 157.139H43.7935C40.4988 157.139 37.8279 159.81 37.8279 163.104C37.8279 166.399 40.4988 169.07 43.7935 169.07H61.6901C64.9848 169.07 67.6556 166.399 67.6556 163.104C67.6556 159.81 64.9848 157.139 61.6901 157.139Z" fill="#0276B4"/>
<path d="M112.397 127.311H130.294V133.277H112.397V127.311Z" fill="#961B20"/>
<path d="M147.091 109.414H164.987V115.38H147.091V109.414Z" fill="#533222"/>
</g>
<defs>
<filter id="filter0_dd_1_233" x="0.000183105" y="0.00012207" width="189" height="189.001" filterUnits="userSpaceOnUse" color-interpolation-filters="sRGB">
<feFlood flood-opacity="0" result="BackgroundImageFix"/>
<feColorMatrix in="SourceAlpha" type="matrix" values="0 0 0 0 0 0 0 0 0 0 0 0 0 0 0 0 0 0 127 0" result="hardAlpha"/>
<feOffset dx="-4" dy="-4"/>
<feGaussianBlur stdDeviation="2"/>
<feComposite in2="hardAlpha" operator="out"/>
<feColorMatrix type="matrix" values="0 0 0 0 0 0 0 0 0 0 0 0 0 0 0 0 0 0 0.05 0"/>
<feBlend mode="normal" in2="BackgroundImageFix" result="effect1_dropShadow_1_233"/>
<feColorMatrix in="SourceAlpha" type="matrix" values="0 0 0 0 0 0 0 0 0 0 0 0 0 0 0 0 0 0 127 0" result="hardAlpha"/>
<feOffset dx="4" dy="4"/>
<feGaussianBlur stdDeviation="2"/>
<feComposite in2="hardAlpha" operator="out"/>
<feColorMatrix type="matrix" values="0 0 0 0 0 0 0 0 0 0 0 0 0 0 0 0 0 0 0.05 0"/>
<feBlend mode="normal" in2="effect1_dropShadow_1_233" result="effect2_dropShadow_1_233"/>
<feBlend mode="normal" in="SourceGraphic" in2="effect2_dropShadow_1_233" result="shape"/>
</filter>
</defs>
</svg>
