<svg width="488" height="545" viewBox="0 0 488 545" fill="none" xmlns="http://www.w3.org/2000/svg">
<path d="M435.228 228.909C461.065 206.045 477.364 172.641 477.364 135.423C477.364 66.5043 421.497 10.6362 352.578 10.6362C292.617 10.6362 242.54 52.9316 230.533 109.314C213.411 92.1808 189.75 81.582 163.613 81.582C111.359 81.582 69.0017 123.939 69.0017 176.193C69.0017 198.076 76.43 218.218 88.9018 234.247C76.7373 244.46 69.0017 259.769 69.0017 276.895C69.0017 307.636 93.922 332.56 124.667 332.56H407.021C437.766 332.56 462.686 307.636 462.686 276.895C462.686 256.45 451.656 238.588 435.227 228.909H435.228ZM223.79 418.883C223.79 439.935 206.722 457.007 185.67 457.007C164.615 457.007 147.547 439.935 147.547 418.883C147.547 397.826 164.615 380.759 185.67 380.759C206.722 380.759 223.79 397.826 223.79 418.883ZM108.541 489.455C108.541 501.151 99.0614 510.636 87.3649 510.636C75.6652 510.636 66.1853 501.151 66.1853 489.455C66.1853 477.755 75.6663 468.274 87.366 468.274C99.0614 468.274 108.541 477.755 108.541 489.455Z" fill="#F7FAFF"/>
<path d="M407.021 343.196H223.789C217.915 343.196 213.153 338.434 213.153 332.56C213.153 326.686 217.915 321.924 223.789 321.924H407.021C431.849 321.924 452.05 301.724 452.05 276.895C452.05 261.024 443.533 246.151 429.826 238.074C428.38 237.221 427.157 236.04 426.255 234.624C425.353 233.209 424.799 231.601 424.637 229.931C424.477 228.26 424.714 226.574 425.329 225.013C425.944 223.451 426.92 222.056 428.176 220.943C452.677 199.269 466.728 168.096 466.728 135.423C466.728 72.4785 415.522 21.2721 352.577 21.2721C299.024 21.2721 252.071 59.2302 240.936 111.53C240.537 113.402 239.641 115.132 238.342 116.537C237.043 117.942 235.388 118.971 233.553 119.514C229.814 120.621 225.768 119.589 223.013 116.831C207.15 100.96 186.053 92.219 163.613 92.219C117.308 92.219 79.6376 129.889 79.6376 176.193C79.6376 195.051 85.7448 212.866 97.2988 227.716C98.9888 229.888 99.7708 232.631 99.4804 235.368C99.19 238.104 97.8498 240.622 95.7417 242.391C85.5087 250.983 79.6376 263.559 79.6376 276.894C79.6376 301.724 99.8376 321.924 124.666 321.924H142.249C148.124 321.924 152.885 326.685 152.885 332.56C152.885 338.431 148.124 343.196 142.249 343.196H124.666C88.1092 343.196 58.3654 313.452 58.3654 276.895C58.35 260.72 64.2641 245.101 74.9886 232.993C64.0823 216.071 58.3654 196.617 58.3654 176.193C58.3654 118.16 105.579 70.9415 163.613 70.9415C185.87 70.9415 207.067 77.805 224.799 90.5225C233 67.2561 247.559 46.3871 266.832 30.5989C290.925 10.8701 321.38 0 352.577 0C427.251 0 488 60.7501 488 135.423C488 169.845 474.863 202.859 451.568 227.824C465.225 240.268 473.322 258.108 473.322 276.895C473.322 313.452 443.578 343.196 407.021 343.196ZM183.734 343.196C177.863 343.196 173.094 338.434 173.094 332.56C173.094 326.686 177.851 321.924 183.725 321.924H183.734C189.609 321.924 194.37 326.685 194.37 332.56C194.37 338.436 189.609 343.196 183.734 343.196ZM185.67 467.643C158.782 467.643 136.911 445.767 136.911 418.883C136.911 391.998 158.781 370.123 185.67 370.123C212.555 370.123 234.425 391.998 234.425 418.883C234.425 445.767 212.555 467.643 185.67 467.643ZM185.67 391.395C170.513 391.395 158.183 403.726 158.183 418.883C158.183 434.039 170.513 446.37 185.67 446.37C200.826 446.37 213.153 434.039 213.153 418.883C213.153 403.726 200.826 391.395 185.67 391.395ZM87.3647 521.272C69.8205 521.272 55.549 506.996 55.549 489.455C55.549 471.909 69.8205 457.638 87.3658 457.638C104.907 457.638 119.178 471.909 119.178 489.455C119.178 506.996 104.906 521.272 87.3647 521.272ZM87.3647 478.91C81.5489 478.91 76.8212 483.642 76.8212 489.455C76.8212 495.268 81.5489 500 87.3658 500C93.1773 500 97.9061 495.267 97.9061 489.455C97.9061 483.643 93.1762 478.91 87.3647 478.91ZM10.6361 544.567C7.81729 544.557 5.1158 543.437 3.11637 541.451C1.13806 539.472 0 536.728 0 533.931C0 531.134 1.13806 528.389 3.11637 526.411C5.1158 524.424 7.81729 523.305 10.6361 523.295C13.444 523.295 16.1775 524.433 18.1558 526.411C20.1341 528.389 21.2721 531.134 21.2721 533.931C21.2721 536.728 20.1341 539.472 18.1558 541.451C16.1577 543.44 13.4553 544.559 10.6361 544.567Z" fill="#172C7A"/>
<path d="M274.606 249.013C268.731 249.013 263.97 244.252 263.97 238.377V217.852C263.97 210.503 269.947 204.524 277.297 204.524C289.238 204.524 298.948 194.81 298.948 182.873C298.948 170.937 289.235 161.224 277.298 161.224H274.606C264.152 161.224 255.647 169.728 255.647 180.182C255.647 186.057 250.886 190.818 245.011 190.818C239.136 190.818 234.375 186.057 234.375 180.182C234.375 158 252.424 139.952 274.606 139.952H277.297C300.967 139.952 320.22 159.205 320.22 182.875C320.22 203.827 305.13 221.322 285.242 225.061V238.378C285.242 244.252 280.48 249.014 274.606 249.014V249.013ZM274.602 290.418C271.804 290.418 269.059 289.28 267.082 287.303C265.105 285.325 263.966 282.579 263.966 279.783C263.966 276.986 265.104 274.241 267.082 272.263C269.06 270.286 271.804 269.147 274.602 269.147C277.398 269.147 280.143 270.285 282.121 272.263C284.1 274.242 285.238 276.975 285.238 279.783C285.238 282.579 284.1 285.324 282.121 287.303C280.143 289.281 277.398 290.419 274.602 290.419V290.418ZM352.577 67.9709H352.485C346.62 67.9209 341.838 63.1315 341.875 57.2689C341.912 51.4191 346.731 46.6988 352.577 46.6988H352.623C358.49 46.7286 363.296 51.4935 363.284 57.3604C363.271 63.2262 358.444 67.9709 352.577 67.9709ZM430.665 146.059C424.791 146.059 420.029 141.298 420.029 135.423C420.029 110.449 406.322 87.6232 384.261 75.8608C379.081 73.0986 377.119 66.6542 379.882 61.4734C382.645 56.2883 389.084 54.3227 394.269 57.0902C423.282 72.5583 441.302 102.575 441.302 135.423C441.302 141.298 436.54 146.059 430.666 146.059H430.665Z" fill="#172C7A"/>
</svg>
