<svg width="196" height="196" viewBox="0 0 196 196" fill="none" xmlns="http://www.w3.org/2000/svg">
<g filter="url(#filter0_dd_1_192)">
<path d="M91.8986 8C79.7616 8 68.1217 12.8214 59.5395 21.4036C50.9573 29.9858 46.1359 41.6257 46.1359 53.7627V82.7458H98.0003V14.1017C98.0003 12.4834 97.3575 10.9314 96.2132 9.78714C95.0689 8.64285 93.5169 8 91.8986 8Z" fill="#A24F00"/>
<path d="M104.102 8C116.239 8 127.879 12.8214 136.461 21.4036C145.043 29.9858 149.865 41.6257 149.865 53.7627V82.7458H98.0002V14.1017C98.0002 12.4834 98.643 10.9314 99.7873 9.78714C100.932 8.64285 102.484 8 104.102 8Z" fill="#AA5E16"/>
<path d="M54.19 73.5933C54.19 73.5933 54.19 67.4916 46.5629 67.4916C38.9357 67.4916 34.3595 93.4238 54.19 104.102V73.5933ZM141.81 73.5933C141.81 73.5933 141.81 67.4916 149.437 67.4916C157.065 67.4916 161.641 93.4238 141.81 104.102V73.5933Z" fill="#FAE0BB"/>
<path d="M54.19 79.695C54.19 79.695 51.1392 73.5933 48.0883 73.5933C45.0375 73.5933 45.0375 81.2204 45.0375 81.2204L54.19 94.9492V79.695ZM141.81 79.695C141.81 79.695 144.861 73.5933 147.912 73.5933C150.963 73.5933 150.963 81.2204 150.963 81.2204L141.81 94.9492V79.695ZM72.068 116.305V162.068C72.037 163.396 71.5733 164.678 70.7473 165.719C69.9214 166.759 68.7783 167.502 67.4917 167.834L8.00018 183.424V188H188V183.424L128.509 167.834C127.222 167.502 126.079 166.759 125.253 165.719C124.427 164.678 123.963 163.396 123.932 162.068V116.305H72.068Z" fill="#EEBF90"/>
<path d="M145.289 87.322C145.289 108.678 117.831 151.39 98.0007 151.39C78.1702 151.39 50.7126 108.678 50.7126 87.322C50.7126 54.4644 65.1431 41.5593 98.0007 41.5593C130.858 41.5593 145.289 54.4644 145.289 87.322Z" fill="#F6D2A6"/>
<path d="M75.119 96.4746C72.3485 96.7331 69.579 95.9702 67.3315 94.3296C65.0841 92.689 63.5136 90.2836 62.9156 87.5661C62.8509 87.1616 62.9495 86.7478 63.1898 86.416C63.4301 86.0842 63.7924 85.8614 64.1969 85.7966C64.6015 85.7319 65.0152 85.8305 65.3471 86.0708C65.6789 86.3111 65.9017 86.6734 65.9664 87.078C65.9664 87.3221 67.1258 93.4237 75.119 93.4237C83.1122 93.4237 84.2715 87.3221 84.2715 87.078C84.3362 86.6734 84.559 86.3111 84.8909 86.0708C85.2227 85.8305 85.6364 85.7319 86.041 85.7966C86.4456 85.8614 86.8079 86.0842 87.0482 86.416C87.2885 86.7478 87.3871 87.1616 87.3224 87.5661C86.7243 90.2836 85.1539 92.689 82.9064 94.3296C80.659 95.9702 77.8895 96.7331 75.119 96.4746ZM120.882 96.4746C118.111 96.7331 115.342 95.9702 113.094 94.3296C110.847 92.689 109.276 90.2836 108.678 87.5661C108.614 87.1616 108.712 86.7478 108.953 86.416C109.193 86.0842 109.555 85.8614 109.96 85.7966C110.364 85.7319 110.778 85.8305 111.11 86.0708C111.442 86.3111 111.664 86.6734 111.729 87.078C111.729 87.3221 112.888 93.4237 120.882 93.4237C128.875 93.4237 130.034 87.3221 130.034 87.078C130.099 86.6734 130.322 86.3111 130.654 86.0708C130.985 85.8305 131.399 85.7319 131.804 85.7966C132.208 85.8614 132.571 86.0842 132.811 86.416C133.051 86.7478 133.15 87.1616 133.085 87.5661C132.487 90.2836 130.917 92.689 128.669 94.3296C126.422 95.9702 123.652 96.7331 120.882 96.4746Z" fill="#7E3611"/>
<path d="M98.0004 133.085C87.8716 133.085 85.9496 127.685 85.797 127.471C85.6635 127.087 85.6882 126.665 85.8655 126.299C86.0429 125.933 86.3585 125.652 86.7428 125.519C87.1271 125.385 87.5488 125.41 87.9149 125.587C88.2811 125.765 88.5618 126.08 88.6953 126.464C88.6953 126.647 90.2208 130.034 97.8479 130.034C105.475 130.034 107 126.617 107 126.464C107.144 126.09 107.43 125.787 107.795 125.621C108.161 125.456 108.577 125.441 108.953 125.58C109.139 125.642 109.312 125.74 109.46 125.869C109.608 125.997 109.73 126.154 109.818 126.329C109.906 126.505 109.958 126.696 109.972 126.892C109.986 127.088 109.961 127.285 109.899 127.471C110.051 127.685 108.129 133.085 98.0004 133.085Z" fill="#FF6B56"/>
<path d="M97.9997 49.1864C73.5929 49.1864 53.7624 71.0305 53.7624 98C53.7624 124.969 80.6709 151.39 97.9997 151.39C115.328 151.39 142.237 124.969 142.237 98C142.237 71.0305 122.406 49.1864 97.9997 49.1864ZM59.8641 88.8474C59.8641 82.9593 66.698 78.1695 75.1183 78.1695C83.5387 78.1695 90.3726 82.9593 90.3726 88.8474C90.3726 94.7356 83.5387 99.5254 75.1183 99.5254C66.698 99.5254 59.8641 94.7356 59.8641 88.8474ZM97.9997 137.661C87.9014 137.661 79.6946 133.908 79.6946 129.271C79.6946 124.634 87.9014 120.881 97.9997 120.881C108.098 120.881 116.305 124.634 116.305 129.271C116.305 133.908 108.098 137.661 97.9997 137.661ZM120.881 99.5254C112.461 99.5254 105.627 94.7356 105.627 88.8474C105.627 82.9593 112.461 78.1695 120.881 78.1695C129.301 78.1695 136.135 82.9593 136.135 88.8474C136.135 94.7356 129.301 99.5254 120.881 99.5254Z" fill="#F0EDFA"/>
<path d="M91.8993 107.153L88.8484 114.78H107.154L104.103 107.153L111.73 119.356H84.2722L91.8993 107.153Z" fill="#DFDCE8"/>
<path d="M27.8304 110.203L23.2541 122.407L27.8304 134.61L32.4066 122.407L27.8304 110.203ZM163.593 15.6271L159.017 27.8305L163.593 40.0339L168.169 27.8305L163.593 15.6271ZM171.22 74.6L168.169 82.7458L171.22 90.8915L174.271 82.7458L171.22 74.6ZM27.8304 56.8136L24.7795 64.9593L27.8304 73.0746L30.8812 64.9593L27.8304 56.8136ZM148.339 130.034L145.288 138.18L148.339 146.295L151.39 138.18L148.339 130.034Z" fill="#FFFF34"/>
</g>
<defs>
<filter id="filter0_dd_1_192" x="0.000183105" y="0" width="196" height="196" filterUnits="userSpaceOnUse" color-interpolation-filters="sRGB">
<feFlood flood-opacity="0" result="BackgroundImageFix"/>
<feColorMatrix in="SourceAlpha" type="matrix" values="0 0 0 0 0 0 0 0 0 0 0 0 0 0 0 0 0 0 127 0" result="hardAlpha"/>
<feOffset dx="-4" dy="-4"/>
<feGaussianBlur stdDeviation="2"/>
<feComposite in2="hardAlpha" operator="out"/>
<feColorMatrix type="matrix" values="0 0 0 0 0 0 0 0 0 0 0 0 0 0 0 0 0 0 0.05 0"/>
<feBlend mode="normal" in2="BackgroundImageFix" result="effect1_dropShadow_1_192"/>
<feColorMatrix in="SourceAlpha" type="matrix" values="0 0 0 0 0 0 0 0 0 0 0 0 0 0 0 0 0 0 127 0" result="hardAlpha"/>
<feOffset dx="4" dy="4"/>
<feGaussianBlur stdDeviation="2"/>
<feComposite in2="hardAlpha" operator="out"/>
<feColorMatrix type="matrix" values="0 0 0 0 0 0 0 0 0 0 0 0 0 0 0 0 0 0 0.05 0"/>
<feBlend mode="normal" in2="effect1_dropShadow_1_192" result="effect2_dropShadow_1_192"/>
<feBlend mode="normal" in="SourceGraphic" in2="effect2_dropShadow_1_192" result="shape"/>
</filter>
</defs>
</svg>
