<svg width="138" height="10" viewBox="0 0 138 10" fill="none" xmlns="http://www.w3.org/2000/svg">
<path d="M1.72458 7.6972C1.57462 7.23919 1.57462 7.1883 2.02451 7.1883C2.24946 7.1883 2.4744 7.1883 2.69935 7.08651C2.92429 6.98473 3.07426 6.73028 3.44917 6.73028C3.97404 6.73028 4.04902 6.27226 4.64888 6.27226C5.09877 6.27226 5.54866 6.27226 5.99855 6.27226C6.29848 6.27226 6.44844 6.17048 6.67339 6.0687C6.89833 5.96692 7.27324 6.01781 7.42321 5.81425C7.8731 5.86514 8.02306 5.5598 8.39797 5.5598C8.84786 5.50891 9.07281 5.25445 9.59768 5.30534C9.97259 5.35623 10.3475 5.25445 10.7224 5.30534C11.2473 5.35623 11.4722 5.10178 11.9221 5.05089C12.372 5.05089 12.8219 5.05089 13.2718 5.05089C13.7217 5.05089 14.1716 5.10178 14.6215 5.05089C15.0714 5 15.4463 4.79644 15.9711 4.84733C16.496 4.89822 17.0209 4.84733 17.4708 4.84733C17.9957 4.84733 18.2206 4.49109 18.8205 4.59288C19.3453 4.69466 19.9452 4.59288 20.545 4.59288C21.0699 4.59288 21.5948 4.64377 22.0447 4.59288C22.6445 4.54198 23.1694 4.28753 23.7693 4.33842C24.3691 4.38931 25.044 4.33842 25.6438 4.33842C26.2437 4.33842 26.9185 4.28753 27.5184 4.33842C28.0432 4.38931 28.3432 4.03308 28.868 4.08397C29.3929 4.13486 29.9928 4.08397 30.5926 4.08397C31.1175 4.08397 31.6424 4.08397 32.0922 4.08397C32.7671 4.03308 33.5169 4.23664 34.0418 3.88041H34.1917C34.3417 3.88041 34.4167 3.88041 34.5666 3.88041H36.2912H37.7909C38.2408 3.62595 38.9156 3.77863 39.4405 3.72774C39.5155 3.72774 39.5904 3.67684 39.5904 3.67684C39.5155 3.62595 39.4405 3.52417 39.4405 3.52417C38.7656 3.57506 38.0908 3.42239 37.4909 3.72774C37.341 3.77863 36.9661 3.72774 36.7411 3.72774C35.4664 3.72774 34.1917 3.72774 32.917 3.72774C32.3922 3.72774 32.1672 4.08397 31.5674 3.98219C31.1175 3.9313 30.5926 3.98219 30.0677 3.98219C29.5429 3.98219 29.018 3.98219 28.5681 3.98219C27.8933 4.03308 27.3684 4.28753 26.6186 4.23664C25.9437 4.18575 25.1939 4.23664 24.5191 4.23664C23.8442 4.23664 23.0944 4.28753 22.4196 4.23664C21.8197 4.13486 21.5198 4.49109 20.9949 4.4402C20.4701 4.38931 20.0202 4.4402 19.4953 4.4402H17.9957H16.496H14.9964H13.4967C12.8969 4.4402 12.297 4.38931 11.7722 4.4402C11.0973 4.54199 10.7974 4.18575 10.1975 4.18575C9.59768 4.18575 9.07281 4.18575 8.47295 4.18575C8.39797 4.18575 8.24801 4.13486 8.17303 4.08397C7.79812 3.77863 7.34822 3.72774 6.74837 3.67684C6.29848 3.62595 5.99855 3.3715 5.62364 3.16794C6.37346 2.91349 7.0483 3.16794 7.57317 2.96438C7.57317 2.8117 7.34823 2.76081 7.19826 2.65903C7.0483 2.55725 6.82335 2.45547 6.67339 2.35369C6.44844 2.20102 6.37346 2.09924 6.67339 1.94657C6.97332 1.79389 6.89833 1.59033 6.89833 1.43766C6.89833 1.2341 7.34822 1.13232 7.34822 0.877863C7.34822 0.6743 7.8731 0.776081 8.17303 0.776081C8.62292 0.776081 9.07281 0.776081 9.5227 0.776081C9.67266 0.776081 9.82263 0.6743 9.97259 0.62341C10.2725 0.521629 10.3475 0.521629 10.6474 0.62341C10.8724 0.725191 11.0223 0.776081 11.3223 0.776081C11.4722 0.776081 11.6972 0.776081 11.8471 0.877863C12.222 1.18321 12.6719 1.2341 13.3468 1.2341C13.7967 1.2341 14.0966 1.08143 14.4715 1.03053C14.6964 1.28499 15.1463 1.18321 15.5213 1.18321C15.9711 1.18321 16.421 1.18321 16.8709 1.18321H17.9957H19.3453C19.7202 1.18321 20.0951 1.18321 20.4701 1.18321C20.77 1.18321 20.9949 1.18321 21.1449 1.03053C21.2199 0.928753 21.2949 0.979644 21.4448 1.03053C21.9697 1.2341 21.9697 1.2341 22.3446 1.03053C22.4196 0.979644 22.4946 0.928753 22.6445 0.877863C22.4946 0.826972 22.3446 0.776081 22.1946 0.776081C21.6698 0.776081 21.1449 0.776081 20.695 0.776081C20.62 0.776081 20.545 0.725191 20.3951 0.6743C20.4701 0.62341 20.62 0.572519 20.695 0.572519C21.2949 0.572519 21.8197 0.572519 22.4196 0.572519C22.6445 0.572519 22.7945 0.216285 23.0944 0.470738C23.3194 0.6743 23.6943 0.521629 23.9942 0.572519C24.0692 0.572519 24.1442 0.62341 24.1442 0.6743C24.2191 1.38677 25.0439 0.928753 25.5688 1.03053C25.5688 1.03053 25.7188 0.928753 25.7188 0.826972C25.7188 0.725191 25.7188 0.572519 25.9437 0.62341C26.0187 0.62341 26.0937 0.826972 26.0937 0.928753C26.1687 1.2341 26.3186 1.33588 26.7685 1.28499C26.9185 1.28499 27.0685 1.2341 27.2184 1.18321C27.7433 1.03053 28.2682 0.979644 28.7181 1.2341C28.943 1.33588 29.168 1.28499 29.3929 1.33588C29.5429 1.33588 29.7678 1.33588 29.7678 1.18321C29.7678 1.13232 29.5429 1.13232 29.4679 1.08143C29.3929 1.03053 29.168 1.03053 29.168 0.979644C29.168 0.826972 29.3179 0.826972 29.5429 0.826972C29.6178 0.826972 29.6928 0.826972 29.7678 0.826972C30.1427 0.877863 30.2927 0.776081 30.2927 0.521629C30.2927 0.419847 30.4426 0.368957 30.6676 0.470738C30.5176 0.470738 30.7426 0.521629 30.7426 0.470738C31.1175 0.165394 31.6424 0.318066 32.1672 0.267176C32.6171 0.267176 32.992 0.216285 33.3669 0.470738C33.4419 0.521629 33.8168 0.521629 34.1168 0.470738C34.3417 0.419847 34.4167 0.216285 34.7166 0.267176C35.5414 0.267176 36.3662 0.267176 37.191 0.267176C37.266 0.267176 37.341 0.368957 37.4909 0.419847C37.7159 0.62341 38.0908 0.572519 38.2408 0.521629C38.7656 0.267176 39.2155 0.216285 39.7404 0.521629C39.7404 0.521629 39.9653 0.470738 39.9653 0.419847C40.2653 0.267176 40.4902 0.318066 40.7901 0.419847C41.0901 0.572519 41.24 0.572519 41.39 0.419847C41.6899 0.216285 42.0648 0.318066 42.4397 0.267176C42.9646 0.6743 43.7144 0.470738 44.3893 0.470738C44.6892 0.216285 45.0641 0.165394 45.439 0.419847H45.589C45.8889 0.114504 46.4138 0.267176 46.7887 0.216285C47.6885 0.216285 48.5883 0.216285 49.488 0.216285C49.9379 0.216285 50.5378 0.318066 50.8377 0.0127226C51.2876 0.368957 51.8125 0.216285 52.4123 0.216285C52.9372 0.216285 53.4621 0.216285 53.912 0.216285C54.2119 0.216285 54.4369 0.165394 54.5868 0.0636132C54.5868 0.0636132 54.6618 0.0636132 54.8118 0.165394C55.0367 0.318066 55.3366 0.368957 55.5616 0.165394C55.7115 0.0636132 55.7865 0.114504 56.0115 0.165394C56.5363 0.318066 57.0612 0.368957 57.5111 0.114504C57.7361 -0.0381679 57.811 0.114504 57.886 0.165394C58.1859 0.267176 58.1859 0.267176 58.5609 0.165394C58.7108 0.114504 58.7858 -0.0381679 58.9358 0.114504C59.2357 0.368957 59.7606 0.368957 59.9855 0.267176C60.4354 0.0127227 60.8853 0.114504 61.4102 0.0636132C61.8601 0.0636132 62.3099 -0.0381679 62.6099 0.267176C62.6849 0.318066 62.9848 0.267176 63.0598 0.216285C63.2847 0.165394 63.4347 0.0636132 63.7346 0.0636132C64.4844 0.0636132 65.2342 0.0636132 65.9841 0.0636132C72.9574 0.0636132 79.9307 0.0636132 86.904 0.0636132C87.3539 0.0636132 87.8038 0.0127227 88.1037 0.267176C88.1787 0.318066 88.4786 0.267176 88.5536 0.216285C88.7786 0.0636132 88.9285 0.114504 89.0785 0.216285C89.3034 0.318066 89.3784 0.0636132 89.4534 0.114504C90.3532 0.419847 91.3279 0.267176 92.3027 0.267176C93.3524 0.318066 94.4772 0.267176 95.5269 0.267176H98.6012C99.6509 0.267176 100.626 0.267176 101.675 0.267176C102.2 0.267176 102.8 0.419847 103.25 0.0636132C103.4 -0.0381679 103.7 0.0127226 104 0.0127226C109.399 0.0127226 114.797 0.0127226 120.196 0.0127226C120.646 0.0127226 120.946 0.216285 121.396 0.267176C121.771 0.318066 122.145 0.165394 122.52 0.318066C122.595 0.368957 122.67 0.419847 122.82 0.470738C123.195 0.0636132 123.57 0.318066 124.02 0.470738C124.47 0.572519 124.995 0.470738 125.52 0.470738C126.045 0.470738 126.344 0.826972 126.869 0.725191C127.244 0.6743 127.769 0.6743 128.219 0.725191C128.519 0.725191 128.744 0.877863 129.044 0.928753C129.344 0.979644 129.719 0.877863 130.019 0.928753C130.319 0.979644 130.468 1.13232 130.843 1.18321C131.068 1.18321 131.293 1.43766 131.668 1.38677L131.743 1.53944C131.443 1.64122 131.518 1.89567 131.368 1.99746C131.143 2.15013 130.843 2.35369 130.393 2.3028C130.244 2.3028 130.094 2.35369 129.944 2.40458C130.244 2.55725 130.468 2.70992 130.693 2.8626C130.693 2.8626 130.693 2.91349 130.693 2.96438C130.244 3.16794 130.019 3.52417 129.344 3.52417C129.044 3.52417 128.744 3.52417 128.369 3.52417C127.994 3.52417 128.069 3.72774 128.069 3.88041C128.069 3.9313 128.069 3.9313 128.069 3.98219C127.694 3.98219 127.469 4.18575 127.094 4.23664C126.719 4.28753 126.494 4.59288 126.12 4.79644C126.344 4.84733 126.494 4.89822 126.644 4.89822C128.519 4.89822 130.468 4.89822 132.343 4.89822C132.868 4.89822 133.468 4.94911 133.993 4.94911C134.368 5.25445 134.892 5.10178 135.417 5.10178C135.867 5.45802 136.917 5.20356 137.292 5.71247C137.442 5.86514 137.742 5.96692 137.967 6.11959C137.967 6.37405 137.967 6.6285 137.967 6.83206C137.967 6.88295 138.042 7.03562 137.967 7.03562C137.367 7.29008 137.742 7.64631 137.592 7.95165L136.167 8.20611C136.017 8.15522 135.942 7.95165 135.792 8.15522C135.567 8.35878 134.817 8.15522 134.967 8.61323C134.967 8.66412 134.817 8.71501 134.667 8.71501C134.218 8.66412 133.768 8.7659 133.543 9.02036C133.318 9.22392 133.018 9.22392 132.718 9.17303C132.343 9.12214 132.193 9.47837 131.743 9.42748C131.368 9.37659 130.993 9.37659 130.618 9.42748C130.169 9.52926 130.019 9.12214 129.719 9.27481C129.419 9.42748 129.119 9.42748 128.819 9.37659C128.369 9.37659 127.919 9.47837 127.619 9.17303C127.094 9.17303 126.644 9.12214 126.12 9.12214C125.67 9.12214 125.22 9.02036 124.92 9.3257C124.845 9.37659 124.62 9.37659 124.545 9.37659C124.245 9.27481 124.02 9.07125 123.72 9.37659C123.42 9.37659 123.12 9.37659 122.745 9.37659C122.37 9.37659 121.996 9.37659 121.621 9.37659H120.646H119.521C119.221 9.37659 118.846 9.3257 118.546 9.37659C118.246 9.42748 118.021 9.52926 117.722 9.58015C117.422 9.63104 117.122 9.58015 116.747 9.58015C116.222 9.58015 115.622 9.63104 115.172 9.37659C115.022 9.3257 114.572 9.3257 114.497 9.37659C114.122 9.63104 113.748 9.58015 113.298 9.58015C112.923 9.58015 112.548 9.63104 112.248 9.37659C112.098 9.27481 111.798 9.3257 111.498 9.3257C107.374 9.3257 103.25 9.3257 99.1261 9.3257C98.7511 9.3257 98.4512 9.3257 98.0763 9.52926C97.8514 9.63104 97.3265 9.68193 97.1015 9.42748C97.0266 9.3257 96.9516 9.3257 96.8016 9.42748C96.5767 9.68193 96.1268 9.58015 95.7519 9.58015C95.4519 9.27481 95.002 9.3257 94.5522 9.37659C94.1772 9.37659 93.8023 9.3257 93.5024 9.52926C93.3524 9.63104 92.9026 9.58015 92.6026 9.58015C86.829 9.58015 81.0554 9.58015 75.2818 9.58015C74.532 9.58015 73.7822 9.42748 73.1823 9.78372C73.1073 9.83461 72.8824 9.78372 72.8824 9.73283C72.6574 9.47837 72.2076 9.52926 71.8326 9.52926C69.9581 9.52926 68.1585 9.52926 66.284 9.52926C59.5356 9.52926 52.7123 9.52926 45.9639 9.52926C45.514 9.52926 45.1391 9.47837 44.7642 9.73283C44.6142 9.83461 44.3143 9.73282 44.0893 9.63104C43.7144 9.42748 43.2645 9.42748 42.9646 9.68193C42.8147 9.78372 42.8147 9.78372 42.6647 9.68193C42.5897 9.63104 42.3648 9.52926 42.2148 9.52926C41.465 9.52926 40.7152 9.52926 39.9653 9.52926C39.2905 9.52926 38.7656 9.8855 38.0158 9.78372C37.341 9.68193 36.5912 9.78372 35.9163 9.78372H33.8168H31.7173H29.6178H27.5184H25.4938C24.819 9.78372 24.0692 9.78372 23.3943 9.78372C23.0194 9.78372 22.6445 9.73282 22.3446 9.93639C22.2696 10.0382 21.8947 9.98728 21.6698 9.98728C17.6957 9.98728 13.7217 9.98728 9.67266 9.98728C9.29775 9.98728 8.92284 10.0382 8.62292 9.78372C8.62292 9.78372 8.24801 9.93639 8.09804 9.93639C6.44844 9.93639 4.79884 9.98728 3.14924 9.93639C2.69935 9.93639 2.24946 9.73283 1.87455 9.58015C1.72458 9.52926 1.72458 9.52926 1.57462 9.58015C0.674837 9.98728 0.749819 10.0382 0 9.52926C0.149964 9.47837 0.374909 9.47837 0.524873 9.42748C0.749819 9.37659 0.899783 9.22392 0.749819 9.12214C0.674837 9.07125 0.524873 9.02036 0.524873 8.96947C0.299928 8.71501 0.374909 8.61323 0.974764 8.35878C1.19971 8.257 1.19971 8.10433 1.19971 7.95165C1.19971 7.74809 1.19971 7.59542 1.72458 7.6972C1.87455 7.6972 1.79957 7.64631 1.72458 7.64631H1.57462C1.57462 7.64631 1.57462 7.6972 1.57462 7.74809C1.6496 7.79898 1.72458 7.84987 1.79957 7.84987C1.79957 7.84987 1.87455 7.79898 1.72458 7.6972ZM115.922 4.64377C116.447 4.64377 116.897 4.64377 117.422 4.64377C117.497 4.64377 117.572 4.54198 117.572 4.49109C117.572 4.49109 117.497 4.4402 117.422 4.4402C116.522 4.4402 115.697 4.4402 114.797 4.4402C114.722 4.4402 114.647 4.54198 114.647 4.59288C114.647 4.59288 114.722 4.64377 114.797 4.64377C115.172 4.64377 115.547 4.64377 115.922 4.64377ZM11.3972 2.15013C11.5472 2.09924 11.6972 2.09924 11.7722 2.04835V1.99746C11.6222 1.89567 11.2473 1.89567 11.1723 1.99746C11.0973 2.04835 11.3223 2.09924 11.3972 2.15013Z" fill="#172C7A"/>
</svg>
