<svg width="29" height="47" viewBox="0 0 29 47" fill="none" xmlns="http://www.w3.org/2000/svg">
<path d="M1.32767 20.158C1.56085 19.9264 1.8186 19.7209 2.09635 19.5452L20.3094 1.33299C21.1631 0.479411 22.3209 -7.90225e-05 23.5282 9.76837e-09C24.7354 7.90421e-05 25.8931 0.479721 26.7467 1.33341C27.6003 2.1871 28.0798 3.3449 28.0797 4.55212C28.0796 5.75934 27.6 6.91708 26.7463 7.77066L11.06 23.4552L26.8255 39.2224C27.6789 40.0756 28.1583 41.2329 28.1584 42.4396C28.1584 43.0372 28.0408 43.6288 27.8121 44.1809C27.5835 44.7329 27.2484 45.2345 26.8259 45.6571C26.4034 46.0796 25.9019 46.4148 25.3499 46.6435C24.7978 46.8722 24.2062 46.9899 23.6086 46.99C22.4019 46.99 21.2446 46.5107 20.3912 45.6575L2.09635 27.3652C1.81856 27.1896 1.5608 26.9841 1.32767 26.7524C0.89562 26.3207 0.555365 25.806 0.327377 25.2394C0.0993881 24.6728 -0.0116196 24.0659 0.00102997 23.4552C-0.0121078 22.8445 0.0986786 22.2375 0.326694 21.6707C0.55471 21.104 0.895224 20.5894 1.32767 20.158Z" fill="#172C7A"/>
</svg>
