<svg width="29" height="47" viewBox="0 0 29 47" fill="none" xmlns="http://www.w3.org/2000/svg">
<path d="M26.831 20.158C26.5978 19.9264 26.34 19.7209 26.0623 19.5452L7.84918 1.33299C6.9955 0.479411 5.83769 -7.90225e-05 4.63047 9.76837e-09C3.42325 7.90421e-05 2.26551 0.479721 1.41194 1.33341C0.558359 2.1871 0.0788694 3.3449 0.0789484 4.55212C0.0790275 5.75934 0.558668 6.91708 1.41236 7.77066L17.0986 23.4552L1.33313 39.2224C0.479776 40.0756 0.000323183 41.2329 0.00024415 42.4396C0.000205018 43.0372 0.117857 43.6288 0.346481 44.1809C0.575106 44.7329 0.910226 45.2345 1.33271 45.6571C1.75519 46.0796 2.25676 46.4148 2.80878 46.6435C3.3608 46.8722 3.95246 46.9899 4.54998 46.99C5.75672 46.99 6.91408 46.5107 7.76743 45.6575L26.0623 27.3652C26.3401 27.1896 26.5978 26.9841 26.831 26.7524C27.263 26.3207 27.6033 25.806 27.8313 25.2394C28.0592 24.6728 28.1702 24.0659 28.1576 23.4552C28.1707 22.8445 28.06 22.2375 27.8319 21.6707C27.6039 21.104 27.2634 20.5894 26.831 20.158Z" fill="#172C7A"/>
</svg>
