<svg width="110" height="110" viewBox="0 0 110 110" fill="none" xmlns="http://www.w3.org/2000/svg">
<path d="M92.8232 107.061H29.5571V43.697C29.557 43.5175 29.5904 43.3397 29.6552 43.1738C29.72 43.0079 29.8151 42.8572 29.935 42.7302C30.0548 42.6032 30.1972 42.5025 30.3538 42.4338C30.5104 42.3651 30.6783 42.3297 30.8479 42.3297H92.9813C93.3238 42.3297 93.6523 42.4738 93.8945 42.7302C94.1368 42.9866 94.2729 43.3343 94.2729 43.697V105.526C94.273 105.728 94.2355 105.927 94.1627 106.113C94.0899 106.3 93.9832 106.469 93.8486 106.611C93.714 106.754 93.5542 106.867 93.3783 106.944C93.2024 107.021 93.014 107.061 92.8236 107.061H92.8232Z" fill="#C0694E"/>
<path d="M81.3855 43.5532V107.062H29.5566V43.5532C29.5569 43.2288 29.6788 42.9178 29.8956 42.6886C30.1123 42.4593 30.4061 42.3306 30.7125 42.3306H80.2279C80.5345 42.3303 80.8287 42.4589 81.0457 42.6882C81.2627 42.9174 81.3851 43.2286 81.3855 43.5532Z" fill="#C97E67"/>
<path d="M81.3856 43.5532V107.062H36.2212V43.5532C36.2213 43.2289 36.343 42.918 36.5596 42.6887C36.7762 42.4594 37.0699 42.3306 37.3762 42.3306H80.2282C80.5348 42.3303 80.829 42.4589 81.046 42.6882C81.263 42.9174 81.3852 43.2286 81.3856 43.5532Z" fill="#D29380"/>
<path d="M62.472 60.7105L55.8591 55.2328C55.7483 55.1412 55.6118 55.0914 55.4713 55.0914C55.3308 55.0914 55.1943 55.1412 55.0835 55.2328L48.4702 60.7105C48.0575 61.0517 47.4531 60.7408 47.4531 60.1856V42.3297H63.489V60.1856C63.489 60.7408 62.8849 61.0526 62.472 60.7105Z" fill="#954C35"/>
<path d="M62.648 92.3184H59.5596C61.0803 92.3184 62.3878 93.3588 62.8476 94.8089C63.6113 97.19 61.9431 99.6743 59.562 99.6743L48.7326 99.6814C49.6927 99.6814 50.5587 100.091 51.19 100.759C53.3642 103.061 51.8276 107.04 48.7352 107.045H24.3799C23.1616 107.047 21.9586 106.759 20.8592 106.203C18.1006 104.816 16.1896 101.84 16.1763 98.393L16.2098 78.9547V78.9406C16.2124 78.2066 16.7899 77.6168 17.4847 77.6168C18.8055 77.4444 23.8208 78.6838 26.2421 73.668L30.1847 65.4696C31.9346 61.8249 37.7807 66.861 35.3536 71.9113L33.7455 75.2575C33.226 76.3373 33.9679 77.6168 35.1143 77.6168L55.9861 77.6122C58.0641 77.6122 59.6814 79.5163 59.5512 81.4391C59.4799 83.3602 57.9943 84.917 56.1707 84.9666C56.1412 84.9693 56.1103 84.9693 56.0817 84.9693C56.7907 84.9684 54.0205 84.9693 62.5146 84.9666C64.2097 84.9666 66.0586 86.5126 66.0778 88.7909C66.0906 90.7917 64.678 92.3184 62.648 92.3184Z" fill="#F2D1A5"/>
<path d="M63.027 96.1542C62.9516 98.1106 61.4301 99.6744 59.5618 99.6744L48.7324 99.6814H41.3246C40.8828 99.6814 40.4592 99.4956 40.1468 99.1649C39.8344 98.8342 39.6588 98.3856 39.6587 97.9179C39.6586 97.6863 39.7016 97.4569 39.7853 97.2428C39.869 97.0288 39.9917 96.8343 40.1464 96.6705C40.3011 96.5067 40.4848 96.3768 40.6869 96.2882C40.8891 96.1996 41.1058 96.1541 41.3246 96.1542H63.027ZM66.0778 88.7901C66.0902 90.7917 64.6779 92.3182 62.6478 92.3182H44.3324C44.1135 92.3184 43.8967 92.2728 43.6945 92.1842C43.4922 92.0956 43.3084 91.9656 43.1536 91.8017C42.9989 91.6379 42.8761 91.4433 42.7923 91.2292C42.7086 91.0151 42.6656 90.7856 42.6656 90.5538C42.6656 89.5807 43.4124 88.7901 44.3324 88.7901H66.0778ZM59.5511 81.4382C59.4797 83.3594 57.9943 84.9168 56.1696 84.9657H44.5941C44.3753 84.9658 44.1586 84.9203 43.9564 84.8317C43.7543 84.7431 43.5706 84.6132 43.4159 84.4494C43.2611 84.2856 43.1384 84.0911 43.0548 83.8771C42.9711 83.663 42.9281 83.4336 42.9282 83.202C42.9284 82.7343 43.104 82.2858 43.4164 81.9551C43.7287 81.6244 44.1523 81.4385 44.5941 81.4382H59.5511Z" fill="#F2BB88"/>
<path d="M13.5721 105.298H2.95668C1.33031 105.298 0 103.889 0 102.167V80.4812C0 78.7593 1.3301 77.3511 2.95668 77.3511H13.5721C15.0047 77.3511 16.1771 78.5914 16.1771 80.1091V102.54C16.1771 104.057 15.0047 105.298 13.5721 105.298Z" fill="#DCE6EB"/>
<path d="M17.7332 110H11.3076C9.87504 110 8.70264 108.759 8.70264 107.242V75.4061C8.70264 73.8893 9.87504 72.6481 11.3076 72.6481H17.7327C19.1653 72.6481 20.3377 73.8893 20.3377 75.4061V107.242C20.3377 108.759 19.1653 110 17.7327 110H17.7332Z" fill="#172C7A"/>
<path d="M20.337 103.259V107.243C20.337 108.758 19.1661 109.999 17.7337 109.999H11.3069C9.8743 109.999 8.70361 108.758 8.70361 107.243V75.4061C8.70361 73.8894 9.8743 72.647 11.3069 72.647H15.0701V100.5C15.0701 102.017 16.2425 103.259 17.6757 103.259H20.337Z" fill="#172C7A"/>
<path d="M103.071 42.758C99.7152 46.3121 95.6038 48.5742 91.2835 49.5454C83.7085 51.2503 75.4968 48.9882 69.6128 42.758C60.3746 32.9777 60.3746 17.1176 69.6128 7.33514C75.4965 1.10425 83.7085 -1.15514 91.2835 0.549925C95.604 1.52119 99.7152 3.78058 103.071 7.33469C112.31 17.1174 112.31 32.9766 103.071 42.7575V42.758Z" fill="#269AB1"/>
<path d="M103.071 42.758C99.7153 46.3121 95.6038 48.5742 91.2835 49.5455C86.963 48.5742 82.8518 46.3121 79.4972 42.758C70.2574 32.9777 70.2574 17.1177 79.4972 7.33516C82.8518 3.78083 86.963 1.52121 91.2835 0.550171C95.604 1.52144 99.7153 3.78083 103.071 7.33494C112.31 17.1177 112.31 32.9768 103.071 42.7577V42.758Z" fill="#44BFD7"/>
<path d="M99.6944 14.2949C99.0071 13.648 97.9539 13.711 97.342 14.4388L81.9943 32.6741L75.3457 24.727C75.0527 24.3767 74.6402 24.1641 74.1991 24.1357C73.758 24.1074 73.3243 24.2658 72.9934 24.576C72.6629 24.8862 72.4622 25.3228 72.4356 25.7897C72.4091 26.2565 72.5587 26.7154 72.8516 27.0655L79.5612 35.0863C79.8658 35.4498 80.2396 35.7411 80.6581 35.9409C81.0765 36.1407 81.5301 36.2447 81.9891 36.2459H81.9943C82.9198 36.2459 83.8035 35.8256 84.4205 35.0934L99.8295 16.7854C100.442 16.0586 100.381 14.9434 99.6944 14.2946V14.2949Z" fill="#DEF4F8"/>
</svg>
