<svg width="157" height="175" viewBox="0 0 157 175" fill="none" xmlns="http://www.w3.org/2000/svg">
<path d="M70.5345 28.9869C70.5345 28.9869 72.9425 18.9069 61.7845 14.8329L24.506 1.22144C17.7335 -1.25306 10.4255 1.72544 8.17845 7.87144L0.968452 27.6219C-1.27505 33.7714 2.39295 40.7574 9.16545 43.2319L46.444 56.8434C50.8085 58.4394 55.677 57.9284 59.128 55.3104C60.7525 54.0963 61.9843 52.4312 62.67 50.5224L70.5345 28.9869Z" fill="#D4E8F3"/>
<path d="M70.5342 28.9869C70.5342 28.9869 74.8742 27.8914 76.2812 31.0869C76.2812 31.0869 81.9792 30.1489 81.4017 36.5539L76.0502 51.1874C76.0502 51.1874 72.5502 56.3534 68.9522 51.9679C68.9522 51.9679 64.4652 53.1194 62.9392 49.7699L70.5342 28.9869Z" fill="#D4E8F3"/>
<path d="M88.4753 53.4414L92.4408 42.5739L69.8133 30.9644L63.5343 48.1599L88.4753 53.4414Z" fill="#D4E8F3"/>
<path d="M92.6643 48.8526C93.7614 45.8495 93.6706 43.057 92.4614 42.6152C91.2522 42.1734 89.3825 44.2497 88.2854 47.2527C87.1882 50.2557 87.279 53.0483 88.4882 53.4901C89.6974 53.9319 91.5671 51.8556 92.6643 48.8526Z" fill="#EAF6FD"/>
<path d="M92.0858 48.6412C93.037 46.0377 93.087 43.6635 92.1973 43.3385C91.3077 43.0135 89.8153 44.8606 88.8641 47.4642C87.9129 50.0678 87.8629 52.4419 88.7526 52.7669C89.6422 53.092 91.1346 51.2448 92.0858 48.6412Z" fill="#AEDBF4"/>
<path d="M77.674 33.873C78.465 33.873 79.256 34.223 79.1405 35.826C79.1405 35.826 77.618 39.368 76.2215 43.2565C75.2345 46.0005 74.545 49.0035 73.4705 50.6835C73.2451 51.049 72.8854 51.3115 72.4686 51.4149C72.0518 51.5183 71.6111 51.4542 71.241 51.2365C70.5795 50.813 70.191 49.8645 71.241 47.7645L75.826 35.2065C75.964 34.824 76.2142 34.4921 76.5439 34.2542C76.8737 34.0162 77.2675 33.8834 77.674 33.873ZM66.803 49.5145C66.012 49.5145 65.221 49.1645 65.3365 47.5615C65.3365 47.5615 68.4095 36.7675 71.003 32.704C71.2292 32.3343 71.5923 32.0691 72.0133 31.9662C72.4342 31.8632 72.8788 31.9309 73.25 32.1545C73.9115 32.578 74.3 33.523 73.25 35.6265L68.6615 48.181C68.525 48.5665 68.2737 48.9009 67.9415 49.1393C67.6092 49.3777 67.2119 49.5086 66.803 49.5145Z" fill="#DFF2FC"/>
<path d="M60.0935 88.6934C56.702 86.1559 42.569 74.7494 38.677 58.3624C38.677 58.3624 34.6485 54.8134 38.5475 52.5034C38.5475 52.5034 41.9355 50.9284 43.045 53.4869C43.4672 53.5868 43.8414 53.831 44.1027 54.1774C44.3641 54.5237 44.4963 54.9505 44.4765 55.3839C44.4819 55.8628 44.3687 56.3355 44.147 56.7599C43.9253 57.1843 43.602 57.5473 43.206 57.8164C43.206 57.8164 48.1235 74.1334 61.203 82.6349C61.203 82.6349 64.003 84.3149 64.003 87.4439C64.003 88.3924 63.6215 89.3689 62.1445 89.4004C61.4013 89.3991 60.6796 89.1504 60.0935 88.6934ZM146.218 98.9869C148.531 102.532 157.908 118.086 155.955 134.816C155.955 134.816 158.524 139.531 154.068 140.367C154.068 140.367 150.348 140.686 150.183 137.917C149.82 137.68 149.55 137.322 149.423 136.906C149.295 136.491 149.316 136.044 149.483 135.642C149.642 135.192 149.91 134.787 150.263 134.465C150.616 134.142 151.043 133.912 151.506 133.794C151.506 133.794 152.476 116.777 143.106 104.314C143.106 104.314 141.041 101.773 142.116 98.8329C142.441 97.9439 143.131 97.1529 144.531 97.6324C145.227 97.8865 145.82 98.3625 146.218 98.9869Z" fill="#BBE0F5"/>
<path d="M86.55 141.988C86.55 141.988 89.3045 163.635 88.923 169.872C88.923 169.872 80.0925 174.65 89.0455 174.65C89.0455 174.65 95.909 174.335 92.794 169.358C94.5861 160.671 95.1317 151.774 94.4145 142.933L86.55 141.988ZM115.397 141.988C115.397 141.988 112.642 163.635 113.024 169.872C113.024 169.872 121.854 174.65 112.901 174.65C112.901 174.65 106.038 174.335 109.153 169.358C107.361 160.671 106.814 151.774 107.529 142.933L115.397 141.988Z" fill="#C9CACA"/>
<path d="M101.46 149.282C126.359 149.282 146.544 129.097 146.544 104.198C146.544 79.2995 126.359 59.1149 101.46 59.1149C76.5611 59.1149 56.3765 79.2995 56.3765 104.198C56.3765 129.097 76.5611 149.282 101.46 149.282Z" fill="#EAF6FD"/>
<path d="M101.46 126.812C117.601 126.812 130.685 113.727 130.685 97.5869C130.685 81.4464 117.601 68.3619 101.46 68.3619C85.3195 68.3619 72.2351 81.4464 72.2351 97.5869C72.2351 113.727 85.3195 126.812 101.46 126.812Z" fill="#00A7EA"/>
<path d="M101.46 113.97C110.509 113.97 117.844 106.635 117.844 97.5869C117.844 88.5386 110.509 81.2034 101.46 81.2034C92.4118 81.2034 85.0767 88.5386 85.0767 97.5869C85.0767 106.635 92.4118 113.97 101.46 113.97Z" fill="#231815"/>
<path d="M91.7336 96.1274C97.1054 96.1274 101.46 91.7727 101.46 86.4009C101.46 81.0291 97.1054 76.6744 91.7336 76.6744C86.3618 76.6744 82.0071 81.0291 82.0071 86.4009C82.0071 91.7727 86.3618 96.1274 91.7336 96.1274Z" fill="white"/>
<path d="M141.797 124.355C138.051 131.845 132.293 138.145 125.169 142.547C118.045 146.95 109.835 149.282 101.46 149.282C93.0849 149.282 84.8753 146.95 77.7509 142.547C70.6265 138.145 64.8686 131.845 61.1224 124.355C61.1224 124.355 75.3989 131.796 101.46 131.782C127.521 131.768 141.797 124.355 141.797 124.355Z" fill="#F9CDAA"/>
<path d="M95.5345 55.1424C95.5345 58.4079 93.613 60.0669 91.24 60.0669C88.867 60.0669 86.942 58.4079 86.942 55.1424C86.942 52.7939 89.161 49.4864 90.4105 47.8134C90.5086 47.6869 90.6344 47.5846 90.7781 47.5142C90.9219 47.4438 91.0799 47.4072 91.24 47.4072C91.4 47.4072 91.558 47.4438 91.7018 47.5142C91.8455 47.5846 91.9713 47.6869 92.0695 47.8134C93.3155 49.4864 95.5345 52.7939 95.5345 55.1424Z" fill="#00A7EA"/>
<path d="M93.6586 54.2955C93.6586 55.594 92.8921 56.2554 91.9471 56.2554C91.0021 56.2554 90.2356 55.594 90.2356 54.2955C90.2356 53.3575 91.1176 52.0415 91.6356 51.373C91.6737 51.3216 91.7233 51.2798 91.7804 51.251C91.8375 51.2223 91.9006 51.2073 91.9646 51.2073C92.0286 51.2073 92.0916 51.2223 92.1488 51.251C92.2059 51.2798 92.2555 51.3216 92.2936 51.373C92.7766 52.0415 93.6586 53.3575 93.6586 54.2955Z" fill="#9CD7F5"/>
<path d="M111.407 120.802C115.205 120.802 118.284 117.723 118.284 113.925C118.284 110.127 115.205 107.047 111.407 107.047C107.609 107.047 104.529 110.127 104.529 113.925C104.529 117.723 107.609 120.802 111.407 120.802Z" fill="white"/>
<path d="M14.1808 45.0624L29.8083 3.15692L54.0773 12.0189L38.0578 53.7809L14.1808 45.0624Z" fill="#AAD7BD"/>
</svg>
