<svg width="98" height="110" viewBox="0 0 98 110" fill="none" xmlns="http://www.w3.org/2000/svg">
<path fill-rule="evenodd" clip-rule="evenodd" d="M48.6411 46.9853L58.6546 52.6704L78.9437 64.1892L90.1471 44.5081C95.9019 34.3992 92.3173 21.4168 82.1825 15.6625C72.0425 9.90707 59.0448 13.467 53.2833 23.5797L46.6432 35.252C44.72 42.9173 46.206 45.6061 48.6411 46.9853Z" fill="#4C64DC"/>
<path fill-rule="evenodd" clip-rule="evenodd" d="M81.5347 39.617L70.3316 59.2979L78.9434 64.1891L90.1467 44.508C95.9016 34.3991 92.3169 21.4167 82.1821 15.6624C80.7303 14.8381 79.1867 14.1874 77.5829 13.7236C84.5521 20.2591 86.4488 30.9831 81.5347 39.617Z" fill="#172C7A"/>
<path fill-rule="evenodd" clip-rule="evenodd" d="M78.9432 64.1894L70.3315 59.2982L59.1281 78.9793C56.1256 84.2565 51.1494 87.7509 45.6344 89.0646C44.9104 90.0498 44.1013 90.9695 43.2164 91.8132C42.7296 92.2803 42.2192 92.7224 41.6874 93.1375C51.3015 96.8376 62.5104 93.0552 67.7397 83.8704L78.9432 64.1894Z" fill="#DDDAEC"/>
<path fill-rule="evenodd" clip-rule="evenodd" d="M35.3172 26.5624C25.7065 24.1513 15.9696 29.9721 13.5638 39.5615C11.8664 46.327 14.2698 53.154 19.2097 57.4447C24.9651 61.9509 32.9419 63.8747 40.5859 59.0434C44.3264 56.6764 47.2021 52.9205 48.3633 48.2922C48.4729 47.8554 48.5656 47.4198 48.6412 46.9856C49.3617 42.8327 48.576 38.7221 46.6432 35.2524C44.3187 31.0705 40.3309 27.8203 35.3172 26.5624Z" fill="#FFD772"/>
<path fill-rule="evenodd" clip-rule="evenodd" d="M28.5423 76.4849L47.7453 85.5535C52.0456 76.4947 49.3986 65.3836 40.9527 59.3012L40.5853 59.0433C38.738 57.7728 36.7536 56.8272 34.7094 56.2094C29.5472 54.638 23.9934 55.1129 19.2091 57.4446C17.2737 58.3796 15.4712 59.6245 13.8668 61.162L28.5423 76.4849ZM43.2166 91.813L27.9552 78.7365L9.34199 67.4282C5.05477 76.4791 7.70306 87.5851 16.1398 93.6595C18.3832 95.2726 20.8391 96.3916 23.3669 97.0258L23.4034 97.035C29.7266 98.6159 36.5186 97.2023 41.6878 93.1374C42.2196 92.7222 42.7298 92.2802 43.2166 91.813Z" fill="#B1E4F9"/>
<path fill-rule="evenodd" clip-rule="evenodd" d="M39.4717 28.174C42.3916 33.4282 43.6177 50.2246 31.6943 55.53C32.7094 55.6796 33.7166 55.9048 34.7095 56.209C36.7538 56.827 38.738 57.7726 40.5853 59.0429C44.3259 56.6759 47.2016 52.92 48.3628 48.2917C48.4724 47.8549 48.5651 47.4194 48.6407 46.9851C49.3612 42.8323 48.5755 38.7217 46.6427 35.2519C45.0006 32.3028 42.5374 29.822 39.4717 28.174Z" fill="#FBBA58"/>
<path fill-rule="evenodd" clip-rule="evenodd" d="M43.2168 91.813L34.4661 85.5105C34.1081 86.114 33.7289 86.7047 33.3294 87.2815C30.3779 91.5602 26.5146 94.836 22.2595 96.7147C22.6243 96.8283 22.9971 96.9329 23.3671 97.0258L23.4036 97.0349C29.7268 98.6159 36.5188 97.2022 41.688 93.1374C42.2198 92.7222 42.73 92.2801 43.2168 91.813ZM37.6478 78.2827L47.7456 85.5532C52.0459 76.4945 49.3989 65.3833 40.953 59.301L40.5855 59.0431C39.4142 58.2331 38.1631 57.5451 36.8517 56.9898C37.3217 58.0951 37.7179 59.2304 38.0378 60.3882C39.4109 65.3372 39.5292 70.9608 38.1058 76.6343C37.9662 77.1909 37.8174 77.7393 37.6478 78.2827Z" fill="#75CEF8"/>
<path fill-rule="evenodd" clip-rule="evenodd" d="M47.7458 85.5532L28.212 71.4877L13.8672 61.1618C12.9323 62.0543 12.0811 63.0304 11.324 64.078C10.5646 65.1331 9.90146 66.2543 9.34242 67.4279L30.1672 82.4199L43.2172 91.813C44.1567 90.9172 45.0111 89.9362 45.7694 88.8825C46.5269 87.8344 47.1884 86.7201 47.7458 85.5532Z" fill="#75CEF8"/>
<path fill-rule="evenodd" clip-rule="evenodd" d="M34.4659 85.5107L43.2166 91.8131C44.1562 90.9174 45.0106 89.9363 45.7688 88.8826C46.5263 87.8345 47.1878 86.7203 47.7452 85.5534L37.6474 78.2829C36.8559 80.8866 35.7762 83.3132 34.4659 85.5107Z" fill="#60B7FF"/>
<path d="M35.4813 44.7206L35.4448 44.7115C35.0798 44.6199 34.7663 44.3872 34.573 44.0644C34.3797 43.7416 34.3225 43.3553 34.4141 42.9904C34.5056 42.6255 34.7384 42.3119 35.0611 42.1186C35.3839 41.9253 35.7702 41.8681 36.1351 41.9597L36.1716 41.9688C36.5365 42.0604 36.8501 42.2932 37.0434 42.6159C37.2367 42.9387 37.2939 43.325 37.2023 43.6899C37.1108 44.0548 36.878 44.3684 36.5553 44.5617C36.2325 44.755 35.8462 44.8122 35.4813 44.7206ZM29.7472 51.236L29.7107 51.2269C29.3458 51.1353 29.0322 50.9026 28.8389 50.5798C28.6456 50.257 28.5884 49.8707 28.68 49.5058C28.7715 49.1409 29.0043 48.8273 29.327 48.634C29.6498 48.4407 30.0361 48.3836 30.401 48.4751L30.4376 48.4843C30.8025 48.5758 31.1161 48.8086 31.3094 49.1313C31.5026 49.4541 31.5598 49.8404 31.4683 50.2053C31.3767 50.5702 31.1439 50.8838 30.8212 51.0771C30.4984 51.2704 30.1121 51.3276 29.7472 51.236ZM23.7397 43.8917L23.6978 43.8813C23.3329 43.7897 23.0193 43.5569 22.826 43.2342C22.6328 42.9114 22.5756 42.5251 22.6671 42.1602C22.7587 41.7953 22.9915 41.4817 23.3142 41.2884C23.637 41.0951 24.0233 41.0379 24.3882 41.1295L24.43 41.14C24.795 41.2315 25.1086 41.4643 25.3018 41.787C25.4951 42.1098 25.5523 42.4961 25.4607 42.861C25.3692 43.226 25.1364 43.5396 24.8137 43.7328C24.4909 43.9261 24.1046 43.9833 23.7397 43.8917ZM31.0221 36.2171L30.9856 36.2079C30.6207 36.1164 30.3071 35.8836 30.1138 35.5609C29.9205 35.2381 29.8634 34.8518 29.9549 34.4868C30.0465 34.1219 30.2792 33.8083 30.602 33.615C30.9248 33.4218 31.3111 33.3646 31.676 33.4561L31.7125 33.4653C32.0774 33.5569 32.391 33.7896 32.5843 34.1124C32.7776 34.4351 32.8348 34.8215 32.7432 35.1864C32.6517 35.5513 32.4189 35.8649 32.0961 36.0582C31.7734 36.2515 31.387 36.3086 31.0221 36.2171Z" fill="#FBBA58"/>
</svg>
