<svg width="79" height="97" viewBox="0 0 79 97" fill="none" xmlns="http://www.w3.org/2000/svg">
<path d="M23.1993 34.1969L5.41867 34.9863C3.20683 35.0845 1.4935 36.957 1.5917 39.1688L3.97853 92.9333C4.07672 95.1451 5.94941 96.8584 8.16107 96.7602L25.9418 95.9709C28.1536 95.8727 29.8669 94.0002 29.7687 91.7883L27.3819 38.0239C27.2839 35.812 25.4112 34.0987 23.1993 34.1969Z" fill="#78BAF6"/>
<path d="M23.1998 34.1971L18.3894 34.4106C20.6012 34.3125 22.4737 36.0258 22.5719 38.2376L24.9587 92.002C25.0569 94.2139 23.3434 96.0864 21.1318 96.1846L25.9422 95.971C28.154 95.8728 29.8674 94.0003 29.7692 91.7885L27.3823 38.0241C27.2841 35.8122 25.4114 34.0989 23.1998 34.1971Z" fill="#1885DA"/>
<path d="M9.6236 16.2188L17.3482 15.8758C17.7624 15.8575 18.1669 16.0043 18.4727 16.2842C18.7786 16.5641 18.9608 16.954 18.9792 17.3681L19.5264 29.6953L8.67876 30.1768L8.13151 17.8497C8.11312 17.4356 8.25999 17.0311 8.53981 16.7252C8.81962 16.4194 9.20947 16.2372 9.6236 16.2188Z" fill="#D8E6F0"/>
<path d="M17.3486 15.8759L14.1224 16.0192C14.5365 16.0008 14.941 16.1476 15.2469 16.4275C15.5527 16.7073 15.7349 17.0971 15.7533 17.5112L16.3006 29.8384L19.5267 29.6952L18.9795 17.3682C18.9611 16.954 18.7789 16.5641 18.4731 16.2843C18.1672 16.0044 17.7627 15.8575 17.3486 15.8759ZM6.75105 30.2625L21.4548 29.6098C21.579 29.6042 21.7032 29.6232 21.82 29.6657C21.9369 29.7081 22.0443 29.7732 22.1361 29.8572C22.2278 29.9411 22.3022 30.0423 22.3548 30.155C22.4074 30.2677 22.4374 30.3896 22.4429 30.5139L22.6076 34.2237L6.01165 34.9604L5.84695 31.2506C5.83581 30.9997 5.92481 30.7546 6.09436 30.5693C6.26391 30.384 6.50013 30.2737 6.75105 30.2625Z" fill="#AAC0D1"/>
<path d="M21.4547 29.6097L17.0031 29.8074C17.1273 29.8019 17.2514 29.8209 17.3683 29.8633C17.4852 29.9058 17.5926 29.9708 17.6844 30.0548C17.7761 30.1387 17.8505 30.2399 17.9031 30.3526C17.9557 30.4653 17.9857 30.5872 17.9912 30.7115L18.1559 34.4213L22.6075 34.2237L22.4429 30.5138C22.4317 30.2629 22.3213 30.0268 22.136 29.8572C21.9507 29.6877 21.7057 29.5987 21.4547 29.6097Z" fill="#8DA5B5"/>
<path d="M13.7913 22.925C13.4166 22.9417 13.0506 22.8088 12.7739 22.5556C12.4972 22.3024 12.3324 21.9497 12.3158 21.575L12.3103 21.4523C12.2937 21.0776 12.4266 20.7117 12.6798 20.435C12.933 20.1583 13.2857 19.9935 13.6604 19.9768C14.0351 19.9602 14.401 20.0931 14.6777 20.3463C14.9544 20.5995 15.1192 20.9522 15.1359 21.3269L15.1413 21.4496C15.1496 21.6351 15.1212 21.8204 15.0578 21.995C14.9944 22.1696 14.8973 22.3299 14.7719 22.467C14.6466 22.604 14.4954 22.7149 14.3272 22.7935C14.1589 22.8721 13.9768 22.9168 13.7913 22.925Z" fill="#202D4C"/>
<path d="M2.08497 50.27L27.8753 49.1251L28.6077 65.6217L2.81732 66.7667L2.08497 50.27Z" fill="#D8E6F0"/>
<path d="M23.0646 49.3384L27.875 49.1248L28.6074 65.6215L23.7969 65.835L23.0646 49.3384Z" fill="#AAC0D1"/>
<path d="M72.2416 31.2374L74.7887 88.6106C74.9157 91.4723 72.6988 93.8952 69.8371 94.0222L40.2718 95.3348C37.4101 95.4618 34.9872 93.2449 34.8601 90.3832L32.3131 33.01C32.1184 28.6255 35.515 24.9135 39.8994 24.7189L63.9504 23.6511C68.335 23.4565 72.047 26.8531 72.2416 31.2374Z" fill="#FEE9A1"/>
<path d="M63.9504 23.651L59.0701 23.8677C63.4547 23.673 67.1666 27.0696 67.3613 31.454L69.9083 88.8271C70.0354 91.6888 67.8184 94.1117 64.9567 94.2388L69.837 94.0221C72.6987 93.8951 74.9156 91.4722 74.7886 88.6105L72.2416 31.2373C72.0469 26.853 68.3349 23.4564 63.9504 23.651Z" fill="#FDCA67"/>
<path d="M62.019 18.7153L62.2415 23.7273L41.6091 24.6432L41.3866 19.6313C41.3739 19.3428 41.4762 19.061 41.6711 18.848C41.8661 18.6349 42.1377 18.508 42.4261 18.4952L60.8829 17.6758C61.1713 17.663 61.4531 17.7654 61.6661 17.9603C61.8792 18.1553 62.0061 18.4268 62.019 18.7153Z" fill="#D8E6F0"/>
<path d="M60.8824 17.6757L56.9737 17.8492C57.2622 17.8364 57.5439 17.9388 57.757 18.1337C57.97 18.3287 58.0969 18.6002 58.1098 18.8887L58.3323 23.9007L62.241 23.7271L62.0185 18.7152C62.0057 18.4267 61.8788 18.1551 61.6657 17.9602C61.4527 17.7653 61.1709 17.6629 60.8824 17.6757ZM46.2309 8.646L56.2195 8.20256L56.6484 17.8636L46.6598 18.3071L46.2309 8.646Z" fill="#AAC0D1"/>
<path d="M57.8632 0.746499L41.0735 1.49187C40.9432 1.49765 40.8206 1.55494 40.7325 1.65114C40.6445 1.74734 40.5983 1.87456 40.6041 2.00483L40.8876 8.39094C40.8934 8.5212 40.9507 8.64383 41.0469 8.73185C41.1431 8.81987 41.2703 8.86607 41.4006 8.86029L74.2641 7.40134C75.0182 7.36786 75.241 6.3576 74.5713 6.0099L69.2939 3.26965C65.7709 1.44069 61.8288 0.570526 57.8632 0.746499Z" fill="#D8E6F0"/>
<path d="M54.1369 74.0056C59.4048 73.7717 63.4857 69.3117 63.2518 64.0437L62.8048 53.9732C62.5709 48.7053 58.1109 44.6244 52.8429 44.8583C47.575 45.0922 43.4941 49.5522 43.728 54.8201L44.1751 64.8906C44.4089 70.1586 48.869 74.2394 54.1369 74.0056Z" fill="#A49CF5"/>
<path d="M19.9761 69.6543L45.3856 68.5263C50.0749 68.3181 54.0453 71.9507 54.2535 76.6403L54.8754 90.6494C54.9742 92.8745 53.2504 94.7585 51.0252 94.8573L16.6919 96.3815C14.4667 96.4803 12.5828 94.7565 12.484 92.5313L11.8621 78.5222C11.6539 73.8329 15.2865 69.8625 19.9761 69.6543Z" fill="#D8E6F0"/>
<path d="M45.3856 68.5264L40.8944 68.7258C45.5838 68.5176 49.5542 72.1503 49.7623 76.8399L50.3843 90.8489C50.483 93.0741 48.7592 94.9581 46.5341 95.0569L51.0252 94.8575C53.2504 94.7587 54.9742 92.8747 54.8754 90.6495L54.2535 76.6405C54.0453 71.9509 50.0749 68.3183 45.3856 68.5264Z" fill="#AAC0D1"/>
<path d="M45.3856 68.5263L19.9761 69.6543C15.2867 69.8625 11.6539 73.8327 11.8621 78.5222L11.9569 80.6591L54.3484 78.7772L54.2535 76.6403C54.0453 71.9509 50.0749 68.3181 45.3856 68.5263Z" fill="#FF7870"/>
<path d="M45.3856 68.5264L40.8944 68.7258C45.5838 68.5176 49.5542 72.1503 49.7623 76.8399L49.8572 78.9767L54.3484 78.7773L54.2535 76.6405C54.1987 75.3659 53.8566 74.1202 53.2528 72.9964C51.755 70.2113 48.756 68.3768 45.3856 68.5264Z" fill="#D7352E"/>
</svg>
