<svg width="402" height="59" viewBox="0 0 402 59" fill="none" xmlns="http://www.w3.org/2000/svg">
<path d="M38.0169 3.59778H40.0169V1.59778H38.0169V3.59778ZM38.0169 10.8775V12.8775H40.0169V10.8775H38.0169ZM23.5358 10.8775V8.8775H21.5358V10.8775H23.5358ZM23.5358 58V60H25.5358V58H23.5358ZM14.6122 58H12.6122V60H14.6122V58ZM14.6122 10.8775H16.6122V8.8775H14.6122V10.8775ZM0.0527864 10.8775H-1.94721V12.8775H0.0527864V10.8775ZM0.0527864 3.59778V1.59778H-1.94721V3.59778H0.0527864ZM36.0169 3.59778V10.8775H40.0169V3.59778H36.0169ZM38.0169 8.8775H23.5358V12.8775H38.0169V8.8775ZM21.5358 10.8775V58H25.5358V10.8775H21.5358ZM23.5358 56H14.6122V60H23.5358V56ZM16.6122 58V10.8775H12.6122V58H16.6122ZM14.6122 8.8775H0.0527864V12.8775H14.6122V8.8775ZM2.05279 10.8775V3.59778H-1.94721V10.8775H2.05279ZM0.0527864 5.59778H38.0169V1.59778H0.0527864V5.59778ZM78.13 16.2786L77.1648 18.0303L77.1722 18.0344L77.1797 18.0384L78.13 16.2786ZM84.2356 22.5407L82.4672 23.475L82.474 23.4879L82.481 23.5007L84.2356 22.5407ZM86.5056 58V60H88.5056V58H86.5056ZM77.6603 58H75.6603V60H77.6603V58ZM74.7641 25.0456L73.2959 26.4036L73.3045 26.4129L73.3132 26.4221L74.7641 25.0456ZM58.874 25.0456L57.424 23.6681L57.423 23.669L58.874 25.0456ZM55.9777 58V60H57.9777V58H55.9777ZM47.0542 58H45.0542V60H47.0542V58ZM47.0542 0.0753345V-1.92467H45.0542V0.0753345H47.0542ZM55.9777 0.0753345H57.9777V-1.92467H55.9777V0.0753345ZM55.9777 19.8793H53.9777V25.4278L57.5178 21.1553L55.9777 19.8793ZM61.6919 15.6524L60.914 13.8099L60.9065 13.813L60.899 13.8162L61.6919 15.6524ZM69.363 16.1651C72.3564 16.1651 74.9391 16.8039 77.1648 18.0303L79.0952 14.5269C76.2068 12.9354 72.9449 12.1651 69.363 12.1651V16.1651ZM77.1797 18.0384C79.4209 19.2486 81.1803 21.039 82.4672 23.475L86.004 21.6065C84.3685 18.5108 82.0575 16.1265 79.0803 14.5188L77.1797 18.0384ZM82.481 23.5007C83.7989 25.9093 84.5056 28.902 84.5056 32.5601H88.5056C88.5056 28.3906 87.6989 24.7037 85.9901 21.5807L82.481 23.5007ZM84.5056 32.5601V58H88.5056V32.5601H84.5056ZM86.5056 56H77.6603V60H86.5056V56ZM79.6603 58V33.8908H75.6603V58H79.6603ZM79.6603 33.8908C79.6603 29.7124 78.6132 26.1968 76.215 23.669L73.3132 26.4221C74.7767 27.9647 75.6603 30.346 75.6603 33.8908H79.6603ZM76.2323 23.6875C73.8564 21.1189 70.6493 19.9145 66.8582 19.9145V23.9145C69.7467 23.9145 71.8102 24.7974 73.2959 26.4036L76.2323 23.6875ZM66.8582 19.9145C63.0658 19.9145 59.8457 21.1188 57.424 23.6681L60.324 26.4231C61.8682 24.7975 63.9709 23.9145 66.8582 23.9145V19.9145ZM57.423 23.669C55.0249 26.1968 53.9777 29.7124 53.9777 33.8908H57.9777C57.9777 30.346 58.8614 27.9647 60.3249 26.4221L57.423 23.669ZM53.9777 33.8908V58H57.9777V33.8908H53.9777ZM55.9777 56H47.0542V60H55.9777V56ZM49.0542 58V0.0753345H45.0542V58H49.0542ZM47.0542 2.07533H55.9777V-1.92467H47.0542V2.07533ZM53.9777 0.0753345V19.8793H57.9777V0.0753345H53.9777ZM57.5178 21.1553C58.8188 19.5852 60.4622 18.3619 62.4848 17.4885L60.899 13.8162C58.3294 14.9259 56.1634 16.5205 54.4377 18.6033L57.5178 21.1553ZM62.4699 17.4949C64.5517 16.6159 66.8416 16.1651 69.363 16.1651V12.1651C66.3529 12.1651 63.5287 12.7059 60.914 13.8099L62.4699 17.4949ZM97.575 24.7325L95.8203 23.7728L95.8145 23.7835L95.8088 23.7941L97.575 24.7325ZM104.933 16.9831L105.953 18.7032L105.962 18.6981L104.933 16.9831ZM124.111 16.2003L123.158 17.9589L123.18 17.9706L123.202 17.9818L124.111 16.2003ZM130.216 21.1317L128.626 22.3451L132.216 27.0491V21.1317H130.216ZM130.216 14.8696V12.8696H128.216V14.8696H130.216ZM139.218 14.8696H141.218V12.8696H139.218V14.8696ZM139.218 58V60H141.218V58H139.218ZM130.216 58H128.216V60H130.216V58ZM130.216 51.5813H132.216V45.5399L128.611 50.3879L130.216 51.5813ZM124.032 56.6693L123.11 54.8949L124.032 56.6693ZM104.933 55.8865L103.87 57.5809L103.881 57.5874L103.891 57.5938L104.933 55.8865ZM97.575 47.9023L95.7971 48.8182L95.8054 48.8345L95.8141 48.8505L97.575 47.9023ZM128.338 28.6463L126.583 29.6069L126.592 29.6228L126.601 29.6386L128.338 28.6463ZM123.563 23.6366L122.561 25.3674L123.563 23.6366ZM110.725 23.6366L111.693 25.3871L111.71 25.3774L111.728 25.3674L110.725 23.6366ZM105.872 28.568L104.136 27.5757L104.132 27.5826L104.128 27.5895L105.872 28.568ZM105.872 44.0668L104.109 45.0101L104.117 45.0259L104.126 45.0415L105.872 44.0668ZM110.725 49.233L109.69 50.944L109.716 50.9599L109.743 50.975L110.725 49.233ZM123.563 49.233L124.565 50.9639L123.563 49.233ZM128.338 44.2233L126.591 43.2486L126.587 43.2556L126.583 43.2627L128.338 44.2233ZM96.9136 36.2391C96.9136 32.1871 97.7415 28.6821 99.3412 25.6708L95.8088 23.7941C93.86 27.4624 92.9136 31.6286 92.9136 36.2391H96.9136ZM99.3297 25.6921C100.995 22.6463 103.203 20.3349 105.953 18.7032L103.913 15.263C100.505 17.2841 97.8075 20.139 95.8203 23.7728L99.3297 25.6921ZM105.962 18.6981C108.773 17.0115 111.86 16.1651 115.266 16.1651V12.1651C111.157 12.1651 107.355 13.1974 103.904 15.2681L105.962 18.6981ZM115.266 16.1651C118.388 16.1651 120.997 16.7882 123.158 17.9589L125.063 14.4417C122.215 12.8988 118.927 12.1651 115.266 12.1651V16.1651ZM123.202 17.9818C125.532 19.1709 127.32 20.6335 128.626 22.3451L131.806 19.9184C130.086 17.664 127.803 15.8389 125.02 14.4188L123.202 17.9818ZM132.216 21.1317V14.8696H128.216V21.1317H132.216ZM130.216 16.8696H139.218V12.8696H130.216V16.8696ZM137.218 14.8696V58H141.218V14.8696H137.218ZM139.218 56H130.216V60H139.218V56ZM132.216 58V51.5813H128.216V58H132.216ZM128.611 50.3879C127.305 52.1444 125.493 53.6554 123.11 54.8949L124.955 58.4437C127.79 56.9696 130.101 55.0886 131.821 52.7747L128.611 50.3879ZM123.11 54.8949C120.822 56.0844 118.172 56.7045 115.109 56.7045V60.7045C118.726 60.7045 122.024 59.9678 124.955 58.4437L123.11 54.8949ZM115.109 56.7045C111.761 56.7045 108.731 55.861 105.975 54.1793L103.891 57.5938C107.293 59.6693 111.047 60.7045 115.109 60.7045V56.7045ZM105.996 54.1922C103.228 52.4565 101.008 50.0601 99.3359 46.9541L95.8141 48.8505C97.7945 52.5285 100.48 55.4549 103.87 57.5809L105.996 54.1922ZM99.353 46.9864C97.7411 43.8575 96.9136 40.2899 96.9136 36.2391H92.9136C92.9136 40.851 93.8604 45.0588 95.7971 48.8182L99.353 46.9864ZM132.216 36.3957C132.216 33.1355 131.528 30.1979 130.074 27.654L126.601 29.6386C127.652 31.4782 128.216 33.7068 128.216 36.3957H132.216ZM130.092 27.6857C128.732 25.2033 126.893 23.2534 124.565 21.9057L122.561 25.3674C124.199 26.3159 125.542 27.7058 126.583 29.6069L130.092 27.6857ZM124.565 21.9057C122.277 20.581 119.791 19.9145 117.144 19.9145V23.9145C119.089 23.9145 120.883 24.3961 122.561 25.3674L124.565 21.9057ZM117.144 19.9145C114.497 19.9145 112.012 20.581 109.723 21.9057L111.728 25.3674C113.405 24.3961 115.199 23.9145 117.144 23.9145V19.9145ZM109.758 21.8861C107.418 23.1791 105.549 25.1029 104.136 27.5757L107.609 29.5603C108.701 27.6496 110.067 26.2858 111.693 25.3871L109.758 21.8861ZM104.128 27.5895C102.728 30.0854 102.072 32.9944 102.072 36.2391H106.072C106.072 33.5348 106.616 31.3298 107.617 29.5465L104.128 27.5895ZM102.072 36.2391C102.072 39.487 102.729 42.4305 104.109 45.0101L107.636 43.1235C106.615 41.2152 106.072 38.9403 106.072 36.2391H102.072ZM104.126 45.0415C105.529 47.5547 107.379 49.5452 109.69 50.944L111.761 47.522C110.106 46.5204 108.721 45.0667 107.619 43.092L104.126 45.0415ZM109.743 50.975C112.065 52.2849 114.541 52.9551 117.144 52.9551V48.9551C115.259 48.9551 113.456 48.4772 111.708 47.4911L109.743 50.975ZM117.144 52.9551C119.791 52.9551 122.277 52.2886 124.565 50.9639L122.561 47.5022C120.883 48.4735 119.089 48.9551 117.144 48.9551V52.9551ZM124.565 50.9639C126.893 49.6162 128.732 47.6663 130.092 45.184L126.583 43.2627C125.542 45.1638 124.199 46.5537 122.561 47.5022L124.565 50.9639ZM130.084 45.1981C131.527 42.6121 132.216 39.6572 132.216 36.3957H128.216C128.216 39.0832 127.653 41.3466 126.591 43.2486L130.084 45.1981ZM181.78 16.2786L180.844 18.0462L180.851 18.0499L180.858 18.0536L181.78 16.2786ZM188.12 22.5407L186.366 23.5007V23.5007L188.12 22.5407ZM190.39 58V60H192.39V58H190.39ZM181.545 58H179.545V60H181.545V58ZM178.649 25.0456L177.181 26.4036L177.189 26.4129L177.198 26.4221L178.649 25.0456ZM162.759 25.0456L161.309 23.6681L161.308 23.669L162.759 25.0456ZM159.862 58V60H161.862V58H159.862ZM150.939 58H148.939V60H150.939V58ZM150.939 14.8696V12.8696H148.939V14.8696H150.939ZM159.862 14.8696H161.862V12.8696H159.862V14.8696ZM159.862 19.801H157.862V25.3757L161.406 21.0724L159.862 19.801ZM165.42 15.6524L164.627 13.8162L164.619 13.8196L164.612 13.823L165.42 15.6524ZM172.7 16.1651C175.807 16.1651 178.506 16.8082 180.844 18.0462L182.716 14.511C179.731 12.931 176.376 12.1651 172.7 12.1651V16.1651ZM180.858 18.0536C183.208 19.2736 185.037 21.0718 186.366 23.5007L189.875 21.5807C188.177 18.4781 185.779 16.1015 182.701 14.5036L180.858 18.0536ZM186.366 23.5007C187.684 25.9093 188.39 28.902 188.39 32.5601H192.39C192.39 28.3906 191.584 24.7037 189.875 21.5807L186.366 23.5007ZM188.39 32.5601V58H192.39V32.5601H188.39ZM190.39 56H181.545V60H190.39V56ZM183.545 58V33.8908H179.545V58H183.545ZM183.545 33.8908C183.545 29.7124 182.498 26.1968 180.1 23.669L177.198 26.4221C178.661 27.9647 179.545 30.346 179.545 33.8908H183.545ZM180.117 23.6875C177.741 21.1189 174.534 19.9145 170.743 19.9145V23.9145C173.631 23.9145 175.695 24.7974 177.181 26.4036L180.117 23.6875ZM170.743 19.9145C166.95 19.9145 163.73 21.1188 161.309 23.6681L164.209 26.4231C165.753 24.7975 167.856 23.9145 170.743 23.9145V19.9145ZM161.308 23.669C158.91 26.1968 157.862 29.7124 157.862 33.8908H161.862C161.862 30.346 162.746 27.9647 164.21 26.4221L161.308 23.669ZM157.862 33.8908V58H161.862V33.8908H157.862ZM159.862 56H150.939V60H159.862V56ZM152.939 58V14.8696H148.939V58H152.939ZM150.939 16.8696H159.862V12.8696H150.939V16.8696ZM157.862 14.8696V19.801H161.862V14.8696H157.862ZM161.406 21.0724C162.656 19.5551 164.25 18.3559 166.228 17.4817L164.612 13.823C162.102 14.9319 159.991 16.4985 158.318 18.5296L161.406 21.0724ZM166.213 17.4885C168.253 16.6076 170.409 16.1651 172.7 16.1651V12.1651C169.876 12.1651 167.179 12.7142 164.627 13.8162L166.213 17.4885ZM218.837 36.4739L217.365 35.1196L216.117 36.4764L217.368 37.8309L218.837 36.4739ZM238.719 58V60H243.289L240.188 56.643L238.719 58ZM226.665 58L225.149 59.3047L225.747 60H226.665V58ZM210.696 39.4484L212.212 38.1437L208.696 34.0592V39.4484H210.696ZM210.696 58V60H212.696V58H210.696ZM201.773 58H199.773V60H201.773V58ZM201.773 0.0753345V-1.92467H199.773V0.0753345H201.773ZM210.696 0.0753345H212.696V-1.92467H210.696V0.0753345ZM210.696 33.7343H208.696V39.276L212.235 35.0115L210.696 33.7343ZM226.352 14.8696V12.8696H225.412L224.813 13.5924L226.352 14.8696ZM238.719 14.8696L240.191 16.224L243.278 12.8696H238.719V14.8696ZM217.368 37.8309L237.25 59.357L240.188 56.643L220.306 35.1169L217.368 37.8309ZM238.719 56H226.665V60H238.719V56ZM228.18 56.6953L212.212 38.1437L209.18 40.7532L225.149 59.3047L228.18 56.6953ZM208.696 39.4484V58H212.696V39.4484H208.696ZM210.696 56H201.773V60H210.696V56ZM203.773 58V0.0753345H199.773V58H203.773ZM201.773 2.07533H210.696V-1.92467H201.773V2.07533ZM208.696 0.0753345V33.7343H212.696V0.0753345H208.696ZM212.235 35.0115L227.891 16.1468L224.813 13.5924L209.157 32.457L212.235 35.0115ZM226.352 16.8696H238.719V12.8696H226.352V16.8696ZM237.248 13.5153L217.365 35.1196L220.309 37.8283L240.191 16.224L237.248 13.5153ZM305.761 3.59778L307.536 4.51935L309.053 1.59778H305.761V3.59778ZM287.758 38.2743L285.983 37.3527L285.758 37.7861V38.2743H287.758ZM287.758 58V60H289.758V58H287.758ZM278.834 58H276.834V60H278.834V58ZM278.834 38.2743H280.834V37.7842L280.608 37.3496L278.834 38.2743ZM260.752 3.59778V1.59778H257.454L258.979 4.5225L260.752 3.59778ZM270.693 3.59778L272.502 2.74389L271.961 1.59778H270.693V3.59778ZM283.296 30.2901L281.487 31.144L283.296 34.9745L285.105 31.144L283.296 30.2901ZM295.898 3.59778V1.59778H294.631L294.09 2.74389L295.898 3.59778ZM303.986 2.67621L285.983 37.3527L289.533 39.1959L307.536 4.51935L303.986 2.67621ZM285.758 38.2743V58H289.758V38.2743H285.758ZM287.758 56H278.834V60H287.758V56ZM280.834 58V38.2743H276.834V58H280.834ZM280.608 37.3496L262.526 2.67306L258.979 4.5225L277.061 39.199L280.608 37.3496ZM260.752 5.59778H270.693V1.59778H260.752V5.59778ZM268.885 4.45167L281.487 31.144L285.105 29.4362L272.502 2.74389L268.885 4.45167ZM285.105 31.144L297.707 4.45167L294.09 2.74389L281.487 29.4362L285.105 31.144ZM295.898 5.59778H305.761V1.59778H295.898V5.59778ZM320.514 55.9648L319.522 57.7013L319.532 57.7073L319.543 57.7131L320.514 55.9648ZM312.765 48.1372L311.015 49.1062L311.021 49.1177L312.765 48.1372ZM320.749 16.9048L319.789 15.1501L320.749 16.9048ZM343.136 16.9048L344.096 15.1501L343.136 16.9048ZM351.042 24.7325L349.304 25.7219L351.042 24.7325ZM350.964 48.0589L349.237 47.0495L350.964 48.0589ZM342.823 55.9648L343.771 57.7258L343.781 57.7206L342.823 55.9648ZM337.97 49.3113L337.021 47.5504L337.012 47.5555L337.002 47.5608L337.97 49.3113ZM342.901 44.3799L341.165 43.3876L342.901 44.3799ZM342.979 28.4897L341.225 29.4504L341.23 29.4593L341.235 29.4682L342.979 28.4897ZM338.205 23.5583L337.237 25.3088L338.205 23.5583ZM325.367 23.5583L324.4 21.8078L324.39 21.8133L324.38 21.8189L325.367 23.5583ZM320.749 28.4897L322.511 29.4354L322.516 29.4266L322.521 29.4177L320.749 28.4897ZM322.549 47.1978L321.076 48.5506L321.091 48.5663L321.105 48.5816L322.549 47.1978ZM331.551 56.7045C327.792 56.7045 324.452 55.8645 321.485 54.2165L319.543 57.7131C323.152 59.7181 327.169 60.7045 331.551 60.7045V56.7045ZM321.506 54.2283C318.537 52.5314 316.211 50.1852 314.508 47.1566L311.021 49.1177C313.075 52.7687 315.916 55.641 319.522 57.7013L321.506 54.2283ZM314.514 47.1682C312.822 44.1131 311.947 40.5417 311.947 36.3957H307.947C307.947 41.1209 308.95 45.3772 311.015 49.1061L314.514 47.1682ZM311.947 36.3957C311.947 32.3156 312.842 28.7766 314.581 25.7219L311.105 23.7431C308.982 27.4723 307.947 31.7088 307.947 36.3957H311.947ZM314.581 25.7219C316.333 22.6436 318.703 20.3033 321.708 18.6595L319.789 15.1501C316.115 17.1592 313.214 20.0373 311.105 23.7431L314.581 25.7219ZM321.708 18.6595C324.73 17.0072 328.127 16.1651 331.942 16.1651V12.1651C327.513 12.1651 323.447 13.1495 319.789 15.1501L321.708 18.6595ZM331.942 16.1651C335.758 16.1651 339.155 17.0072 342.176 18.6595L344.096 15.1501C340.437 13.1495 336.372 12.1651 331.942 12.1651V16.1651ZM342.176 18.6595C345.182 20.3033 347.552 22.6436 349.304 25.7219L352.78 23.7431C350.671 20.0373 347.769 17.1592 344.096 15.1501L342.176 18.6595ZM349.304 25.7219C351.043 28.7766 351.938 32.3156 351.938 36.3957H355.938C355.938 31.7088 354.903 27.4723 352.78 23.7431L349.304 25.7219ZM351.938 36.3957C351.938 40.4664 351.021 43.9981 349.237 47.0495L352.69 49.0683C354.872 45.3357 355.938 41.0919 355.938 36.3957H351.938ZM349.237 47.0495C347.437 50.1279 344.989 52.5049 341.865 54.209L343.781 57.7206C347.545 55.6675 350.524 52.7739 352.69 49.0683L349.237 47.0495ZM341.875 54.2039C338.794 55.8625 335.366 56.7045 331.551 56.7045V60.7045C335.981 60.7045 340.067 59.7201 343.771 57.7258L341.875 54.2039ZM331.551 52.9551C334.181 52.9551 336.654 52.3236 338.937 51.0618L337.002 47.5608C335.32 48.4907 333.514 48.9551 331.551 48.9551V52.9551ZM338.918 51.0722C341.313 49.7827 343.217 47.8578 344.638 45.3722L341.165 43.3876C340.08 45.2854 338.697 46.6481 337.021 47.5504L338.918 51.0722ZM344.638 45.3722C346.1 42.8137 346.78 39.792 346.78 36.3957H342.78C342.78 39.2615 342.207 41.5626 341.165 43.3876L344.638 45.3722ZM346.78 36.3957C346.78 33.0146 346.132 30.0213 344.724 27.5112L341.235 29.4682C342.228 31.2373 342.78 33.5146 342.78 36.3957H346.78ZM344.734 27.5291C343.371 25.0403 341.52 23.1057 339.172 21.8078L337.237 25.3088C338.855 26.2027 340.188 27.5557 341.225 29.4504L344.734 27.5291ZM339.172 21.8078C336.889 20.546 334.416 19.9145 331.786 19.9145V23.9145C333.748 23.9145 335.554 24.3789 337.237 25.3088L339.172 21.8078ZM331.786 19.9145C329.156 19.9145 326.683 20.546 324.4 21.8078L326.335 25.3088C328.017 24.3789 329.823 23.9145 331.786 23.9145V19.9145ZM324.38 21.8189C322.078 23.1256 320.282 25.0701 318.977 27.5617L322.521 29.4177C323.511 27.5259 324.795 26.1828 326.354 25.2977L324.38 21.8189ZM318.987 27.5441C317.644 30.0465 317.027 33.0275 317.027 36.3957H321.027C321.027 33.5017 321.558 31.2121 322.511 29.4354L318.987 27.5441ZM317.027 36.3957C317.027 41.3687 318.288 45.5147 321.076 48.5506L324.022 45.845C322.114 43.7669 321.027 40.7115 321.027 36.3957H317.027ZM321.105 48.5816C323.899 51.4966 327.428 52.9551 331.551 52.9551V48.9551C328.472 48.9551 326.001 47.9088 323.993 45.814L321.105 48.5816ZM401.82 14.8696H403.82V12.8696H401.82V14.8696ZM401.82 58V60H403.82V58H401.82ZM392.896 58H390.896V60H392.896V58ZM392.896 52.912H394.896V47.1775L391.33 51.6683L392.896 52.912ZM387.338 57.139L388.147 58.9683L388.156 58.9641L388.166 58.9597L387.338 57.139ZM370.979 56.5127L370.043 58.2803L370.05 58.2841L370.057 58.2877L370.979 56.5127ZM364.638 50.2506L362.884 51.2106L362.891 51.2233L362.898 51.2358L364.638 50.2506ZM362.368 14.8696V12.8696H360.368V14.8696H362.368ZM371.213 14.8696H373.213V12.8696H371.213V14.8696ZM374.11 47.824L372.641 49.1821L372.65 49.1914L372.659 49.2006L374.11 47.824ZM389.921 47.824L388.471 46.4465L388.471 46.4475L389.921 47.824ZM392.896 14.8696V12.8696H390.896V14.8696H392.896ZM399.82 14.8696V58H403.82V14.8696H399.82ZM401.82 56H392.896V60H401.82V56ZM394.896 58V52.912H390.896V58H394.896ZM391.33 51.6683C390.139 53.1674 388.552 54.3906 386.511 55.3182L388.166 58.9597C390.717 57.7999 392.835 56.2052 394.462 54.1558L391.33 51.6683ZM386.53 55.3096C384.552 56.1838 382.428 56.6262 380.137 56.6262V60.6262C382.96 60.6262 385.637 60.0771 388.147 58.9683L386.53 55.3096ZM380.137 56.6262C377.03 56.6262 374.299 55.9833 371.9 54.7378L370.057 58.2877C373.085 59.8601 376.46 60.6262 380.137 60.6262V56.6262ZM371.914 54.7452C369.609 53.5249 367.767 51.7182 366.379 49.2654L362.898 51.2358C364.64 54.3145 367.025 56.6826 370.043 58.2803L371.914 54.7452ZM366.393 49.2906C365.075 46.8821 364.368 43.8894 364.368 40.2312H360.368C360.368 44.4007 361.175 48.0876 362.884 51.2106L366.393 49.2906ZM364.368 40.2312V14.8696H360.368V40.2312H364.368ZM362.368 16.8696H371.213V12.8696H362.368V16.8696ZM369.213 14.8696V38.9005H373.213V14.8696H369.213ZM369.213 38.9005C369.213 43.0828 370.262 46.6098 372.641 49.1821L375.578 46.466C374.096 44.8635 373.213 42.4416 373.213 38.9005H369.213ZM372.659 49.2006C375.039 51.709 378.24 52.8768 382.016 52.8768V48.8768C379.111 48.8768 377.042 48.0094 375.561 46.4475L372.659 49.2006ZM382.016 52.8768C385.791 52.8768 388.993 51.709 391.372 49.2006L388.471 46.4475C386.989 48.0094 384.92 48.8768 382.016 48.8768V52.8768ZM391.371 49.2015C393.814 46.6303 394.896 43.0959 394.896 38.9005H390.896C390.896 42.4284 389.995 44.843 388.471 46.4465L391.371 49.2015ZM394.896 38.9005V14.8696H390.896V38.9005H394.896ZM392.896 16.8696H401.82V12.8696H392.896V16.8696Z" fill="#4C64DC"/>
</svg>
