<svg width="432" height="432" viewBox="0 0 432 432" fill="none" xmlns="http://www.w3.org/2000/svg">
<path d="M347.147 230.109C348.166 230.697 348.175 231.647 347.147 232.243C346.119 232.839 344.494 232.839 343.466 232.243L313.891 215.171C312.811 214.548 312.855 213.624 313.883 213.036C314.911 212.449 316.492 212.414 317.572 213.036L347.147 230.109ZM108.519 351.648C112.061 353.696 112.13 357.048 108.562 359.122C104.985 361.195 99.1528 361.195 95.6104 359.148C92.0162 357.074 91.9989 353.704 95.5672 351.622C99.1442 349.548 104.924 349.574 108.519 351.648Z" fill="#3F535C"/>
<path d="M404.758 274.605L193.769 397.207L29.5231 302.383L240.512 179.781L404.758 274.605Z" fill="white"/>
<path d="M423.36 267.892L423.274 281.007C423.274 282.45 422.393 283.902 420.544 284.947L186.849 420.768C183.065 422.945 177.034 422.945 173.258 420.768L11.5347 327.404C9.60794 326.281 8.64026 324.829 8.64026 323.464L8.72666 310.357C8.72666 311.723 9.6857 313.174 11.6124 314.297L173.258 407.661C177.034 409.838 183.065 409.838 186.849 407.661L420.544 271.84C422.393 270.786 423.36 269.335 423.36 267.892Z" fill="#3F535C"/>
<path d="M395.462 291.807C396.74 291.064 397.777 291.652 397.786 293.129C397.786 293.864 397.526 294.685 397.094 295.393C396.715 296.099 396.158 296.695 395.479 297.121L383.988 303.748C382.709 304.491 381.672 303.886 381.663 302.435C381.663 300.966 382.692 299.177 383.97 298.443L395.462 291.807Z" fill="#B0B8BC"/>
<path d="M376.678 301.432L378.389 302.435C377.974 302.184 377.413 302.236 376.773 302.607L365.256 309.226C364.593 309.668 364.042 310.26 363.648 310.953C363.253 311.646 363.026 312.421 362.984 313.217C362.984 313.952 363.243 314.461 363.667 314.712L361.93 313.701C361.515 313.459 361.239 312.95 361.239 312.215C361.239 310.746 362.276 308.958 363.546 308.249L375.037 301.597C375.676 301.234 376.264 301.19 376.678 301.432ZM397.095 291.643C396.68 291.401 396.118 291.427 395.453 291.816L383.962 298.443C383.291 298.88 382.734 299.47 382.334 300.163C381.935 300.857 381.705 301.635 381.664 302.435C381.664 303.16 381.932 303.679 382.355 303.921L380.618 302.918C380.195 302.677 379.953 302.158 379.953 301.424C379.987 300.625 380.213 299.846 380.614 299.154C381.014 298.462 381.576 297.877 382.251 297.449L393.742 290.814C394.382 290.425 394.969 290.399 395.384 290.641L397.095 291.643Z" fill="#DDE4E7"/>
<path d="M376.773 302.599C378.035 301.864 379.072 302.452 379.072 303.929C379.05 304.723 378.821 305.498 378.406 306.176C378.022 306.879 377.466 307.473 376.791 307.904L365.282 314.557C364.012 315.282 362.984 314.678 362.975 313.226C362.975 311.757 364.003 309.969 365.265 309.243L376.773 302.599Z" fill="#B0B8BC"/>
<path d="M420.509 263.961C424.311 266.155 424.285 269.68 420.552 271.849L186.884 407.635C183.108 409.83 177.069 409.83 173.267 407.635L11.578 314.297C7.77635 312.103 7.75907 308.612 11.5348 306.418L245.204 170.614C248.927 168.454 255.019 168.42 258.82 170.614L420.509 263.961ZM193.778 397.215L404.758 274.605L240.512 179.773L29.5232 302.374L193.778 397.215ZM95.6106 359.148C99.153 361.195 104.985 361.195 108.553 359.122C112.13 357.048 112.061 353.696 108.51 351.648C104.916 349.575 99.1357 349.549 95.5674 351.622C91.9904 353.696 92.0163 357.074 95.6106 359.148ZM317.572 213.037C317.003 212.735 316.368 212.577 315.723 212.577C315.079 212.577 314.444 212.735 313.874 213.037C312.855 213.624 312.812 214.549 313.892 215.171L343.466 232.243C344.036 232.535 344.667 232.686 345.307 232.686C345.946 232.686 346.577 232.535 347.147 232.243C348.166 231.647 348.166 230.697 347.138 230.109L317.572 213.037Z" fill="#546F7A"/>
<path d="M208.241 12.4675L215.326 208.518L201.761 229.634L202.392 27.864L208.241 12.4675Z" fill="#475093"/>
<path d="M202.375 27.864L201.779 229.66L201.191 229.798L166.07 237.747L180.844 32.737L201.779 27.9936L202.375 27.864Z" fill="#515AA7"/>
<path d="M349.22 95.4721L208.19 12.4417L215.361 208.466L356.392 291.661L349.22 95.4721ZM239.155 60.29C239.155 61.1885 238.81 61.9056 238.291 62.4413H237.583C236.83 62.4009 236.103 62.1527 235.483 61.7242C233.038 60.29 231.112 57.6202 230.239 54.5876C229.879 53.6174 229.701 52.5895 229.712 51.5549C229.712 50.3021 230.057 49.4036 230.757 48.6951C231.457 48.5223 232.511 48.6951 233.384 49.4036C234.605 50.0018 235.634 50.9295 236.356 52.082C238.11 54.2247 239.337 57.0932 239.337 59.5815C239.337 59.7543 239.328 59.9444 239.155 60.29ZM298.478 97.969C297.605 97.969 296.905 97.969 295.851 97.4333C295.851 97.2605 295.678 97.2605 295.678 97.2605C294.031 96.078 292.658 94.5545 291.652 92.7936C291.306 92.4308 291.134 91.8951 290.952 91.3594C290.607 91.0052 290.607 90.4695 290.434 89.9338C290.089 89.0195 289.911 88.051 289.907 87.074C289.907 85.6397 290.252 84.7585 290.952 84.0413C291.652 84.0413 292.525 84.2228 293.579 84.7585C294.451 85.2941 295.151 86.0112 296.024 86.7284C297.951 89.0439 299.35 92.0852 299.35 94.9364C299.35 96.3533 299.005 97.2519 298.478 97.969Z" fill="#5F6AC4"/>
<path d="M354.154 96.1547L361.238 292.196L322.756 300.905L323.387 99.1441L354.154 96.1547Z" fill="#515AA7"/>
<path d="M313.615 114.376L308.154 323.68L161.188 237.108L176.014 32.1409L313.615 114.376Z" fill="#5F6AC4"/>
<path d="M240.754 150.198L240.65 187.557L273.163 206.323L273.102 226.282L240.59 207.524L240.486 244.875L223.12 234.853L223.215 197.493L190.711 178.718L190.763 158.76L223.275 177.526L223.379 140.167L240.754 150.198ZM323.396 99.144L322.756 300.905L308.155 323.68L313.615 114.368L323.396 99.144Z" fill="#475093"/>
<path d="M207.135 9.59045L200.31 26.5594L175.988 32.089L313.623 114.342L323.326 99.2218L354.119 96.1805L207.135 9.59045ZM321.754 97.7876L321.235 97.969L312.587 111.482L180.896 32.7975L201.891 27.985L202.427 27.8122L208.198 12.4503L349.229 95.4721L321.754 97.7876ZM204.397 88.3786C201.208 86.4951 198.616 81.9159 198.634 78.1834C198.634 76.8615 199.04 75.937 199.601 75.2199C197.813 75.3322 196.551 76.7405 196.543 79.3153C196.534 83.0477 199.126 87.6269 202.306 89.5105C204.405 90.746 206.168 90.409 207.196 89.0785C206.213 89.1445 205.233 88.8996 204.397 88.3786ZM264.548 123.811C261.326 121.91 258.768 117.349 258.777 113.616C258.777 112.285 259.191 111.361 259.744 110.644C257.956 110.748 256.703 112.165 256.695 114.748C256.677 118.48 259.243 123.042 262.457 124.943C264.557 126.179 266.311 125.842 267.339 124.511C266.358 124.576 265.382 124.331 264.548 123.811Z" fill="#7F88D0"/>
<path d="M198.634 78.1748C198.634 79.1857 198.833 80.1965 199.161 81.1988C200.025 84.1018 202.003 86.9358 204.31 88.2836C205.168 88.8549 206.184 89.1393 207.213 89.0957C207.737 88.4401 208.039 87.6356 208.077 86.7975C208.138 86.5988 208.138 86.3914 208.138 86.1236C208.138 83.6353 207.015 80.8013 205.304 78.65H205.235C204.492 77.518 203.499 76.572 202.332 75.8852C201.529 75.3686 200.578 75.1316 199.627 75.2113C198.945 76.0445 198.592 77.0987 198.634 78.1748ZM258.768 113.607C258.768 114.679 258.976 115.828 259.373 116.908C260.297 119.733 262.276 122.429 264.522 123.777C264.583 123.846 264.652 123.846 264.713 123.915C265.511 124.382 266.434 124.593 267.356 124.52C267.986 123.663 268.312 122.62 268.281 121.556V121.487C268.281 118.722 266.898 115.56 264.851 113.34C264.176 112.539 263.373 111.856 262.475 111.318C261.669 110.802 260.716 110.566 259.762 110.644C259.084 111.479 258.725 112.533 258.768 113.607Z" fill="#475093"/>
<path d="M238.291 62.4413C237.237 63.8669 235.483 64.2211 233.384 62.977C230.239 61.0071 227.612 56.5488 227.612 52.7991C227.612 50.1207 229.012 48.6951 230.757 48.6951C230.397 49.0736 230.119 49.5219 229.939 50.0123C229.759 50.5027 229.682 51.0248 229.712 51.5463C229.712 52.6263 229.885 53.6976 230.23 54.5875C231.112 57.6115 233.038 60.2899 235.483 61.7242C236.103 62.1527 236.83 62.4009 237.583 62.4413H238.291ZM298.478 97.9776C297.424 99.2131 295.678 99.576 293.579 98.3232C290.425 96.5434 287.799 91.8951 287.799 88.1453C287.799 85.6397 289.025 84.2227 290.779 84.0413C290.156 84.9221 289.848 85.9878 289.907 87.0653C289.907 87.9725 290.08 89.0439 290.425 89.9338C290.598 91.0051 291.125 91.8951 291.652 92.785C292.706 94.5735 294.106 96.1805 295.678 97.2519C295.678 97.2519 295.851 97.2519 295.851 97.4247C296.905 97.969 297.605 97.969 298.478 97.969V97.9776Z" fill="#7F88D0"/>
<path d="M291.652 92.7937C291.138 92.0144 290.725 91.1723 290.425 90.2881V89.9338C290.598 91.0052 291.125 91.9038 291.652 92.7937Z" fill="#C62F06"/>
<path d="M361.239 292.205L322.825 278.899L308.155 323.68L322.756 300.905L361.239 292.205Z" fill="#3E4A84"/>
<path d="M261.775 118.671C262.285 118.994 262.71 119.436 263.015 119.957C263.32 120.478 263.497 121.065 263.529 121.669L263.399 166.666C263.313 186.676 249.169 194.746 231.768 184.689C214.367 174.649 200.284 150.284 200.336 130.257L200.466 85.2596C200.466 84.1364 201.26 83.7304 202.228 84.292C203.204 84.8536 203.956 86.1496 203.956 87.2728L203.827 132.27C203.827 141.204 206.92 151.045 211.991 159.788C217.063 168.575 224.018 176.204 231.777 180.688C239.536 185.164 246.517 185.579 251.623 182.676C256.721 179.799 259.857 173.552 259.883 164.635L260.013 119.638C260.013 118.515 260.799 118.109 261.775 118.671Z" fill="white"/>
<path d="M163.21 228.787L163.141 256.565L162.985 300.681C162.985 301.251 162.95 301.804 162.873 302.374C162.199 308.284 157.982 314.047 150.258 318.531C133.177 328.467 105.391 328.467 88.1885 318.531C80.3953 314.047 76.1012 308.249 75.3495 302.374C75.2748 301.726 75.2373 301.074 75.2372 300.421L75.3495 256.565L75.4273 228.554C75.4273 235.103 79.7473 241.661 88.3786 246.629C105.572 256.565 133.358 256.565 150.457 246.629C158.924 241.695 163.175 235.259 163.218 228.779L163.21 228.787Z" fill="#29D2C2"/>
<path d="M150.25 210.695C167.443 220.614 167.539 236.701 150.449 246.637C133.376 256.565 105.581 256.565 88.3961 246.637C71.2025 236.71 71.1161 220.614 88.1887 210.695C105.279 200.759 133.048 200.759 150.25 210.695Z" fill="#29D2C2"/>
<path d="M150.768 206.842L150.63 222.653C150.613 227.284 147.571 231.915 141.471 235.449C129.229 242.568 109.287 242.568 96.9581 235.449C90.7546 231.872 87.6529 227.163 87.6615 222.471L87.8084 206.66C87.7997 211.352 90.8929 216.052 97.105 219.637C109.434 226.757 129.375 226.757 141.627 219.637C147.718 216.095 150.759 211.473 150.777 206.833L150.768 206.842Z" fill="#29D2C2"/>
<path d="M190.115 312.88L179.401 318.885L172.688 306.91L183.401 300.905C184.188 300.465 185.053 300.183 185.948 300.077C186.843 299.97 187.751 300.041 188.618 300.286C189.486 300.53 190.297 300.943 191.005 301.5C191.713 302.058 192.305 302.75 192.746 303.536C193.186 304.323 193.468 305.188 193.574 306.083C193.681 306.978 193.61 307.886 193.365 308.753C193.121 309.621 192.708 310.432 192.151 311.14C191.593 311.848 190.901 312.44 190.115 312.88Z" fill="#E8E8E8"/>
<path d="M180.853 315.758C180.827 317.313 180.274 318.41 179.401 318.894L179.203 318.989L169.379 324.518C167.786 325.4 165.909 325.616 164.158 325.119C162.407 324.622 160.923 323.453 160.03 321.866C159.146 320.279 158.925 318.406 159.416 316.657C159.906 314.907 161.068 313.423 162.648 312.526L172.671 306.893L172.705 306.927C173.578 306.409 174.779 306.504 176.101 307.282C178.779 308.837 180.887 312.656 180.853 315.749V315.758Z" fill="#7DB343"/>
<path d="M168.826 290.261L177.474 281.534L187.22 291.211L178.58 299.929C177.945 300.569 177.191 301.079 176.359 301.427C175.528 301.776 174.635 301.958 173.734 301.962C172.832 301.966 171.938 301.792 171.103 301.451C170.269 301.109 169.509 300.607 168.869 299.972C168.228 299.337 167.719 298.583 167.37 297.751C167.022 296.919 166.84 296.027 166.836 295.125C166.832 294.224 167.006 293.33 167.347 292.495C167.688 291.661 168.191 290.901 168.826 290.261Z" fill="#E8E8E8"/>
<path d="M195.316 283.046L187.22 291.203L177.474 281.543L185.561 273.378C186.196 272.738 186.951 272.229 187.783 271.88C188.614 271.531 189.506 271.349 190.408 271.345C191.31 271.341 192.204 271.515 193.038 271.856C193.873 272.198 194.632 272.7 195.273 273.335C195.913 273.97 196.422 274.725 196.771 275.556C197.12 276.388 197.302 277.28 197.306 278.182C197.31 279.084 197.136 279.977 196.795 280.812C196.453 281.647 195.951 282.406 195.316 283.046Z" fill="#7DB343"/>
<path d="M176.939 284.965C176.118 281.966 177.88 280.169 180.87 280.947C183.859 281.725 186.944 284.783 187.765 287.781C188.585 290.779 186.814 292.576 183.825 291.799C180.835 291.021 177.751 287.963 176.939 284.965Z" fill="#7DB343"/>
<path d="M143.865 181.371C157.516 189.259 157.603 202.038 144.029 209.926C130.464 217.806 108.389 217.806 94.738 209.926C81.0696 202.038 81.0091 189.259 94.5652 181.371C108.147 173.483 130.205 173.483 143.865 181.371Z" fill="#F17572"/>
<path d="M154.155 195.748L154 213.261C153.983 218.393 150.604 223.517 143.865 227.431C130.3 235.319 108.225 235.319 94.5739 227.431C87.6965 223.465 84.2664 218.264 84.2837 213.062L84.4478 195.549C84.4305 200.75 87.8606 205.96 94.7294 209.926C108.381 217.806 130.464 217.806 144.029 209.926C150.768 206.012 154.138 200.871 154.155 195.748Z" fill="#EE534F"/>
<path opacity="0.2" d="M88.8369 205.407V223.094C88.0553 222.312 87.3521 221.455 86.7374 220.536V202.781C87.3163 203.688 87.9988 204.561 88.8369 205.407ZM95.1096 210.125V227.716L94.5566 227.422C94.0343 227.118 93.5158 226.807 93.0014 226.489V208.863C93.5544 209.218 94.1419 209.572 94.7294 209.926L95.1096 210.125ZM101.417 212.933V230.498C100.704 230.262 100.003 229.991 99.3172 229.686V212.129C99.9912 212.449 100.7 212.708 101.417 212.933ZM107.689 214.652V232.174C106.991 232.059 106.299 231.909 105.616 231.725V214.186C106.298 214.384 106.981 214.523 107.689 214.652ZM113.997 215.585V233.081C113.291 233.051 112.588 232.988 111.888 232.891V215.361C112.571 215.456 113.279 215.525 113.997 215.585ZM120.269 215.819V233.306C119.578 233.338 118.886 233.338 118.196 233.306V215.827C118.878 215.853 119.552 215.845 120.269 215.819ZM126.576 215.43V232.883C125.859 232.986 125.185 233.055 124.468 233.081V215.629C125.185 215.585 125.903 215.49 126.576 215.43ZM132.84 214.263V231.716C132.164 231.919 131.474 232.072 130.775 232.174V214.721C131.484 214.618 132.158 214.462 132.849 214.263H132.84ZM139.148 212.259V229.686C138.474 230.014 137.765 230.273 137.048 230.498V213.037C137.757 212.838 138.474 212.579 139.148 212.259ZM145.42 209.088V226.454C144.911 226.792 144.392 227.114 143.865 227.422C143.699 227.521 143.526 227.608 143.347 227.681V210.289C143.58 210.185 143.805 210.056 144.038 209.926C144.522 209.641 144.971 209.347 145.42 209.088ZM151.727 203.109V220.406C151.114 221.314 150.431 222.186 149.628 223.024V205.658C150.41 204.879 151.113 204.026 151.727 203.109Z" fill="#B33E3B"/>
<path d="M134.413 263.84C118.938 267.071 100.933 265.118 88.4738 257.921C79.8511 252.953 75.5138 246.396 75.5138 239.846L75.4447 267.857L75.3324 289.129C75.3324 289.768 75.3669 290.442 75.4447 291.082C76.1964 296.957 80.4904 302.746 88.2837 307.238C100.794 314.461 118.895 316.405 134.421 313.114L134.413 263.84Z" fill="#172C7A"/>
<path d="M252.141 295.35L252.081 312.206L251.994 335.102V338.645C251.994 342.386 249.549 346.118 244.668 348.952C234.809 354.681 218.8 354.681 208.881 348.952C203.878 346.058 201.381 342.3 201.407 338.507V335.051L201.494 312.008L201.52 295.212C201.52 298.979 204.025 302.772 208.993 305.631C218.912 311.36 234.948 311.36 244.78 305.631C249.662 302.797 252.141 299.065 252.141 295.35Z" fill="#EE534F"/>
<path d="M252.081 312.206L252.029 323.594L251.995 335.111C250.846 336.174 249.498 337.159 247.925 338.083C238.594 343.509 224.614 344.572 213.374 341.315C210.657 340.565 208.045 339.48 205.598 338.083C204.096 337.227 202.691 336.21 201.407 335.051L201.494 312.008C202.669 313.131 204.103 314.168 205.762 315.118C217.504 321.892 236.434 321.892 248.063 315.118C249.505 314.297 250.852 313.32 252.081 312.206Z" fill="#FED44C"/>
<path d="M252.141 323.257L251.994 335.111C250.845 336.174 249.497 337.159 247.925 338.083C238.594 343.509 224.614 344.572 213.374 341.315C213.374 341.315 248.487 335.811 252.029 323.594C252.081 323.482 252.115 323.369 252.141 323.248V323.257Z" fill="#F2BC36"/>
<path d="M243.735 285.12C253.135 290.555 253.161 299.35 243.847 304.767C234.516 310.193 219.335 310.193 209.935 304.767C200.535 299.341 200.491 290.555 209.823 285.129C219.145 279.711 234.334 279.694 243.735 285.12Z" fill="#7F88D0"/>
<path d="M255.182 283.859L255.036 294.469C255.018 298.642 252.271 302.815 246.802 305.994C235.768 312.405 217.823 312.414 206.712 305.994C201.131 302.772 198.331 298.538 198.349 294.304L198.495 283.703C198.495 287.937 201.277 292.17 206.876 295.393C217.979 301.804 235.915 301.804 246.957 295.393C252.426 292.205 255.165 288.04 255.182 283.859Z" fill="#B0B8BC"/>
<path d="M246.828 272.169C257.93 278.588 257.974 288.991 246.958 295.393C235.916 301.804 217.979 301.804 206.868 295.393C195.757 288.982 195.705 278.588 206.738 272.169C217.754 265.775 235.717 265.758 246.828 272.169Z" fill="#DDE4E7"/>
<path d="M243.389 274.735C252.582 279.737 252.616 287.842 243.493 292.827C234.36 297.821 219.508 297.821 210.315 292.827C201.113 287.833 201.07 279.737 210.203 274.735C219.318 269.749 234.196 269.741 243.389 274.735Z" fill="#B0B8BC"/>
</svg>
