<svg width="80" height="10" viewBox="0 0 80 10" fill="none" xmlns="http://www.w3.org/2000/svg">
<path d="M0.999942 7.6972C0.913006 7.23919 0.913006 7.1883 1.17381 7.1883C1.30422 7.1883 1.43462 7.1883 1.56502 7.08651C1.69543 6.98473 1.78236 6.73028 1.9997 6.73028C2.30397 6.73028 2.34744 6.27226 2.69518 6.27226C2.95599 6.27226 3.2168 6.27226 3.4776 6.27226C3.65147 6.27226 3.73841 6.17048 3.86881 6.0687C3.99922 5.96692 4.21656 6.01781 4.30349 5.81425C4.5643 5.86514 4.65123 5.5598 4.86857 5.5598C5.12938 5.50891 5.25978 5.25445 5.56406 5.30534C5.7814 5.35623 5.99873 5.25445 6.21607 5.30534C6.52035 5.35623 6.65075 5.10178 6.91156 5.05089C7.17236 5.05089 7.43317 5.05089 7.69398 5.05089C7.95478 5.05089 8.21559 5.10178 8.4764 5.05089C8.7372 5 8.95454 4.79644 9.25882 4.84733C9.56309 4.89822 9.86736 4.84733 10.1282 4.84733C10.4324 4.84733 10.5628 4.49109 10.9106 4.59288C11.2149 4.69466 11.5626 4.59288 11.9103 4.59288C12.2146 4.59288 12.5189 4.64377 12.7797 4.59288C13.1274 4.54199 13.4317 4.28753 13.7795 4.33842C14.1272 4.38931 14.5184 4.33842 14.8662 4.33842C15.2139 4.33842 15.6051 4.28753 15.9529 4.33842C16.2571 4.38931 16.431 4.03308 16.7353 4.08397C17.0395 4.13486 17.3873 4.08397 17.735 4.08397C18.0393 4.08397 18.3436 4.08397 18.6044 4.08397C18.9956 4.03308 19.4303 4.23664 19.7345 3.88041H19.8215C19.9084 3.88041 19.9519 3.88041 20.0388 3.88041H21.0386H21.9079C22.1687 3.62595 22.5599 3.77863 22.8642 3.72774C22.9077 3.72774 22.9512 3.67685 22.9512 3.67685C22.9077 3.62595 22.8642 3.52417 22.8642 3.52417C22.473 3.57506 22.0818 3.42239 21.7341 3.72774C21.6471 3.77863 21.4298 3.72774 21.2994 3.72774C20.5604 3.72774 19.8215 3.72774 19.0825 3.72774C18.7783 3.72774 18.6479 4.08397 18.3001 3.98219C18.0393 3.9313 17.735 3.98219 17.4308 3.98219C17.1265 3.98219 16.8222 3.98219 16.5614 3.98219C16.1702 4.03308 15.8659 4.28753 15.4312 4.23664C15.04 4.18575 14.6054 4.23664 14.2141 4.23664C13.8229 4.23664 13.3883 4.28753 12.997 4.23664C12.6493 4.13486 12.4754 4.49109 12.1712 4.4402C11.8669 4.38931 11.6061 4.4402 11.3018 4.4402H10.4324H9.56309H8.69374H7.82438C7.47664 4.4402 7.1289 4.38931 6.82462 4.4402C6.43341 4.54199 6.25954 4.18575 5.9118 4.18575C5.56406 4.18575 5.25978 4.18575 4.91204 4.18575C4.86857 4.18575 4.78164 4.13486 4.73817 4.08397C4.52083 3.77863 4.26002 3.72774 3.91228 3.67685C3.65147 3.62595 3.4776 3.3715 3.26027 3.16794C3.69494 2.91349 4.08615 3.16794 4.39043 2.96438C4.39043 2.8117 4.26002 2.76081 4.17309 2.65903C4.08615 2.55725 3.95575 2.45547 3.86881 2.35369C3.73841 2.20102 3.69494 2.09924 3.86881 1.94657C4.04268 1.79389 3.99922 1.59033 3.99922 1.43766C3.99922 1.2341 4.26002 1.13232 4.26002 0.877863C4.26002 0.6743 4.5643 0.776081 4.73817 0.776081C4.99898 0.776081 5.25978 0.776081 5.52059 0.776081C5.60752 0.776081 5.69446 0.6743 5.7814 0.62341C5.95527 0.521629 5.99873 0.521629 6.17261 0.62341C6.30301 0.725191 6.38994 0.776081 6.56382 0.776081C6.65075 0.776081 6.78115 0.776082 6.86809 0.877863C7.08543 1.18321 7.34623 1.2341 7.73744 1.2341C7.99825 1.2341 8.17212 1.08143 8.38946 1.03053C8.51986 1.28499 8.78067 1.18321 8.99801 1.18321C9.25882 1.18321 9.51962 1.18321 9.78043 1.18321H10.4324H11.2149C11.4322 1.18321 11.6495 1.18321 11.8669 1.18321C12.0408 1.18321 12.1712 1.18321 12.2581 1.03053C12.3016 0.928753 12.345 0.979644 12.432 1.03053C12.7362 1.2341 12.7362 1.2341 12.9536 1.03053C12.997 0.979644 13.0405 0.928753 13.1274 0.877863C13.0405 0.826972 12.9536 0.776081 12.8666 0.776081C12.5624 0.776081 12.2581 0.776081 11.9973 0.776081C11.9538 0.776081 11.9103 0.725191 11.8234 0.6743C11.8669 0.62341 11.9538 0.572519 11.9973 0.572519C12.345 0.572519 12.6493 0.572519 12.997 0.572519C13.1274 0.572519 13.2144 0.216285 13.3883 0.470738C13.5187 0.6743 13.736 0.521629 13.9099 0.572519C13.9533 0.572519 13.9968 0.62341 13.9968 0.6743C14.0403 1.38677 14.5184 0.928753 14.8227 1.03053C14.8227 1.03053 14.9096 0.928753 14.9096 0.826972C14.9096 0.725191 14.9096 0.572519 15.04 0.62341C15.0835 0.62341 15.127 0.826972 15.127 0.928753C15.1704 1.2341 15.2574 1.33588 15.5182 1.28499C15.6051 1.28499 15.692 1.2341 15.779 1.18321C16.0833 1.03053 16.3875 0.979644 16.6483 1.2341C16.7787 1.33588 16.9091 1.28499 17.0395 1.33588C17.1265 1.33588 17.2569 1.33588 17.2569 1.18321C17.2569 1.13232 17.1265 1.13232 17.083 1.08142C17.0395 1.03053 16.9091 1.03053 16.9091 0.979644C16.9091 0.826972 16.9961 0.826972 17.1265 0.826972C17.1699 0.826972 17.2134 0.826972 17.2569 0.826972C17.4742 0.877863 17.5612 0.776081 17.5612 0.521628C17.5612 0.419847 17.6481 0.368957 17.7785 0.470738C17.6916 0.470738 17.822 0.521629 17.822 0.470738C18.0393 0.165394 18.3436 0.318066 18.6479 0.267176C18.9087 0.267176 19.126 0.216285 19.3433 0.470738C19.3868 0.521629 19.6041 0.521629 19.778 0.470738C19.9084 0.419847 19.9519 0.216285 20.1258 0.267176C20.6039 0.267176 21.082 0.267176 21.5602 0.267176C21.6037 0.267176 21.6471 0.368957 21.7341 0.419847C21.8645 0.62341 22.0818 0.572519 22.1687 0.521628C22.473 0.267176 22.7338 0.216285 23.0381 0.521628C23.0381 0.521628 23.1685 0.470738 23.1685 0.419847C23.3424 0.267176 23.4728 0.318066 23.6466 0.419847C23.8205 0.572519 23.9075 0.572519 23.9944 0.419847C24.1683 0.216285 24.3856 0.318066 24.6029 0.267176C24.9072 0.6743 25.3419 0.470738 25.7331 0.470738C25.907 0.216285 26.1243 0.165394 26.3416 0.419847H26.4286C26.6025 0.114504 26.9067 0.267176 27.1241 0.216285C27.6457 0.216285 28.1673 0.216285 28.6889 0.216285C28.9497 0.216285 29.2975 0.318066 29.4713 0.0127226C29.7321 0.368957 30.0364 0.216285 30.3841 0.216285C30.6884 0.216285 30.9927 0.216285 31.2535 0.216285C31.4274 0.216285 31.5578 0.165394 31.6447 0.0636132C31.6447 0.0636132 31.6882 0.0636132 31.7751 0.165394C31.9055 0.318066 32.0794 0.368957 32.2098 0.165394C32.2967 0.0636132 32.3402 0.114504 32.4706 0.165394C32.7749 0.318066 33.0791 0.368957 33.34 0.114504C33.4704 -0.0381679 33.5138 0.114504 33.5573 0.165394C33.7312 0.267176 33.7312 0.267176 33.9485 0.165394C34.0354 0.114504 34.0789 -0.0381679 34.1658 0.114504C34.3397 0.368957 34.644 0.368957 34.7744 0.267176C35.0352 0.0127227 35.296 0.114504 35.6003 0.0636132C35.8611 0.0636132 36.1219 -0.0381679 36.2958 0.267176C36.3392 0.318066 36.5131 0.267176 36.5566 0.216285C36.687 0.165394 36.7739 0.0636132 36.9478 0.0636132C37.3825 0.0636132 37.8171 0.0636132 38.2518 0.0636132C42.2943 0.0636132 46.3368 0.0636132 50.3793 0.0636132C50.6401 0.0636132 50.9009 0.0127227 51.0748 0.267176C51.1183 0.318066 51.2921 0.267176 51.3356 0.216285C51.466 0.0636132 51.5529 0.114504 51.6399 0.216285C51.7703 0.318066 51.8138 0.0636132 51.8572 0.114504C52.3788 0.419847 52.9439 0.267176 53.509 0.267176C54.1175 0.318066 54.7696 0.267176 55.3781 0.267176H57.1603C57.7688 0.267176 58.3339 0.267176 58.9425 0.267176C59.2467 0.267176 59.5945 0.419847 59.8553 0.0636132C59.9422 -0.0381679 60.1161 0.0127226 60.29 0.0127226C63.4196 0.0127226 66.5493 0.0127226 69.679 0.0127226C69.9398 0.0127226 70.1137 0.216285 70.3745 0.267176C70.5918 0.318066 70.8092 0.165394 71.0265 0.318066C71.07 0.368957 71.1134 0.419847 71.2004 0.470738C71.4177 0.0636132 71.635 0.318066 71.8959 0.470738C72.1567 0.572519 72.4609 0.470738 72.7652 0.470738C73.0695 0.470738 73.2434 0.826972 73.5476 0.725191C73.765 0.6743 74.0692 0.6743 74.3301 0.725191C74.5039 0.725191 74.6343 0.877863 74.8082 0.928753C74.9821 0.979644 75.1994 0.877863 75.3733 0.928753C75.5471 0.979644 75.6341 1.13232 75.8514 1.18321C75.9818 1.18321 76.1122 1.43766 76.3296 1.38677L76.373 1.53944C76.1992 1.64122 76.2426 1.89567 76.1557 1.99746C76.0253 2.15013 75.8514 2.35369 75.5906 2.3028C75.5037 2.3028 75.4167 2.35369 75.3298 2.40458C75.5037 2.55725 75.6341 2.70992 75.7645 2.8626C75.7645 2.8626 75.7645 2.91349 75.7645 2.96438C75.5037 3.16794 75.3733 3.52417 74.9821 3.52417C74.8082 3.52417 74.6343 3.52417 74.417 3.52417C74.1996 3.52417 74.2431 3.72774 74.2431 3.88041C74.2431 3.9313 74.2431 3.9313 74.2431 3.98219C74.0258 3.98219 73.8954 4.18575 73.678 4.23664C73.4607 4.28753 73.3303 4.59288 73.113 4.79644C73.2434 4.84733 73.3303 4.89822 73.4172 4.89822C74.5039 4.89822 75.6341 4.89822 76.7208 4.89822C77.0251 4.89822 77.3728 4.94911 77.6771 4.94911C77.8944 5.25445 78.1987 5.10178 78.503 5.10178C78.7638 5.45802 79.3723 5.20356 79.5897 5.71247C79.6766 5.86514 79.8505 5.96692 79.9809 6.11959C79.9809 6.37405 79.9809 6.6285 79.9809 6.83206C79.9809 6.88295 80.0243 7.03562 79.9809 7.03562C79.6331 7.29008 79.8505 7.64631 79.7635 7.95165L78.9376 8.20611C78.8507 8.15522 78.8072 7.95165 78.7203 8.15522C78.5899 8.35878 78.1552 8.15522 78.2421 8.61323C78.2421 8.66412 78.1552 8.71501 78.0683 8.71501C77.8075 8.66412 77.5467 8.7659 77.4163 9.02036C77.2859 9.22392 77.112 9.22392 76.9381 9.17303C76.7208 9.12214 76.6338 9.47837 76.373 9.42748C76.1557 9.37659 75.9384 9.37659 75.721 9.42748C75.4602 9.52926 75.3733 9.12214 75.1994 9.27481C75.0255 9.42748 74.8517 9.42748 74.6778 9.37659C74.417 9.37659 74.1562 9.47837 73.9823 9.17303C73.678 9.17303 73.4172 9.12214 73.113 9.12214C72.8521 9.12214 72.5913 9.02036 72.4175 9.3257C72.374 9.37659 72.2436 9.37659 72.2001 9.37659C72.0263 9.27481 71.8959 9.07125 71.722 9.37659C71.5481 9.37659 71.3742 9.37659 71.1569 9.37659C70.9396 9.37659 70.7222 9.37659 70.5049 9.37659H69.9398H69.2878C69.1139 9.37659 68.8966 9.3257 68.7227 9.37659C68.5488 9.42748 68.4184 9.52926 68.2446 9.58015C68.0707 9.63104 67.8968 9.58015 67.6795 9.58015C67.3752 9.58015 67.0275 9.63104 66.7667 9.37659C66.6797 9.3257 66.4189 9.3257 66.3755 9.37659C66.1581 9.63104 65.9408 9.58015 65.68 9.58015C65.4626 9.58015 65.2453 9.63104 65.0714 9.37659C64.9845 9.27481 64.8106 9.3257 64.6367 9.3257C62.246 9.3257 59.8553 9.3257 57.4646 9.3257C57.2472 9.3257 57.0734 9.3257 56.856 9.52926C56.7256 9.63104 56.4213 9.68193 56.2909 9.42748C56.2475 9.3257 56.204 9.3257 56.1171 9.42748C55.9867 9.68193 55.7258 9.58015 55.5085 9.58015C55.3346 9.27481 55.0738 9.3257 54.813 9.37659C54.5957 9.37659 54.3783 9.3257 54.2045 9.52926C54.1175 9.63104 53.8567 9.58015 53.6829 9.58015C50.3358 9.58015 46.9888 9.58015 43.6418 9.58015C43.2071 9.58015 42.7725 9.42748 42.4247 9.78372C42.3812 9.83461 42.2508 9.78372 42.2508 9.73283C42.1204 9.47837 41.8596 9.52926 41.6423 9.52926C40.5556 9.52926 39.5124 9.52926 38.4257 9.52926C34.5136 9.52926 30.558 9.52926 26.6459 9.52926C26.3851 9.52926 26.1678 9.47837 25.9504 9.73283C25.8635 9.83461 25.6896 9.73282 25.5592 9.63104C25.3419 9.42748 25.0811 9.42748 24.9072 9.68193C24.8203 9.78372 24.8203 9.78372 24.7333 9.68193C24.6899 9.63104 24.5595 9.52926 24.4725 9.52926C24.0379 9.52926 23.6032 9.52926 23.1685 9.52926C22.7773 9.52926 22.473 9.8855 22.0383 9.78372C21.6471 9.68193 21.2125 9.78372 20.8212 9.78372H19.6041H18.387H17.1699H15.9529H14.7792C14.388 9.78372 13.9533 9.78372 13.5621 9.78372C13.3448 9.78372 13.1274 9.73283 12.9536 9.93639C12.9101 10.0382 12.6928 9.98728 12.5624 9.98728C10.2586 9.98728 7.95478 9.98728 5.60752 9.98728C5.39019 9.98728 5.17285 10.0382 4.99898 9.78372C4.99898 9.78372 4.78164 9.93639 4.6947 9.93639C3.73841 9.93639 2.78212 9.98728 1.82583 9.93639C1.56502 9.93639 1.30422 9.73283 1.08688 9.58015C0.999942 9.52926 0.999942 9.52926 0.913006 9.58015C0.391393 9.98728 0.434861 10.0382 0.000183105 9.52926C0.0871186 9.47837 0.217522 9.47837 0.304457 9.42748C0.434861 9.37659 0.521796 9.22392 0.434861 9.12214C0.391393 9.07125 0.304457 9.02036 0.304457 8.96947C0.174054 8.71501 0.217522 8.61323 0.565264 8.35878C0.695667 8.257 0.695667 8.10433 0.695667 7.95165C0.695667 7.74809 0.695667 7.59542 0.999942 7.6972C1.08688 7.6972 1.04341 7.64631 0.999942 7.64631H0.913006C0.913006 7.64631 0.913006 7.6972 0.913006 7.74809C0.956474 7.79898 0.999942 7.84987 1.04341 7.84987C1.04341 7.84987 1.08688 7.79898 0.999942 7.6972ZM67.2013 4.64377C67.5056 4.64377 67.7664 4.64377 68.0707 4.64377C68.1142 4.64377 68.1576 4.54199 68.1576 4.49109C68.1576 4.49109 68.1142 4.4402 68.0707 4.4402C67.5491 4.4402 67.0709 4.4402 66.5493 4.4402C66.5059 4.4402 66.4624 4.54199 66.4624 4.59288C66.4624 4.59288 66.5059 4.64377 66.5493 4.64377C66.7667 4.64377 66.984 4.64377 67.2013 4.64377ZM6.60728 2.15013C6.69422 2.09924 6.78115 2.09924 6.82462 2.04835V1.99746C6.73769 1.89567 6.52035 1.89567 6.47688 1.99746C6.43341 2.04835 6.56381 2.09924 6.60728 2.15013Z" fill="#172C7A"/>
</svg>
